<?xml version="1.0" encoding="utf-8" standalone="no"?>
<!DOCTYPE svg PUBLIC "-//W3C//DTD SVG 1.1//EN"
  "http://www.w3.org/Graphics/SVG/1.1/DTD/svg11.dtd">
<!-- Created with matplotlib (https://matplotlib.org/) -->
<svg height="367.274375pt" version="1.1" viewBox="0 0 444.126328 367.274375" width="444.126328pt" xmlns="http://www.w3.org/2000/svg" xmlns:xlink="http://www.w3.org/1999/xlink">
 <defs>
  <style type="text/css">
*{stroke-linecap:butt;stroke-linejoin:round;}
  </style>
 </defs>
 <g id="figure_1">
  <g id="patch_1">
   <path d="M 0 367.274375 
L 444.126328 367.274375 
L 444.126328 0 
L 0 0 
z
" style="fill:#ffffff;"/>
  </g>
  <g id="axes_1">
   <g id="patch_2">
    <path d="M 55.345313 329.718125 
L 334.675078 329.718125 
L 334.675078 22.318125 
L 55.345313 22.318125 
z
" style="fill:#ffffff;"/>
   </g>
   <g id="PolyCollection_1">
    <defs>
     <path d="M 89.658167 -58.849799 
L 86.209404 -58.849799 
L 85.885907 -61.598624 
L 85.518611 -64.34745 
L 85.105184 -67.096275 
L 84.643911 -69.845101 
L 84.133843 -72.593926 
L 83.574949 -75.342752 
L 82.968251 -78.091577 
L 82.31594 -80.840403 
L 81.621476 -83.589228 
L 80.889643 -86.338054 
L 80.126567 -89.086879 
L 79.339696 -91.835705 
L 78.537721 -94.58453 
L 77.730451 -97.333356 
L 76.928639 -100.082181 
L 76.143757 -102.831007 
L 75.387734 -105.579832 
L 74.67266 -108.328658 
L 74.010461 -111.077483 
L 73.412572 -113.826309 
L 72.889608 -116.575134 
L 72.451043 -119.32396 
L 72.10493 -122.072785 
L 71.857652 -124.821611 
L 71.713723 -127.570436 
L 71.675658 -130.319262 
L 71.743896 -133.068087 
L 71.916796 -135.816913 
L 72.190701 -138.565738 
L 72.560062 -141.314564 
L 73.017619 -144.063389 
L 73.55464 -146.812214 
L 74.161179 -149.56104 
L 74.826384 -152.309865 
L 75.538796 -155.058691 
L 76.28667 -157.807516 
L 77.058269 -160.556342 
L 77.842147 -163.305167 
L 78.627402 -166.053993 
L 79.403888 -168.802818 
L 80.162388 -171.551644 
L 80.894744 -174.300469 
L 81.593942 -177.049295 
L 82.254154 -179.79812 
L 82.870742 -182.546946 
L 83.440225 -185.295771 
L 83.960217 -188.044597 
L 84.429348 -190.793422 
L 84.84716 -193.542248 
L 85.214001 -196.291073 
L 85.53091 -199.039899 
L 85.799509 -201.788724 
L 86.021894 -204.53755 
L 86.200543 -207.286375 
L 86.338229 -210.035201 
L 86.43795 -212.784026 
L 86.50287 -215.532852 
L 86.53627 -218.281677 
L 86.541515 -221.030503 
L 86.522026 -223.779328 
L 86.481253 -226.528154 
L 86.422661 -229.276979 
L 86.349713 -232.025805 
L 86.265846 -234.77463 
L 86.174452 -237.523456 
L 86.078851 -240.272281 
L 85.982261 -243.021107 
L 85.887759 -245.769932 
L 85.798242 -248.518758 
L 85.716386 -251.267583 
L 85.6446 -254.016409 
L 85.584987 -256.765234 
L 85.539303 -259.51406 
L 85.508923 -262.262885 
L 85.494824 -265.011711 
L 85.497563 -267.760536 
L 85.517277 -270.509362 
L 85.553695 -273.258187 
L 85.606153 -276.007013 
L 85.673634 -278.755838 
L 85.754804 -281.504664 
L 85.848068 -284.253489 
L 85.951628 -287.002315 
L 86.063542 -289.75114 
L 86.181792 -292.499966 
L 86.30434 -295.248791 
L 86.429195 -297.997617 
L 86.554459 -300.746442 
L 86.678376 -303.495268 
L 86.799368 -306.244093 
L 86.916064 -308.992919 
L 87.027315 -311.741744 
L 87.132206 -314.49057 
L 87.230054 -317.239395 
L 87.320397 -319.988221 
L 87.402984 -322.737046 
L 87.477752 -325.485872 
L 87.544804 -328.234697 
L 87.604381 -330.983523 
L 88.263189 -330.983523 
L 88.263189 -330.983523 
L 88.322766 -328.234697 
L 88.389819 -325.485872 
L 88.464587 -322.737046 
L 88.547174 -319.988221 
L 88.637517 -317.239395 
L 88.735364 -314.49057 
L 88.840255 -311.741744 
L 88.951507 -308.992919 
L 89.068203 -306.244093 
L 89.189195 -303.495268 
L 89.313112 -300.746442 
L 89.438375 -297.997617 
L 89.56323 -295.248791 
L 89.685779 -292.499966 
L 89.804028 -289.75114 
L 89.915942 -287.002315 
L 90.019502 -284.253489 
L 90.112766 -281.504664 
L 90.193936 -278.755838 
L 90.261417 -276.007013 
L 90.313876 -273.258187 
L 90.350293 -270.509362 
L 90.370008 -267.760536 
L 90.372746 -265.011711 
L 90.358647 -262.262885 
L 90.328268 -259.51406 
L 90.282583 -256.765234 
L 90.22297 -254.016409 
L 90.151185 -251.267583 
L 90.069329 -248.518758 
L 89.979812 -245.769932 
L 89.885309 -243.021107 
L 89.788719 -240.272281 
L 89.693119 -237.523456 
L 89.601725 -234.77463 
L 89.517857 -232.025805 
L 89.444909 -229.276979 
L 89.386318 -226.528154 
L 89.345544 -223.779328 
L 89.326055 -221.030503 
L 89.3313 -218.281677 
L 89.364701 -215.532852 
L 89.42962 -212.784026 
L 89.529341 -210.035201 
L 89.667027 -207.286375 
L 89.845676 -204.53755 
L 90.068061 -201.788724 
L 90.33666 -199.039899 
L 90.653569 -196.291073 
L 91.02041 -193.542248 
L 91.438222 -190.793422 
L 91.907353 -188.044597 
L 92.427345 -185.295771 
L 92.996828 -182.546946 
L 93.613416 -179.79812 
L 94.273629 -177.049295 
L 94.972827 -174.300469 
L 95.705182 -171.551644 
L 96.463682 -168.802818 
L 97.240168 -166.053993 
L 98.025423 -163.305167 
L 98.809301 -160.556342 
L 99.5809 -157.807516 
L 100.328774 -155.058691 
L 101.041187 -152.309865 
L 101.706391 -149.56104 
L 102.312931 -146.812214 
L 102.849951 -144.063389 
L 103.307509 -141.314564 
L 103.676869 -138.565738 
L 103.950774 -135.816913 
L 104.123674 -133.068087 
L 104.191912 -130.319262 
L 104.153847 -127.570436 
L 104.009919 -124.821611 
L 103.76264 -122.072785 
L 103.416527 -119.32396 
L 102.977962 -116.575134 
L 102.454998 -113.826309 
L 101.85711 -111.077483 
L 101.194911 -108.328658 
L 100.479836 -105.579832 
L 99.723814 -102.831007 
L 98.938932 -100.082181 
L 98.137119 -97.333356 
L 97.329849 -94.58453 
L 96.527874 -91.835705 
L 95.741003 -89.086879 
L 94.977928 -86.338054 
L 94.246094 -83.589228 
L 93.55163 -80.840403 
L 92.89932 -78.091577 
L 92.292621 -75.342752 
L 91.733727 -72.593926 
L 91.223659 -69.845101 
L 90.762386 -67.096275 
L 90.348959 -64.34745 
L 89.981663 -61.598624 
L 89.658167 -58.849799 
z
" id="mc0b9b0a5bd" style="stroke:#3e3e3e;stroke-width:1.5;"/>
    </defs>
    <g clip-path="url(#pc3b5842091)">
     <use style="fill:#417192;stroke:#3e3e3e;stroke-width:1.5;" x="0" xlink:href="#mc0b9b0a5bd" y="367.274375"/>
    </g>
   </g>
   <g id="PolyCollection_2">
    <defs>
     <path d="M 126.186718 -64.061546 
L 124.16879 -64.061546 
L 123.985809 -66.522143 
L 123.778713 -68.98274 
L 123.546192 -71.443336 
L 123.287234 -73.903933 
L 123.001199 -76.36453 
L 122.687888 -78.825126 
L 122.347613 -81.285723 
L 121.98125 -83.74632 
L 121.590285 -86.206917 
L 121.176845 -88.667513 
L 120.743705 -91.12811 
L 120.294276 -93.588707 
L 119.832568 -96.049304 
L 119.363127 -98.5099 
L 118.890952 -100.970497 
L 118.421383 -103.431094 
L 117.959973 -105.89169 
L 117.512338 -108.352287 
L 117.084005 -110.812884 
L 116.680243 -113.273481 
L 116.305906 -115.734077 
L 115.965278 -118.194674 
L 115.661932 -120.655271 
L 115.398619 -123.115868 
L 115.177174 -125.576464 
L 114.998461 -128.037061 
L 114.862351 -130.497658 
L 114.767735 -132.958254 
L 114.712575 -135.418851 
L 114.693989 -137.879448 
L 114.708362 -140.340045 
L 114.751489 -142.800641 
L 114.818731 -145.261238 
L 114.905181 -147.721835 
L 115.005845 -150.182432 
L 115.115804 -152.643028 
L 115.230376 -155.103625 
L 115.345258 -157.564222 
L 115.456646 -160.024818 
L 115.561331 -162.485415 
L 115.656763 -164.946012 
L 115.741092 -167.406609 
L 115.813176 -169.867205 
L 115.872566 -172.327802 
L 115.919464 -174.788399 
L 115.954669 -177.248996 
L 115.979501 -179.709592 
L 115.995715 -182.170189 
L 116.005412 -184.630786 
L 116.010947 -187.091382 
L 116.014837 -189.551979 
L 116.019679 -192.012576 
L 116.028065 -194.473173 
L 116.042517 -196.933769 
L 116.065427 -199.394366 
L 116.099003 -201.854963 
L 116.145235 -204.315559 
L 116.20586 -206.776156 
L 116.282344 -209.236753 
L 116.375865 -211.69735 
L 116.487307 -214.157946 
L 116.61726 -216.618543 
L 116.766022 -219.07914 
L 116.933603 -221.539737 
L 117.119742 -224.000333 
L 117.323912 -226.46093 
L 117.545343 -228.921527 
L 117.783033 -231.382123 
L 118.035773 -233.84272 
L 118.302164 -236.303317 
L 118.580643 -238.763914 
L 118.869504 -241.22451 
L 119.166928 -243.685107 
L 119.471007 -246.145704 
L 119.779772 -248.606301 
L 120.091226 -251.066897 
L 120.403366 -253.527494 
L 120.714218 -255.988091 
L 121.021861 -258.448687 
L 121.324458 -260.909284 
L 121.620278 -263.369881 
L 121.907719 -265.830478 
L 122.185333 -268.291074 
L 122.451837 -270.751671 
L 122.70613 -273.212268 
L 122.947304 -275.672865 
L 123.174647 -278.133461 
L 123.387645 -280.594058 
L 123.58598 -283.054655 
L 123.769524 -285.515251 
L 123.938327 -287.975848 
L 124.092606 -290.436445 
L 124.232726 -292.897042 
L 124.359183 -295.357638 
L 124.472585 -297.818235 
L 124.573631 -300.278832 
L 124.663088 -302.739429 
L 124.741775 -305.200025 
L 124.810538 -307.660622 
L 125.544969 -307.660622 
L 125.544969 -307.660622 
L 125.613733 -305.200025 
L 125.69242 -302.739429 
L 125.781877 -300.278832 
L 125.882923 -297.818235 
L 125.996325 -295.357638 
L 126.122782 -292.897042 
L 126.262901 -290.436445 
L 126.41718 -287.975848 
L 126.585984 -285.515251 
L 126.769528 -283.054655 
L 126.967863 -280.594058 
L 127.180861 -278.133461 
L 127.408204 -275.672865 
L 127.649378 -273.212268 
L 127.903671 -270.751671 
L 128.170175 -268.291074 
L 128.447788 -265.830478 
L 128.73523 -263.369881 
L 129.03105 -260.909284 
L 129.333647 -258.448687 
L 129.64129 -255.988091 
L 129.952142 -253.527494 
L 130.264282 -251.066897 
L 130.575735 -248.606301 
L 130.884501 -246.145704 
L 131.18858 -243.685107 
L 131.486003 -241.22451 
L 131.774865 -238.763914 
L 132.053343 -236.303317 
L 132.319735 -233.84272 
L 132.572475 -231.382123 
L 132.810165 -228.921527 
L 133.031596 -226.46093 
L 133.235766 -224.000333 
L 133.421904 -221.539737 
L 133.589486 -219.07914 
L 133.738247 -216.618543 
L 133.868201 -214.157946 
L 133.979643 -211.69735 
L 134.073164 -209.236753 
L 134.149647 -206.776156 
L 134.210273 -204.315559 
L 134.256505 -201.854963 
L 134.290081 -199.394366 
L 134.312991 -196.933769 
L 134.327443 -194.473173 
L 134.335829 -192.012576 
L 134.340671 -189.551979 
L 134.344561 -187.091382 
L 134.350096 -184.630786 
L 134.359793 -182.170189 
L 134.376006 -179.709592 
L 134.400838 -177.248996 
L 134.436044 -174.788399 
L 134.482942 -172.327802 
L 134.542331 -169.867205 
L 134.614415 -167.406609 
L 134.698744 -164.946012 
L 134.794177 -162.485415 
L 134.898862 -160.024818 
L 135.01025 -157.564222 
L 135.125132 -155.103625 
L 135.239704 -152.643028 
L 135.349662 -150.182432 
L 135.450326 -147.721835 
L 135.536777 -145.261238 
L 135.604018 -142.800641 
L 135.647145 -140.340045 
L 135.661519 -137.879448 
L 135.642933 -135.418851 
L 135.587773 -132.958254 
L 135.493157 -130.497658 
L 135.357047 -128.037061 
L 135.178334 -125.576464 
L 134.956889 -123.115868 
L 134.693575 -120.655271 
L 134.39023 -118.194674 
L 134.049602 -115.734077 
L 133.675265 -113.273481 
L 133.271503 -110.812884 
L 132.84317 -108.352287 
L 132.395535 -105.89169 
L 131.934124 -103.431094 
L 131.464556 -100.970497 
L 130.992381 -98.5099 
L 130.52294 -96.049304 
L 130.061231 -93.588707 
L 129.611802 -91.12811 
L 129.178663 -88.667513 
L 128.765223 -86.206917 
L 128.374258 -83.74632 
L 128.007895 -81.285723 
L 127.667619 -78.825126 
L 127.354309 -76.36453 
L 127.068274 -73.903933 
L 126.809316 -71.443336 
L 126.576795 -68.98274 
L 126.369699 -66.522143 
L 126.186718 -64.061546 
z
" id="m8f7562fe0f" style="stroke:#3e3e3e;stroke-width:1.5;"/>
    </defs>
    <g clip-path="url(#pc3b5842091)">
     <use style="fill:#468746;stroke:#3e3e3e;stroke-width:1.5;" x="0" xlink:href="#m8f7562fe0f" y="367.274375"/>
    </g>
   </g>
   <g id="PolyCollection_3">
    <defs>
     <path d="M 164.551674 -75.373283 
L 160.291771 -75.373283 
L 159.976363 -77.106284 
L 159.627041 -78.839285 
L 159.242368 -80.572286 
L 158.821223 -82.305287 
L 158.362862 -84.038288 
L 157.866986 -85.771289 
L 157.333797 -87.50429 
L 156.764063 -89.237291 
L 156.159158 -90.970293 
L 155.521115 -92.703294 
L 154.852645 -94.436295 
L 154.15716 -96.169296 
L 153.438772 -97.902297 
L 152.702278 -99.635298 
L 151.953124 -101.368299 
L 151.197357 -103.1013 
L 150.441552 -104.834301 
L 149.692722 -106.567302 
L 148.958215 -108.300303 
L 148.245589 -110.033304 
L 147.562483 -111.766305 
L 146.916471 -113.499306 
L 146.314911 -115.232307 
L 145.764797 -116.965308 
L 145.272605 -118.69831 
L 144.844151 -120.431311 
L 144.484456 -122.164312 
L 144.197628 -123.897313 
L 143.986759 -125.630314 
L 143.853846 -127.363315 
L 143.799738 -129.096316 
L 143.824102 -130.829317 
L 143.925422 -132.562318 
L 144.101028 -134.295319 
L 144.347146 -136.02832 
L 144.658976 -137.761321 
L 145.030799 -139.494322 
L 145.456094 -141.227323 
L 145.927687 -142.960324 
L 146.437902 -144.693325 
L 146.978723 -146.426326 
L 147.541971 -148.159328 
L 148.119466 -149.892329 
L 148.703199 -151.62533 
L 149.285484 -153.358331 
L 149.859111 -155.091332 
L 150.417468 -156.824333 
L 150.954659 -158.557334 
L 151.465594 -160.290335 
L 151.946055 -162.023336 
L 152.392746 -163.756337 
L 152.803315 -165.489338 
L 153.176354 -167.222339 
L 153.511373 -168.95534 
L 153.808764 -170.688341 
L 154.069737 -172.421342 
L 154.296241 -174.154343 
L 154.490875 -175.887345 
L 154.656789 -177.620346 
L 154.79757 -179.353347 
L 154.917135 -181.086348 
L 155.01961 -182.819349 
L 155.10922 -184.55235 
L 155.190181 -186.285351 
L 155.266592 -188.018352 
L 155.342348 -189.751353 
L 155.421052 -191.484354 
L 155.505946 -193.217355 
L 155.599855 -194.950356 
L 155.705139 -196.683357 
L 155.82367 -198.416358 
L 155.956813 -200.149359 
L 156.105425 -201.88236 
L 156.269869 -203.615362 
L 156.450036 -205.348363 
L 156.645377 -207.081364 
L 156.854952 -208.814365 
L 157.077472 -210.547366 
L 157.311358 -212.280367 
L 157.5548 -214.013368 
L 157.805816 -215.746369 
L 158.06231 -217.47937 
L 158.32213 -219.212371 
L 158.583127 -220.945372 
L 158.843197 -222.678373 
L 159.100333 -224.411374 
L 159.352658 -226.144375 
L 159.59846 -227.877376 
L 159.836213 -229.610377 
L 160.064598 -231.343378 
L 160.28251 -233.07638 
L 160.489068 -234.809381 
L 160.683605 -236.542382 
L 160.86567 -238.275383 
L 161.03501 -240.008384 
L 161.191558 -241.741385 
L 161.335418 -243.474386 
L 161.46684 -245.207387 
L 161.586203 -246.940388 
L 163.257243 -246.940388 
L 163.257243 -246.940388 
L 163.376606 -245.207387 
L 163.508027 -243.474386 
L 163.651887 -241.741385 
L 163.808436 -240.008384 
L 163.977775 -238.275383 
L 164.15984 -236.542382 
L 164.354377 -234.809381 
L 164.560935 -233.07638 
L 164.778848 -231.343378 
L 165.007233 -229.610377 
L 165.244986 -227.877376 
L 165.490787 -226.144375 
L 165.743112 -224.411374 
L 166.000248 -222.678373 
L 166.260318 -220.945372 
L 166.521315 -219.212371 
L 166.781136 -217.47937 
L 167.037629 -215.746369 
L 167.288645 -214.013368 
L 167.532088 -212.280367 
L 167.765974 -210.547366 
L 167.988493 -208.814365 
L 168.198068 -207.081364 
L 168.39341 -205.348363 
L 168.573576 -203.615362 
L 168.73802 -201.88236 
L 168.886632 -200.149359 
L 169.019775 -198.416358 
L 169.138306 -196.683357 
L 169.243591 -194.950356 
L 169.337499 -193.217355 
L 169.422393 -191.484354 
L 169.501097 -189.751353 
L 169.576853 -188.018352 
L 169.653265 -186.285351 
L 169.734225 -184.55235 
L 169.823835 -182.819349 
L 169.92631 -181.086348 
L 170.045875 -179.353347 
L 170.186657 -177.620346 
L 170.35257 -175.887345 
L 170.547205 -174.154343 
L 170.773708 -172.421342 
L 171.034681 -170.688341 
L 171.332073 -168.95534 
L 171.667092 -167.222339 
L 172.04013 -165.489338 
L 172.450699 -163.756337 
L 172.897391 -162.023336 
L 173.377852 -160.290335 
L 173.888786 -158.557334 
L 174.425977 -156.824333 
L 174.984335 -155.091332 
L 175.557961 -153.358331 
L 176.140247 -151.62533 
L 176.723979 -149.892329 
L 177.301474 -148.159328 
L 177.864722 -146.426326 
L 178.405544 -144.693325 
L 178.915758 -142.960324 
L 179.387351 -141.227323 
L 179.812647 -139.494322 
L 180.184469 -137.761321 
L 180.496299 -136.02832 
L 180.742417 -134.295319 
L 180.918023 -132.562318 
L 181.019344 -130.829317 
L 181.043707 -129.096316 
L 180.989599 -127.363315 
L 180.856687 -125.630314 
L 180.645818 -123.897313 
L 180.358989 -122.164312 
L 179.999294 -120.431311 
L 179.57084 -118.69831 
L 179.078648 -116.965308 
L 178.528534 -115.232307 
L 177.926974 -113.499306 
L 177.280962 -111.766305 
L 176.597856 -110.033304 
L 175.88523 -108.300303 
L 175.150723 -106.567302 
L 174.401893 -104.834301 
L 173.646088 -103.1013 
L 172.890321 -101.368299 
L 172.141168 -99.635298 
L 171.404673 -97.902297 
L 170.686285 -96.169296 
L 169.9908 -94.436295 
L 169.32233 -92.703294 
L 168.684287 -90.970293 
L 168.079383 -89.237291 
L 167.509648 -87.50429 
L 166.97646 -85.771289 
L 166.480583 -84.038288 
L 166.022223 -82.305287 
L 165.601077 -80.572286 
L 165.216405 -78.839285 
L 164.867082 -77.106284 
L 164.551674 -75.373283 
z
" id="m1ec01bfaf8" style="stroke:#3e3e3e;stroke-width:1.5;"/>
    </defs>
    <g clip-path="url(#pc3b5842091)">
     <use style="fill:#cc834b;stroke:#3e3e3e;stroke-width:1.5;" x="0" xlink:href="#m1ec01bfaf8" y="367.274375"/>
    </g>
   </g>
   <g id="PolyCollection_4">
    <defs>
     <path d="M 228.000379 -63.98305 
L 227.196957 -63.98305 
L 227.125908 -64.784321 
L 227.045673 -65.585592 
L 226.955709 -66.386864 
L 226.855546 -67.188135 
L 226.744805 -67.989406 
L 226.623208 -68.790678 
L 226.49059 -69.591949 
L 226.346908 -70.39322 
L 226.192236 -71.194492 
L 226.026765 -71.995763 
L 225.850792 -72.797034 
L 225.664707 -73.598306 
L 225.46897 -74.399577 
L 225.264092 -75.200848 
L 225.050604 -76.00212 
L 224.829036 -76.803391 
L 224.599885 -77.604662 
L 224.363596 -78.405934 
L 224.120545 -79.207205 
L 223.871026 -80.008476 
L 223.615251 -80.809748 
L 223.35336 -81.611019 
L 223.085439 -82.41229 
L 222.81155 -83.213562 
L 222.531772 -84.014833 
L 222.246244 -84.816104 
L 221.955225 -85.617376 
L 221.659137 -86.418647 
L 221.358627 -87.219918 
L 221.054605 -88.021189 
L 220.748278 -88.822461 
L 220.441177 -89.623732 
L 220.135146 -90.425003 
L 219.832332 -91.226275 
L 219.535138 -92.027546 
L 219.246158 -92.828817 
L 218.968094 -93.630089 
L 218.703647 -94.43136 
L 218.455406 -95.232631 
L 218.225712 -96.033903 
L 218.016541 -96.835174 
L 217.829375 -97.636445 
L 217.665094 -98.437717 
L 217.523893 -99.238988 
L 217.405214 -100.040259 
L 217.30773 -100.841531 
L 217.229345 -101.642802 
L 217.167252 -102.444073 
L 217.11802 -103.245345 
L 217.077724 -104.046616 
L 217.042104 -104.847887 
L 217.006758 -105.649159 
L 216.967345 -106.45043 
L 216.919808 -107.251701 
L 216.860583 -108.052973 
L 216.786811 -108.854244 
L 216.696513 -109.655515 
L 216.588743 -110.456787 
L 216.463693 -111.258058 
L 216.322753 -112.059329 
L 216.168517 -112.860601 
L 216.004737 -113.661872 
L 215.836222 -114.463143 
L 215.668686 -115.264415 
L 215.508551 -116.065686 
L 215.36272 -116.866957 
L 215.238317 -117.668229 
L 215.142418 -118.4695 
L 215.081779 -119.270771 
L 215.062572 -120.072043 
L 215.090146 -120.873314 
L 215.16882 -121.674585 
L 215.301718 -122.475857 
L 215.490645 -123.277128 
L 215.736032 -124.078399 
L 216.036911 -124.879671 
L 216.390969 -125.680942 
L 216.794627 -126.482213 
L 217.243184 -127.283485 
L 217.730981 -128.084756 
L 218.251601 -128.886027 
L 218.798087 -129.687299 
L 219.363164 -130.48857 
L 219.939463 -131.289841 
L 220.519731 -132.091113 
L 221.097026 -132.892384 
L 221.664886 -133.693655 
L 222.217467 -134.494927 
L 222.74965 -135.296198 
L 223.257117 -136.097469 
L 223.736386 -136.898741 
L 224.184825 -137.700012 
L 224.600628 -138.501283 
L 224.982772 -139.302555 
L 225.330955 -140.103826 
L 225.645513 -140.905097 
L 225.927334 -141.706369 
L 226.177764 -142.50764 
L 226.398508 -143.308911 
L 228.798828 -143.308911 
L 228.798828 -143.308911 
L 229.019572 -142.50764 
L 229.270002 -141.706369 
L 229.551823 -140.905097 
L 229.866381 -140.103826 
L 230.214564 -139.302555 
L 230.596708 -138.501283 
L 231.012511 -137.700012 
L 231.46095 -136.898741 
L 231.940219 -136.097469 
L 232.447686 -135.296198 
L 232.979869 -134.494927 
L 233.53245 -133.693655 
L 234.10031 -132.892384 
L 234.677605 -132.091113 
L 235.257873 -131.289841 
L 235.834172 -130.48857 
L 236.399249 -129.687299 
L 236.945735 -128.886027 
L 237.466355 -128.084756 
L 237.954152 -127.283485 
L 238.402708 -126.482213 
L 238.806367 -125.680942 
L 239.160425 -124.879671 
L 239.461304 -124.078399 
L 239.70669 -123.277128 
L 239.895618 -122.475857 
L 240.028516 -121.674585 
L 240.10719 -120.873314 
L 240.134764 -120.072043 
L 240.115557 -119.270771 
L 240.054918 -118.4695 
L 239.959019 -117.668229 
L 239.834616 -116.866957 
L 239.688785 -116.065686 
L 239.52865 -115.264415 
L 239.361114 -114.463143 
L 239.192599 -113.661872 
L 239.028819 -112.860601 
L 238.874583 -112.059329 
L 238.733643 -111.258058 
L 238.608593 -110.456787 
L 238.500823 -109.655515 
L 238.410525 -108.854244 
L 238.336753 -108.052973 
L 238.277528 -107.251701 
L 238.229991 -106.45043 
L 238.190578 -105.649159 
L 238.155232 -104.847887 
L 238.119612 -104.046616 
L 238.079316 -103.245345 
L 238.030084 -102.444073 
L 237.967991 -101.642802 
L 237.889606 -100.841531 
L 237.792121 -100.040259 
L 237.673443 -99.238988 
L 237.532242 -98.437717 
L 237.367961 -97.636445 
L 237.180795 -96.835174 
L 236.971624 -96.033903 
L 236.74193 -95.232631 
L 236.493688 -94.43136 
L 236.229242 -93.630089 
L 235.951178 -92.828817 
L 235.662198 -92.027546 
L 235.365004 -91.226275 
L 235.06219 -90.425003 
L 234.756159 -89.623732 
L 234.449057 -88.822461 
L 234.142731 -88.021189 
L 233.838709 -87.219918 
L 233.538199 -86.418647 
L 233.242111 -85.617376 
L 232.951091 -84.816104 
L 232.665564 -84.014833 
L 232.385786 -83.213562 
L 232.111897 -82.41229 
L 231.843976 -81.611019 
L 231.582085 -80.809748 
L 231.32631 -80.008476 
L 231.076791 -79.207205 
L 230.83374 -78.405934 
L 230.597451 -77.604662 
L 230.3683 -76.803391 
L 230.146732 -76.00212 
L 229.933244 -75.200848 
L 229.728366 -74.399577 
L 229.532629 -73.598306 
L 229.346544 -72.797034 
L 229.170571 -71.995763 
L 229.0051 -71.194492 
L 228.850427 -70.39322 
L 228.706745 -69.591949 
L 228.574128 -68.790678 
L 228.452531 -67.989406 
L 228.34179 -67.188135 
L 228.241627 -66.386864 
L 228.151663 -65.585592 
L 228.071428 -64.784321 
L 228.000379 -63.98305 
z
" id="mca775812cc" style="stroke:#3e3e3e;stroke-width:1.5;"/>
    </defs>
    <g clip-path="url(#pc3b5842091)">
     <use style="fill:#417192;stroke:#3e3e3e;stroke-width:1.5;" x="0" xlink:href="#mca775812cc" y="367.274375"/>
    </g>
   </g>
   <g id="PolyCollection_5">
    <defs>
     <path d="M 265.985355 -81.697142 
L 263.699919 -81.697142 
L 263.5022 -82.244862 
L 263.27952 -82.792581 
L 263.030559 -83.3403 
L 262.754273 -83.888019 
L 262.449966 -84.435739 
L 262.117357 -84.983458 
L 261.756641 -85.531177 
L 261.368546 -86.078897 
L 260.954383 -86.626616 
L 260.516077 -87.174335 
L 260.056184 -87.722055 
L 259.577893 -88.269774 
L 259.085001 -88.817493 
L 258.581871 -89.365213 
L 258.073362 -89.912932 
L 257.564742 -90.460651 
L 257.061573 -91.00837 
L 256.569583 -91.55609 
L 256.094518 -92.103809 
L 255.641983 -92.651528 
L 255.217282 -93.199248 
L 254.825247 -93.746967 
L 254.470085 -94.294686 
L 254.155229 -94.842406 
L 253.883207 -95.390125 
L 253.65554 -95.937844 
L 253.472663 -96.485563 
L 253.333879 -97.033283 
L 253.237354 -97.581002 
L 253.18014 -98.128721 
L 253.158237 -98.676441 
L 253.166691 -99.22416 
L 253.199724 -99.771879 
L 253.250887 -100.319599 
L 253.313236 -100.867318 
L 253.379529 -101.415037 
L 253.442426 -101.962756 
L 253.494693 -102.510476 
L 253.529403 -103.058195 
L 253.540127 -103.605914 
L 253.521107 -104.153634 
L 253.467412 -104.701353 
L 253.37506 -105.249072 
L 253.241128 -105.796792 
L 253.063816 -106.344511 
L 252.842494 -106.89223 
L 252.577717 -107.43995 
L 252.271205 -107.987669 
L 251.925807 -108.535388 
L 251.545435 -109.083107 
L 251.13498 -109.630827 
L 250.700208 -110.178546 
L 250.247642 -110.726265 
L 249.784433 -111.273985 
L 249.318223 -111.821704 
L 248.856994 -112.369423 
L 248.408923 -112.917143 
L 247.982226 -113.464862 
L 247.585009 -114.012581 
L 247.225115 -114.5603 
L 246.909981 -115.10802 
L 246.646495 -115.655739 
L 246.440869 -116.203458 
L 246.298515 -116.751178 
L 246.223939 -117.298897 
L 246.220652 -117.846616 
L 246.291097 -118.394336 
L 246.436592 -118.942055 
L 246.657306 -119.489774 
L 246.952248 -120.037494 
L 247.31929 -120.585213 
L 247.755206 -121.132932 
L 248.255742 -121.680651 
L 248.81571 -122.228371 
L 249.429095 -122.77609 
L 250.089191 -123.323809 
L 250.788743 -123.871529 
L 251.520106 -124.419248 
L 252.275403 -124.966967 
L 253.046693 -125.514687 
L 253.826127 -126.062406 
L 254.6061 -126.610125 
L 255.379391 -127.157844 
L 256.139283 -127.705564 
L 256.879674 -128.253283 
L 257.595149 -128.801002 
L 258.281048 -129.348722 
L 258.933502 -129.896441 
L 259.549444 -130.44416 
L 260.126605 -130.99188 
L 260.663488 -131.539599 
L 261.159323 -132.087318 
L 261.614013 -132.635038 
L 262.02806 -133.182757 
L 262.402496 -133.730476 
L 262.738795 -134.278195 
L 263.038798 -134.825915 
L 263.304624 -135.373634 
L 263.538596 -135.921353 
L 266.146678 -135.921353 
L 266.146678 -135.921353 
L 266.38065 -135.373634 
L 266.646475 -134.825915 
L 266.946478 -134.278195 
L 267.282778 -133.730476 
L 267.657213 -133.182757 
L 268.071261 -132.635038 
L 268.52595 -132.087318 
L 269.021785 -131.539599 
L 269.558668 -130.99188 
L 270.135829 -130.44416 
L 270.751771 -129.896441 
L 271.404225 -129.348722 
L 272.090125 -128.801002 
L 272.8056 -128.253283 
L 273.54599 -127.705564 
L 274.305883 -127.157844 
L 275.079173 -126.610125 
L 275.859146 -126.062406 
L 276.63858 -125.514687 
L 277.40987 -124.966967 
L 278.165168 -124.419248 
L 278.89653 -123.871529 
L 279.596083 -123.323809 
L 280.256178 -122.77609 
L 280.869563 -122.228371 
L 281.429531 -121.680651 
L 281.930067 -121.132932 
L 282.365983 -120.585213 
L 282.733025 -120.037494 
L 283.027968 -119.489774 
L 283.248682 -118.942055 
L 283.394177 -118.394336 
L 283.464621 -117.846616 
L 283.461335 -117.298897 
L 283.386759 -116.751178 
L 283.244404 -116.203458 
L 283.038778 -115.655739 
L 282.775293 -115.10802 
L 282.460159 -114.5603 
L 282.100265 -114.012581 
L 281.703048 -113.464862 
L 281.276351 -112.917143 
L 280.828279 -112.369423 
L 280.36705 -111.821704 
L 279.90084 -111.273985 
L 279.437632 -110.726265 
L 278.985066 -110.178546 
L 278.550293 -109.630827 
L 278.139838 -109.083107 
L 277.759466 -108.535388 
L 277.414068 -107.987669 
L 277.107556 -107.43995 
L 276.842779 -106.89223 
L 276.621458 -106.344511 
L 276.444146 -105.796792 
L 276.310213 -105.249072 
L 276.217862 -104.701353 
L 276.164166 -104.153634 
L 276.145147 -103.605914 
L 276.155871 -103.058195 
L 276.190581 -102.510476 
L 276.242847 -101.962756 
L 276.305744 -101.415037 
L 276.372038 -100.867318 
L 276.434387 -100.319599 
L 276.485549 -99.771879 
L 276.518582 -99.22416 
L 276.527037 -98.676441 
L 276.505133 -98.128721 
L 276.447919 -97.581002 
L 276.351394 -97.033283 
L 276.212611 -96.485563 
L 276.029733 -95.937844 
L 275.802066 -95.390125 
L 275.530045 -94.842406 
L 275.215189 -94.294686 
L 274.860027 -93.746967 
L 274.467992 -93.199248 
L 274.04329 -92.651528 
L 273.590755 -92.103809 
L 273.11569 -91.55609 
L 272.6237 -91.00837 
L 272.120531 -90.460651 
L 271.611911 -89.912932 
L 271.103403 -89.365213 
L 270.600272 -88.817493 
L 270.10738 -88.269774 
L 269.629089 -87.722055 
L 269.169196 -87.174335 
L 268.73089 -86.626616 
L 268.316727 -86.078897 
L 267.928633 -85.531177 
L 267.567916 -84.983458 
L 267.235307 -84.435739 
L 266.931001 -83.888019 
L 266.654715 -83.3403 
L 266.405753 -82.792581 
L 266.183074 -82.244862 
L 265.985355 -81.697142 
z
" id="m2060210725" style="stroke:#3e3e3e;stroke-width:1.5;"/>
    </defs>
    <g clip-path="url(#pc3b5842091)">
     <use style="fill:#468746;stroke:#3e3e3e;stroke-width:1.5;" x="0" xlink:href="#m2060210725" y="367.274375"/>
    </g>
   </g>
   <g id="PolyCollection_6">
    <defs>
     <path d="M 302.71993 -51.528977 
L 301.453281 -51.528977 
L 301.359639 -52.384462 
L 301.256091 -53.239947 
L 301.142258 -54.095433 
L 301.017855 -54.950918 
L 300.882707 -55.806403 
L 300.736767 -56.661888 
L 300.580124 -57.517373 
L 300.413015 -58.372858 
L 300.235836 -59.228343 
L 300.049144 -60.083828 
L 299.853654 -60.939313 
L 299.650239 -61.794798 
L 299.439914 -62.650284 
L 299.223828 -63.505769 
L 299.003236 -64.361254 
L 298.779482 -65.216739 
L 298.553962 -66.072224 
L 298.328094 -66.927709 
L 298.103283 -67.783194 
L 297.880883 -68.638679 
L 297.662153 -69.494164 
L 297.448225 -70.34965 
L 297.240067 -71.205135 
L 297.038445 -72.06062 
L 296.843901 -72.916105 
L 296.656728 -73.77159 
L 296.476952 -74.627075 
L 296.30433 -75.48256 
L 296.138345 -76.338045 
L 295.978218 -77.19353 
L 295.822927 -78.049015 
L 295.671232 -78.904501 
L 295.52171 -79.759986 
L 295.372796 -80.615471 
L 295.222831 -81.470956 
L 295.070115 -82.326441 
L 294.912959 -83.181926 
L 294.749746 -84.037411 
L 294.578985 -84.892896 
L 294.399365 -85.748381 
L 294.20981 -86.603866 
L 294.009521 -87.459352 
L 293.798021 -88.314837 
L 293.575186 -89.170322 
L 293.341272 -90.025807 
L 293.09693 -90.881292 
L 292.843214 -91.736777 
L 292.581577 -92.592262 
L 292.313865 -93.447747 
L 292.04229 -94.303232 
L 291.769402 -95.158717 
L 291.498053 -96.014203 
L 291.23135 -96.869688 
L 290.972603 -97.725173 
L 290.725267 -98.580658 
L 290.492883 -99.436143 
L 290.279007 -100.291628 
L 290.087147 -101.147113 
L 289.920692 -102.002598 
L 289.782849 -102.858083 
L 289.67657 -103.713569 
L 289.6045 -104.569054 
L 289.568914 -105.424539 
L 289.571666 -106.280024 
L 289.614152 -107.135509 
L 289.697271 -107.990994 
L 289.821403 -108.846479 
L 289.986394 -109.701964 
L 290.191551 -110.557449 
L 290.435657 -111.412934 
L 290.716982 -112.26842 
L 291.033316 -113.123905 
L 291.382012 -113.97939 
L 291.760028 -114.834875 
L 292.16399 -115.69036 
L 292.590252 -116.545845 
L 293.034964 -117.40133 
L 293.494144 -118.256815 
L 293.963746 -119.1123 
L 294.439737 -119.967785 
L 294.918158 -120.823271 
L 295.395196 -121.678756 
L 295.867235 -122.534241 
L 296.330913 -123.389726 
L 296.783162 -124.245211 
L 297.221243 -125.100696 
L 297.642773 -125.956181 
L 298.045739 -126.811666 
L 298.428509 -127.667151 
L 298.789824 -128.522636 
L 299.128796 -129.378122 
L 299.444886 -130.233607 
L 299.737883 -131.089092 
L 300.007878 -131.944577 
L 300.25523 -132.800062 
L 300.480537 -133.655547 
L 300.684594 -134.511032 
L 300.868362 -135.366517 
L 301.032932 -136.222002 
L 303.140279 -136.222002 
L 303.140279 -136.222002 
L 303.304849 -135.366517 
L 303.488617 -134.511032 
L 303.692674 -133.655547 
L 303.917981 -132.800062 
L 304.165333 -131.944577 
L 304.435328 -131.089092 
L 304.728325 -130.233607 
L 305.044415 -129.378122 
L 305.383387 -128.522636 
L 305.744702 -127.667151 
L 306.127472 -126.811666 
L 306.530438 -125.956181 
L 306.951968 -125.100696 
L 307.390049 -124.245211 
L 307.842298 -123.389726 
L 308.305976 -122.534241 
L 308.778015 -121.678756 
L 309.255053 -120.823271 
L 309.733474 -119.967785 
L 310.209465 -119.1123 
L 310.679067 -118.256815 
L 311.138246 -117.40133 
L 311.582959 -116.545845 
L 312.009221 -115.69036 
L 312.413183 -114.834875 
L 312.791199 -113.97939 
L 313.139895 -113.123905 
L 313.456229 -112.26842 
L 313.737554 -111.412934 
L 313.98166 -110.557449 
L 314.186817 -109.701964 
L 314.351808 -108.846479 
L 314.475939 -107.990994 
L 314.559059 -107.135509 
L 314.601545 -106.280024 
L 314.604297 -105.424539 
L 314.568711 -104.569054 
L 314.496641 -103.713569 
L 314.390362 -102.858083 
L 314.252518 -102.002598 
L 314.086064 -101.147113 
L 313.894204 -100.291628 
L 313.680328 -99.436143 
L 313.447943 -98.580658 
L 313.200608 -97.725173 
L 312.941861 -96.869688 
L 312.675158 -96.014203 
L 312.403809 -95.158717 
L 312.130921 -94.303232 
L 311.859346 -93.447747 
L 311.591634 -92.592262 
L 311.329997 -91.736777 
L 311.076281 -90.881292 
L 310.831939 -90.025807 
L 310.598025 -89.170322 
L 310.37519 -88.314837 
L 310.16369 -87.459352 
L 309.963401 -86.603866 
L 309.773846 -85.748381 
L 309.594226 -84.892896 
L 309.423465 -84.037411 
L 309.260252 -83.181926 
L 309.103096 -82.326441 
L 308.95038 -81.470956 
L 308.800415 -80.615471 
L 308.651501 -79.759986 
L 308.501979 -78.904501 
L 308.350284 -78.049015 
L 308.194993 -77.19353 
L 308.034866 -76.338045 
L 307.868881 -75.48256 
L 307.696259 -74.627075 
L 307.516483 -73.77159 
L 307.32931 -72.916105 
L 307.134766 -72.06062 
L 306.933144 -71.205135 
L 306.724986 -70.34965 
L 306.511058 -69.494164 
L 306.292328 -68.638679 
L 306.069927 -67.783194 
L 305.845117 -66.927709 
L 305.619249 -66.072224 
L 305.393729 -65.216739 
L 305.169975 -64.361254 
L 304.949383 -63.505769 
L 304.733297 -62.650284 
L 304.522972 -61.794798 
L 304.319557 -60.939313 
L 304.124067 -60.083828 
L 303.937375 -59.228343 
L 303.760196 -58.372858 
L 303.593087 -57.517373 
L 303.436444 -56.661888 
L 303.290503 -55.806403 
L 303.155356 -54.950918 
L 303.030953 -54.095433 
L 302.91712 -53.239947 
L 302.813572 -52.384462 
L 302.71993 -51.528977 
z
" id="med9340649f" style="stroke:#3e3e3e;stroke-width:1.5;"/>
    </defs>
    <g clip-path="url(#pc3b5842091)">
     <use style="fill:#cc834b;stroke:#3e3e3e;stroke-width:1.5;" x="0" xlink:href="#med9340649f" y="367.274375"/>
    </g>
   </g>
   <g id="patch_3">
    <path clip-path="url(#pc3b5842091)" d="M 125.177754 243.690239 
L 125.177754 243.690239 
L 125.177754 243.690239 
L 125.177754 243.690239 
z
" style="fill:#417192;stroke:#3e3e3e;stroke-linejoin:miter;stroke-width:0.75;"/>
   </g>
   <g id="patch_4">
    <path clip-path="url(#pc3b5842091)" d="M 125.177754 243.690239 
L 125.177754 243.690239 
L 125.177754 243.690239 
L 125.177754 243.690239 
z
" style="fill:#468746;stroke:#3e3e3e;stroke-linejoin:miter;stroke-width:0.75;"/>
   </g>
   <g id="patch_5">
    <path clip-path="url(#pc3b5842091)" d="M 125.177754 243.690239 
L 125.177754 243.690239 
L 125.177754 243.690239 
L 125.177754 243.690239 
z
" style="fill:#cc834b;stroke:#3e3e3e;stroke-linejoin:miter;stroke-width:0.75;"/>
   </g>
   <g id="matplotlib.axis_1">
    <g id="xtick_1">
     <g id="line2d_1">
      <defs>
       <path d="M 0 0 
L 0 3.5 
" id="m53bf71afe7" style="stroke:#000000;stroke-width:0.8;"/>
      </defs>
      <g>
       <use style="stroke:#000000;stroke-width:0.8;" x="125.177754" xlink:href="#m53bf71afe7" y="329.718125"/>
      </g>
     </g>
     <g id="text_1">
      <!-- Background+ -->
      <defs>
       <path d="M 19.671875 34.8125 
L 19.671875 8.109375 
L 35.5 8.109375 
Q 43.453125 8.109375 47.28125 11.40625 
Q 51.125 14.703125 51.125 21.484375 
Q 51.125 28.328125 47.28125 31.5625 
Q 43.453125 34.8125 35.5 34.8125 
z
M 19.671875 64.796875 
L 19.671875 42.828125 
L 34.28125 42.828125 
Q 41.5 42.828125 45.03125 45.53125 
Q 48.578125 48.25 48.578125 53.8125 
Q 48.578125 59.328125 45.03125 62.0625 
Q 41.5 64.796875 34.28125 64.796875 
z
M 9.8125 72.90625 
L 35.015625 72.90625 
Q 46.296875 72.90625 52.390625 68.21875 
Q 58.5 63.53125 58.5 54.890625 
Q 58.5 48.1875 55.375 44.234375 
Q 52.25 40.28125 46.1875 39.3125 
Q 53.46875 37.75 57.5 32.78125 
Q 61.53125 27.828125 61.53125 20.40625 
Q 61.53125 10.640625 54.890625 5.3125 
Q 48.25 0 35.984375 0 
L 9.8125 0 
z
" id="DejaVuSans-66"/>
       <path d="M 34.28125 27.484375 
Q 23.390625 27.484375 19.1875 25 
Q 14.984375 22.515625 14.984375 16.5 
Q 14.984375 11.71875 18.140625 8.90625 
Q 21.296875 6.109375 26.703125 6.109375 
Q 34.1875 6.109375 38.703125 11.40625 
Q 43.21875 16.703125 43.21875 25.484375 
L 43.21875 27.484375 
z
M 52.203125 31.203125 
L 52.203125 0 
L 43.21875 0 
L 43.21875 8.296875 
Q 40.140625 3.328125 35.546875 0.953125 
Q 30.953125 -1.421875 24.3125 -1.421875 
Q 15.921875 -1.421875 10.953125 3.296875 
Q 6 8.015625 6 15.921875 
Q 6 25.140625 12.171875 29.828125 
Q 18.359375 34.515625 30.609375 34.515625 
L 43.21875 34.515625 
L 43.21875 35.40625 
Q 43.21875 41.609375 39.140625 45 
Q 35.0625 48.390625 27.6875 48.390625 
Q 23 48.390625 18.546875 47.265625 
Q 14.109375 46.140625 10.015625 43.890625 
L 10.015625 52.203125 
Q 14.9375 54.109375 19.578125 55.046875 
Q 24.21875 56 28.609375 56 
Q 40.484375 56 46.34375 49.84375 
Q 52.203125 43.703125 52.203125 31.203125 
z
" id="DejaVuSans-97"/>
       <path d="M 48.78125 52.59375 
L 48.78125 44.1875 
Q 44.96875 46.296875 41.140625 47.34375 
Q 37.3125 48.390625 33.40625 48.390625 
Q 24.65625 48.390625 19.8125 42.84375 
Q 14.984375 37.3125 14.984375 27.296875 
Q 14.984375 17.28125 19.8125 11.734375 
Q 24.65625 6.203125 33.40625 6.203125 
Q 37.3125 6.203125 41.140625 7.25 
Q 44.96875 8.296875 48.78125 10.40625 
L 48.78125 2.09375 
Q 45.015625 0.34375 40.984375 -0.53125 
Q 36.96875 -1.421875 32.421875 -1.421875 
Q 20.0625 -1.421875 12.78125 6.34375 
Q 5.515625 14.109375 5.515625 27.296875 
Q 5.515625 40.671875 12.859375 48.328125 
Q 20.21875 56 33.015625 56 
Q 37.15625 56 41.109375 55.140625 
Q 45.0625 54.296875 48.78125 52.59375 
z
" id="DejaVuSans-99"/>
       <path d="M 9.078125 75.984375 
L 18.109375 75.984375 
L 18.109375 31.109375 
L 44.921875 54.6875 
L 56.390625 54.6875 
L 27.390625 29.109375 
L 57.625 0 
L 45.90625 0 
L 18.109375 26.703125 
L 18.109375 0 
L 9.078125 0 
z
" id="DejaVuSans-107"/>
       <path d="M 45.40625 27.984375 
Q 45.40625 37.75 41.375 43.109375 
Q 37.359375 48.484375 30.078125 48.484375 
Q 22.859375 48.484375 18.828125 43.109375 
Q 14.796875 37.75 14.796875 27.984375 
Q 14.796875 18.265625 18.828125 12.890625 
Q 22.859375 7.515625 30.078125 7.515625 
Q 37.359375 7.515625 41.375 12.890625 
Q 45.40625 18.265625 45.40625 27.984375 
z
M 54.390625 6.78125 
Q 54.390625 -7.171875 48.1875 -13.984375 
Q 42 -20.796875 29.203125 -20.796875 
Q 24.46875 -20.796875 20.265625 -20.09375 
Q 16.0625 -19.390625 12.109375 -17.921875 
L 12.109375 -9.1875 
Q 16.0625 -11.328125 19.921875 -12.34375 
Q 23.78125 -13.375 27.78125 -13.375 
Q 36.625 -13.375 41.015625 -8.765625 
Q 45.40625 -4.15625 45.40625 5.171875 
L 45.40625 9.625 
Q 42.625 4.78125 38.28125 2.390625 
Q 33.9375 0 27.875 0 
Q 17.828125 0 11.671875 7.65625 
Q 5.515625 15.328125 5.515625 27.984375 
Q 5.515625 40.671875 11.671875 48.328125 
Q 17.828125 56 27.875 56 
Q 33.9375 56 38.28125 53.609375 
Q 42.625 51.21875 45.40625 46.390625 
L 45.40625 54.6875 
L 54.390625 54.6875 
z
" id="DejaVuSans-103"/>
       <path d="M 41.109375 46.296875 
Q 39.59375 47.171875 37.8125 47.578125 
Q 36.03125 48 33.890625 48 
Q 26.265625 48 22.1875 43.046875 
Q 18.109375 38.09375 18.109375 28.8125 
L 18.109375 0 
L 9.078125 0 
L 9.078125 54.6875 
L 18.109375 54.6875 
L 18.109375 46.1875 
Q 20.953125 51.171875 25.484375 53.578125 
Q 30.03125 56 36.53125 56 
Q 37.453125 56 38.578125 55.875 
Q 39.703125 55.765625 41.0625 55.515625 
z
" id="DejaVuSans-114"/>
       <path d="M 30.609375 48.390625 
Q 23.390625 48.390625 19.1875 42.75 
Q 14.984375 37.109375 14.984375 27.296875 
Q 14.984375 17.484375 19.15625 11.84375 
Q 23.34375 6.203125 30.609375 6.203125 
Q 37.796875 6.203125 41.984375 11.859375 
Q 46.1875 17.53125 46.1875 27.296875 
Q 46.1875 37.015625 41.984375 42.703125 
Q 37.796875 48.390625 30.609375 48.390625 
z
M 30.609375 56 
Q 42.328125 56 49.015625 48.375 
Q 55.71875 40.765625 55.71875 27.296875 
Q 55.71875 13.875 49.015625 6.21875 
Q 42.328125 -1.421875 30.609375 -1.421875 
Q 18.84375 -1.421875 12.171875 6.21875 
Q 5.515625 13.875 5.515625 27.296875 
Q 5.515625 40.765625 12.171875 48.375 
Q 18.84375 56 30.609375 56 
z
" id="DejaVuSans-111"/>
       <path d="M 8.5 21.578125 
L 8.5 54.6875 
L 17.484375 54.6875 
L 17.484375 21.921875 
Q 17.484375 14.15625 20.5 10.265625 
Q 23.53125 6.390625 29.59375 6.390625 
Q 36.859375 6.390625 41.078125 11.03125 
Q 45.3125 15.671875 45.3125 23.6875 
L 45.3125 54.6875 
L 54.296875 54.6875 
L 54.296875 0 
L 45.3125 0 
L 45.3125 8.40625 
Q 42.046875 3.421875 37.71875 1 
Q 33.40625 -1.421875 27.6875 -1.421875 
Q 18.265625 -1.421875 13.375 4.4375 
Q 8.5 10.296875 8.5 21.578125 
z
M 31.109375 56 
z
" id="DejaVuSans-117"/>
       <path d="M 54.890625 33.015625 
L 54.890625 0 
L 45.90625 0 
L 45.90625 32.71875 
Q 45.90625 40.484375 42.875 44.328125 
Q 39.84375 48.1875 33.796875 48.1875 
Q 26.515625 48.1875 22.3125 43.546875 
Q 18.109375 38.921875 18.109375 30.90625 
L 18.109375 0 
L 9.078125 0 
L 9.078125 54.6875 
L 18.109375 54.6875 
L 18.109375 46.1875 
Q 21.34375 51.125 25.703125 53.5625 
Q 30.078125 56 35.796875 56 
Q 45.21875 56 50.046875 50.171875 
Q 54.890625 44.34375 54.890625 33.015625 
z
" id="DejaVuSans-110"/>
       <path d="M 45.40625 46.390625 
L 45.40625 75.984375 
L 54.390625 75.984375 
L 54.390625 0 
L 45.40625 0 
L 45.40625 8.203125 
Q 42.578125 3.328125 38.25 0.953125 
Q 33.9375 -1.421875 27.875 -1.421875 
Q 17.96875 -1.421875 11.734375 6.484375 
Q 5.515625 14.40625 5.515625 27.296875 
Q 5.515625 40.1875 11.734375 48.09375 
Q 17.96875 56 27.875 56 
Q 33.9375 56 38.25 53.625 
Q 42.578125 51.265625 45.40625 46.390625 
z
M 14.796875 27.296875 
Q 14.796875 17.390625 18.875 11.75 
Q 22.953125 6.109375 30.078125 6.109375 
Q 37.203125 6.109375 41.296875 11.75 
Q 45.40625 17.390625 45.40625 27.296875 
Q 45.40625 37.203125 41.296875 42.84375 
Q 37.203125 48.484375 30.078125 48.484375 
Q 22.953125 48.484375 18.875 42.84375 
Q 14.796875 37.203125 14.796875 27.296875 
z
" id="DejaVuSans-100"/>
       <path d="M 46 62.703125 
L 46 35.5 
L 73.1875 35.5 
L 73.1875 27.203125 
L 46 27.203125 
L 46 0 
L 37.796875 0 
L 37.796875 27.203125 
L 10.59375 27.203125 
L 10.59375 35.5 
L 37.796875 35.5 
L 37.796875 62.703125 
z
" id="DejaVuSans-43"/>
      </defs>
      <g transform="translate(91.049629 344.316562)scale(0.1 -0.1)">
       <use xlink:href="#DejaVuSans-66"/>
       <use x="68.603516" xlink:href="#DejaVuSans-97"/>
       <use x="129.882812" xlink:href="#DejaVuSans-99"/>
       <use x="184.863281" xlink:href="#DejaVuSans-107"/>
       <use x="242.773438" xlink:href="#DejaVuSans-103"/>
       <use x="306.25" xlink:href="#DejaVuSans-114"/>
       <use x="347.332031" xlink:href="#DejaVuSans-111"/>
       <use x="408.513672" xlink:href="#DejaVuSans-117"/>
       <use x="471.892578" xlink:href="#DejaVuSans-110"/>
       <use x="535.271484" xlink:href="#DejaVuSans-100"/>
       <use x="598.748047" xlink:href="#DejaVuSans-43"/>
      </g>
     </g>
    </g>
    <g id="xtick_2">
     <g id="line2d_2">
      <g>
       <use style="stroke:#000000;stroke-width:0.8;" x="264.842637" xlink:href="#m53bf71afe7" y="329.718125"/>
      </g>
     </g>
     <g id="text_2">
      <!-- Background- -->
      <defs>
       <path d="M 4.890625 31.390625 
L 31.203125 31.390625 
L 31.203125 23.390625 
L 4.890625 23.390625 
z
" id="DejaVuSans-45"/>
      </defs>
      <g transform="translate(233.100449 344.316562)scale(0.1 -0.1)">
       <use xlink:href="#DejaVuSans-66"/>
       <use x="68.603516" xlink:href="#DejaVuSans-97"/>
       <use x="129.882812" xlink:href="#DejaVuSans-99"/>
       <use x="184.863281" xlink:href="#DejaVuSans-107"/>
       <use x="242.773438" xlink:href="#DejaVuSans-103"/>
       <use x="306.25" xlink:href="#DejaVuSans-114"/>
       <use x="347.332031" xlink:href="#DejaVuSans-111"/>
       <use x="408.513672" xlink:href="#DejaVuSans-117"/>
       <use x="471.892578" xlink:href="#DejaVuSans-110"/>
       <use x="535.271484" xlink:href="#DejaVuSans-100"/>
       <use x="598.748047" xlink:href="#DejaVuSans-45"/>
      </g>
     </g>
    </g>
    <g id="text_3">
     <!-- Gene set expansions (+) or contractions (-) -->
     <defs>
      <path d="M 59.515625 10.40625 
L 59.515625 29.984375 
L 43.40625 29.984375 
L 43.40625 38.09375 
L 69.28125 38.09375 
L 69.28125 6.78125 
Q 63.578125 2.734375 56.6875 0.65625 
Q 49.8125 -1.421875 42 -1.421875 
Q 24.90625 -1.421875 15.25 8.5625 
Q 5.609375 18.5625 5.609375 36.375 
Q 5.609375 54.25 15.25 64.234375 
Q 24.90625 74.21875 42 74.21875 
Q 49.125 74.21875 55.546875 72.453125 
Q 61.96875 70.703125 67.390625 67.28125 
L 67.390625 56.78125 
Q 61.921875 61.421875 55.765625 63.765625 
Q 49.609375 66.109375 42.828125 66.109375 
Q 29.4375 66.109375 22.71875 58.640625 
Q 16.015625 51.171875 16.015625 36.375 
Q 16.015625 21.625 22.71875 14.15625 
Q 29.4375 6.6875 42.828125 6.6875 
Q 48.046875 6.6875 52.140625 7.59375 
Q 56.25 8.5 59.515625 10.40625 
z
" id="DejaVuSans-71"/>
      <path d="M 56.203125 29.59375 
L 56.203125 25.203125 
L 14.890625 25.203125 
Q 15.484375 15.921875 20.484375 11.0625 
Q 25.484375 6.203125 34.421875 6.203125 
Q 39.59375 6.203125 44.453125 7.46875 
Q 49.3125 8.734375 54.109375 11.28125 
L 54.109375 2.78125 
Q 49.265625 0.734375 44.1875 -0.34375 
Q 39.109375 -1.421875 33.890625 -1.421875 
Q 20.796875 -1.421875 13.15625 6.1875 
Q 5.515625 13.8125 5.515625 26.8125 
Q 5.515625 40.234375 12.765625 48.109375 
Q 20.015625 56 32.328125 56 
Q 43.359375 56 49.78125 48.890625 
Q 56.203125 41.796875 56.203125 29.59375 
z
M 47.21875 32.234375 
Q 47.125 39.59375 43.09375 43.984375 
Q 39.0625 48.390625 32.421875 48.390625 
Q 24.90625 48.390625 20.390625 44.140625 
Q 15.875 39.890625 15.1875 32.171875 
z
" id="DejaVuSans-101"/>
      <path id="DejaVuSans-32"/>
      <path d="M 44.28125 53.078125 
L 44.28125 44.578125 
Q 40.484375 46.53125 36.375 47.5 
Q 32.28125 48.484375 27.875 48.484375 
Q 21.1875 48.484375 17.84375 46.4375 
Q 14.5 44.390625 14.5 40.28125 
Q 14.5 37.15625 16.890625 35.375 
Q 19.28125 33.59375 26.515625 31.984375 
L 29.59375 31.296875 
Q 39.15625 29.25 43.1875 25.515625 
Q 47.21875 21.78125 47.21875 15.09375 
Q 47.21875 7.46875 41.1875 3.015625 
Q 35.15625 -1.421875 24.609375 -1.421875 
Q 20.21875 -1.421875 15.453125 -0.5625 
Q 10.6875 0.296875 5.421875 2 
L 5.421875 11.28125 
Q 10.40625 8.6875 15.234375 7.390625 
Q 20.0625 6.109375 24.8125 6.109375 
Q 31.15625 6.109375 34.5625 8.28125 
Q 37.984375 10.453125 37.984375 14.40625 
Q 37.984375 18.0625 35.515625 20.015625 
Q 33.0625 21.96875 24.703125 23.78125 
L 21.578125 24.515625 
Q 13.234375 26.265625 9.515625 29.90625 
Q 5.8125 33.546875 5.8125 39.890625 
Q 5.8125 47.609375 11.28125 51.796875 
Q 16.75 56 26.8125 56 
Q 31.78125 56 36.171875 55.265625 
Q 40.578125 54.546875 44.28125 53.078125 
z
" id="DejaVuSans-115"/>
      <path d="M 18.3125 70.21875 
L 18.3125 54.6875 
L 36.8125 54.6875 
L 36.8125 47.703125 
L 18.3125 47.703125 
L 18.3125 18.015625 
Q 18.3125 11.328125 20.140625 9.421875 
Q 21.96875 7.515625 27.59375 7.515625 
L 36.8125 7.515625 
L 36.8125 0 
L 27.59375 0 
Q 17.1875 0 13.234375 3.875 
Q 9.28125 7.765625 9.28125 18.015625 
L 9.28125 47.703125 
L 2.6875 47.703125 
L 2.6875 54.6875 
L 9.28125 54.6875 
L 9.28125 70.21875 
z
" id="DejaVuSans-116"/>
      <path d="M 54.890625 54.6875 
L 35.109375 28.078125 
L 55.90625 0 
L 45.3125 0 
L 29.390625 21.484375 
L 13.484375 0 
L 2.875 0 
L 24.125 28.609375 
L 4.6875 54.6875 
L 15.28125 54.6875 
L 29.78125 35.203125 
L 44.28125 54.6875 
z
" id="DejaVuSans-120"/>
      <path d="M 18.109375 8.203125 
L 18.109375 -20.796875 
L 9.078125 -20.796875 
L 9.078125 54.6875 
L 18.109375 54.6875 
L 18.109375 46.390625 
Q 20.953125 51.265625 25.265625 53.625 
Q 29.59375 56 35.59375 56 
Q 45.5625 56 51.78125 48.09375 
Q 58.015625 40.1875 58.015625 27.296875 
Q 58.015625 14.40625 51.78125 6.484375 
Q 45.5625 -1.421875 35.59375 -1.421875 
Q 29.59375 -1.421875 25.265625 0.953125 
Q 20.953125 3.328125 18.109375 8.203125 
z
M 48.6875 27.296875 
Q 48.6875 37.203125 44.609375 42.84375 
Q 40.53125 48.484375 33.40625 48.484375 
Q 26.265625 48.484375 22.1875 42.84375 
Q 18.109375 37.203125 18.109375 27.296875 
Q 18.109375 17.390625 22.1875 11.75 
Q 26.265625 6.109375 33.40625 6.109375 
Q 40.53125 6.109375 44.609375 11.75 
Q 48.6875 17.390625 48.6875 27.296875 
z
" id="DejaVuSans-112"/>
      <path d="M 9.421875 54.6875 
L 18.40625 54.6875 
L 18.40625 0 
L 9.421875 0 
z
M 9.421875 75.984375 
L 18.40625 75.984375 
L 18.40625 64.59375 
L 9.421875 64.59375 
z
" id="DejaVuSans-105"/>
      <path d="M 31 75.875 
Q 24.46875 64.65625 21.28125 53.65625 
Q 18.109375 42.671875 18.109375 31.390625 
Q 18.109375 20.125 21.3125 9.0625 
Q 24.515625 -2 31 -13.1875 
L 23.1875 -13.1875 
Q 15.875 -1.703125 12.234375 9.375 
Q 8.59375 20.453125 8.59375 31.390625 
Q 8.59375 42.28125 12.203125 53.3125 
Q 15.828125 64.359375 23.1875 75.875 
z
" id="DejaVuSans-40"/>
      <path d="M 8.015625 75.875 
L 15.828125 75.875 
Q 23.140625 64.359375 26.78125 53.3125 
Q 30.421875 42.28125 30.421875 31.390625 
Q 30.421875 20.453125 26.78125 9.375 
Q 23.140625 -1.703125 15.828125 -13.1875 
L 8.015625 -13.1875 
Q 14.5 -2 17.703125 9.0625 
Q 20.90625 20.125 20.90625 31.390625 
Q 20.90625 42.671875 17.703125 53.65625 
Q 14.5 64.65625 8.015625 75.875 
z
" id="DejaVuSans-41"/>
     </defs>
     <g transform="translate(86.46957 357.994687)scale(0.1 -0.1)">
      <use xlink:href="#DejaVuSans-71"/>
      <use x="77.490234" xlink:href="#DejaVuSans-101"/>
      <use x="139.013672" xlink:href="#DejaVuSans-110"/>
      <use x="202.392578" xlink:href="#DejaVuSans-101"/>
      <use x="263.916016" xlink:href="#DejaVuSans-32"/>
      <use x="295.703125" xlink:href="#DejaVuSans-115"/>
      <use x="347.802734" xlink:href="#DejaVuSans-101"/>
      <use x="409.326172" xlink:href="#DejaVuSans-116"/>
      <use x="448.535156" xlink:href="#DejaVuSans-32"/>
      <use x="480.322266" xlink:href="#DejaVuSans-101"/>
      <use x="541.830078" xlink:href="#DejaVuSans-120"/>
      <use x="601.009766" xlink:href="#DejaVuSans-112"/>
      <use x="664.486328" xlink:href="#DejaVuSans-97"/>
      <use x="725.765625" xlink:href="#DejaVuSans-110"/>
      <use x="789.144531" xlink:href="#DejaVuSans-115"/>
      <use x="841.244141" xlink:href="#DejaVuSans-105"/>
      <use x="869.027344" xlink:href="#DejaVuSans-111"/>
      <use x="930.208984" xlink:href="#DejaVuSans-110"/>
      <use x="993.587891" xlink:href="#DejaVuSans-115"/>
      <use x="1045.6875" xlink:href="#DejaVuSans-32"/>
      <use x="1077.474609" xlink:href="#DejaVuSans-40"/>
      <use x="1116.488281" xlink:href="#DejaVuSans-43"/>
      <use x="1200.277344" xlink:href="#DejaVuSans-41"/>
      <use x="1239.291016" xlink:href="#DejaVuSans-32"/>
      <use x="1271.078125" xlink:href="#DejaVuSans-111"/>
      <use x="1332.259766" xlink:href="#DejaVuSans-114"/>
      <use x="1373.373047" xlink:href="#DejaVuSans-32"/>
      <use x="1405.160156" xlink:href="#DejaVuSans-99"/>
      <use x="1460.140625" xlink:href="#DejaVuSans-111"/>
      <use x="1521.322266" xlink:href="#DejaVuSans-110"/>
      <use x="1584.701172" xlink:href="#DejaVuSans-116"/>
      <use x="1623.910156" xlink:href="#DejaVuSans-114"/>
      <use x="1665.023438" xlink:href="#DejaVuSans-97"/>
      <use x="1726.302734" xlink:href="#DejaVuSans-99"/>
      <use x="1781.283203" xlink:href="#DejaVuSans-116"/>
      <use x="1820.492188" xlink:href="#DejaVuSans-105"/>
      <use x="1848.275391" xlink:href="#DejaVuSans-111"/>
      <use x="1909.457031" xlink:href="#DejaVuSans-110"/>
      <use x="1972.835938" xlink:href="#DejaVuSans-115"/>
      <use x="2024.935547" xlink:href="#DejaVuSans-32"/>
      <use x="2056.722656" xlink:href="#DejaVuSans-40"/>
      <use x="2095.736328" xlink:href="#DejaVuSans-45"/>
      <use x="2131.820312" xlink:href="#DejaVuSans-41"/>
     </g>
    </g>
   </g>
   <g id="matplotlib.axis_2">
    <g id="ytick_1">
     <g id="line2d_3">
      <defs>
       <path d="M 0 0 
L -3.5 0 
" id="m24877867b9" style="stroke:#000000;stroke-width:0.8;"/>
      </defs>
      <g>
       <use style="stroke:#000000;stroke-width:0.8;" x="55.345313" xlink:href="#m24877867b9" y="323.125122"/>
      </g>
     </g>
     <g id="text_4">
      <!-- 500 -->
      <defs>
       <path d="M 10.59375 35.5 
L 73.1875 35.5 
L 73.1875 27.203125 
L 10.59375 27.203125 
z
" id="DejaVuSans-8722"/>
       <path d="M 10.796875 72.90625 
L 49.515625 72.90625 
L 49.515625 64.59375 
L 19.828125 64.59375 
L 19.828125 46.734375 
Q 21.96875 47.46875 24.109375 47.828125 
Q 26.265625 48.1875 28.421875 48.1875 
Q 40.625 48.1875 47.75 41.5 
Q 54.890625 34.8125 54.890625 23.390625 
Q 54.890625 11.625 47.5625 5.09375 
Q 40.234375 -1.421875 26.90625 -1.421875 
Q 22.3125 -1.421875 17.546875 -0.640625 
Q 12.796875 0.140625 7.71875 1.703125 
L 7.71875 11.625 
Q 12.109375 9.234375 16.796875 8.0625 
Q 21.484375 6.890625 26.703125 6.890625 
Q 35.15625 6.890625 40.078125 11.328125 
Q 45.015625 15.765625 45.015625 23.390625 
Q 45.015625 31 40.078125 35.4375 
Q 35.15625 39.890625 26.703125 39.890625 
Q 22.75 39.890625 18.8125 39.015625 
Q 14.890625 38.140625 10.796875 36.28125 
z
" id="DejaVuSans-53"/>
       <path d="M 31.78125 66.40625 
Q 24.171875 66.40625 20.328125 58.90625 
Q 16.5 51.421875 16.5 36.375 
Q 16.5 21.390625 20.328125 13.890625 
Q 24.171875 6.390625 31.78125 6.390625 
Q 39.453125 6.390625 43.28125 13.890625 
Q 47.125 21.390625 47.125 36.375 
Q 47.125 51.421875 43.28125 58.90625 
Q 39.453125 66.40625 31.78125 66.40625 
z
M 31.78125 74.21875 
Q 44.046875 74.21875 50.515625 64.515625 
Q 56.984375 54.828125 56.984375 36.375 
Q 56.984375 17.96875 50.515625 8.265625 
Q 44.046875 -1.421875 31.78125 -1.421875 
Q 19.53125 -1.421875 13.0625 8.265625 
Q 6.59375 17.96875 6.59375 36.375 
Q 6.59375 54.828125 13.0625 64.515625 
Q 19.53125 74.21875 31.78125 74.21875 
z
" id="DejaVuSans-48"/>
      </defs>
      <g transform="translate(20.878125 326.924341)scale(0.1 -0.1)">
       <use xlink:href="#DejaVuSans-8722"/>
       <use x="83.789062" xlink:href="#DejaVuSans-53"/>
       <use x="147.412109" xlink:href="#DejaVuSans-48"/>
       <use x="211.035156" xlink:href="#DejaVuSans-48"/>
      </g>
     </g>
    </g>
    <g id="ytick_2">
     <g id="line2d_4">
      <g>
       <use style="stroke:#000000;stroke-width:0.8;" x="55.345313" xlink:href="#m24877867b9" y="283.40768"/>
      </g>
     </g>
     <g id="text_5">
      <!-- 250 -->
      <defs>
       <path d="M 19.1875 8.296875 
L 53.609375 8.296875 
L 53.609375 0 
L 7.328125 0 
L 7.328125 8.296875 
Q 12.9375 14.109375 22.625 23.890625 
Q 32.328125 33.6875 34.8125 36.53125 
Q 39.546875 41.84375 41.421875 45.53125 
Q 43.3125 49.21875 43.3125 52.78125 
Q 43.3125 58.59375 39.234375 62.25 
Q 35.15625 65.921875 28.609375 65.921875 
Q 23.96875 65.921875 18.8125 64.3125 
Q 13.671875 62.703125 7.8125 59.421875 
L 7.8125 69.390625 
Q 13.765625 71.78125 18.9375 73 
Q 24.125 74.21875 28.421875 74.21875 
Q 39.75 74.21875 46.484375 68.546875 
Q 53.21875 62.890625 53.21875 53.421875 
Q 53.21875 48.921875 51.53125 44.890625 
Q 49.859375 40.875 45.40625 35.40625 
Q 44.1875 33.984375 37.640625 27.21875 
Q 31.109375 20.453125 19.1875 8.296875 
z
" id="DejaVuSans-50"/>
      </defs>
      <g transform="translate(20.878125 287.206899)scale(0.1 -0.1)">
       <use xlink:href="#DejaVuSans-8722"/>
       <use x="83.789062" xlink:href="#DejaVuSans-50"/>
       <use x="147.412109" xlink:href="#DejaVuSans-53"/>
       <use x="211.035156" xlink:href="#DejaVuSans-48"/>
      </g>
     </g>
    </g>
    <g id="ytick_3">
     <g id="line2d_5">
      <g>
       <use style="stroke:#000000;stroke-width:0.8;" x="55.345313" xlink:href="#m24877867b9" y="243.690239"/>
      </g>
     </g>
     <g id="text_6">
      <!-- 0 -->
      <g transform="translate(41.982813 247.489458)scale(0.1 -0.1)">
       <use xlink:href="#DejaVuSans-48"/>
      </g>
     </g>
    </g>
    <g id="ytick_4">
     <g id="line2d_6">
      <g>
       <use style="stroke:#000000;stroke-width:0.8;" x="55.345313" xlink:href="#m24877867b9" y="203.972798"/>
      </g>
     </g>
     <g id="text_7">
      <!-- 250 -->
      <g transform="translate(29.257813 207.772016)scale(0.1 -0.1)">
       <use xlink:href="#DejaVuSans-50"/>
       <use x="63.623047" xlink:href="#DejaVuSans-53"/>
       <use x="127.246094" xlink:href="#DejaVuSans-48"/>
      </g>
     </g>
    </g>
    <g id="ytick_5">
     <g id="line2d_7">
      <g>
       <use style="stroke:#000000;stroke-width:0.8;" x="55.345313" xlink:href="#m24877867b9" y="164.255356"/>
      </g>
     </g>
     <g id="text_8">
      <!-- 500 -->
      <g transform="translate(29.257813 168.054575)scale(0.1 -0.1)">
       <use xlink:href="#DejaVuSans-53"/>
       <use x="63.623047" xlink:href="#DejaVuSans-48"/>
       <use x="127.246094" xlink:href="#DejaVuSans-48"/>
      </g>
     </g>
    </g>
    <g id="ytick_6">
     <g id="line2d_8">
      <g>
       <use style="stroke:#000000;stroke-width:0.8;" x="55.345313" xlink:href="#m24877867b9" y="124.537915"/>
      </g>
     </g>
     <g id="text_9">
      <!-- 750 -->
      <defs>
       <path d="M 8.203125 72.90625 
L 55.078125 72.90625 
L 55.078125 68.703125 
L 28.609375 0 
L 18.3125 0 
L 43.21875 64.59375 
L 8.203125 64.59375 
z
" id="DejaVuSans-55"/>
      </defs>
      <g transform="translate(29.257813 128.337134)scale(0.1 -0.1)">
       <use xlink:href="#DejaVuSans-55"/>
       <use x="63.623047" xlink:href="#DejaVuSans-53"/>
       <use x="127.246094" xlink:href="#DejaVuSans-48"/>
      </g>
     </g>
    </g>
    <g id="ytick_7">
     <g id="line2d_9">
      <g>
       <use style="stroke:#000000;stroke-width:0.8;" x="55.345313" xlink:href="#m24877867b9" y="84.820474"/>
      </g>
     </g>
     <g id="text_10">
      <!-- 1000 -->
      <defs>
       <path d="M 12.40625 8.296875 
L 28.515625 8.296875 
L 28.515625 63.921875 
L 10.984375 60.40625 
L 10.984375 69.390625 
L 28.421875 72.90625 
L 38.28125 72.90625 
L 38.28125 8.296875 
L 54.390625 8.296875 
L 54.390625 0 
L 12.40625 0 
z
" id="DejaVuSans-49"/>
      </defs>
      <g transform="translate(22.895313 88.619692)scale(0.1 -0.1)">
       <use xlink:href="#DejaVuSans-49"/>
       <use x="63.623047" xlink:href="#DejaVuSans-48"/>
       <use x="127.246094" xlink:href="#DejaVuSans-48"/>
       <use x="190.869141" xlink:href="#DejaVuSans-48"/>
      </g>
     </g>
    </g>
    <g id="ytick_8">
     <g id="line2d_10">
      <g>
       <use style="stroke:#000000;stroke-width:0.8;" x="55.345313" xlink:href="#m24877867b9" y="45.103032"/>
      </g>
     </g>
     <g id="text_11">
      <!-- 1250 -->
      <g transform="translate(22.895313 48.902251)scale(0.1 -0.1)">
       <use xlink:href="#DejaVuSans-49"/>
       <use x="63.623047" xlink:href="#DejaVuSans-50"/>
       <use x="127.246094" xlink:href="#DejaVuSans-53"/>
       <use x="190.869141" xlink:href="#DejaVuSans-48"/>
      </g>
     </g>
    </g>
    <g id="text_12">
     <!-- Significant gene family expansions or contractions -->
     <defs>
      <path d="M 53.515625 70.515625 
L 53.515625 60.890625 
Q 47.90625 63.578125 42.921875 64.890625 
Q 37.9375 66.21875 33.296875 66.21875 
Q 25.25 66.21875 20.875 63.09375 
Q 16.5 59.96875 16.5 54.203125 
Q 16.5 49.359375 19.40625 46.890625 
Q 22.3125 44.4375 30.421875 42.921875 
L 36.375 41.703125 
Q 47.40625 39.59375 52.65625 34.296875 
Q 57.90625 29 57.90625 20.125 
Q 57.90625 9.515625 50.796875 4.046875 
Q 43.703125 -1.421875 29.984375 -1.421875 
Q 24.8125 -1.421875 18.96875 -0.25 
Q 13.140625 0.921875 6.890625 3.21875 
L 6.890625 13.375 
Q 12.890625 10.015625 18.65625 8.296875 
Q 24.421875 6.59375 29.984375 6.59375 
Q 38.421875 6.59375 43.015625 9.90625 
Q 47.609375 13.234375 47.609375 19.390625 
Q 47.609375 24.75 44.3125 27.78125 
Q 41.015625 30.8125 33.5 32.328125 
L 27.484375 33.5 
Q 16.453125 35.6875 11.515625 40.375 
Q 6.59375 45.0625 6.59375 53.421875 
Q 6.59375 63.09375 13.40625 68.65625 
Q 20.21875 74.21875 32.171875 74.21875 
Q 37.3125 74.21875 42.625 73.28125 
Q 47.953125 72.359375 53.515625 70.515625 
z
" id="DejaVuSans-83"/>
      <path d="M 37.109375 75.984375 
L 37.109375 68.5 
L 28.515625 68.5 
Q 23.6875 68.5 21.796875 66.546875 
Q 19.921875 64.59375 19.921875 59.515625 
L 19.921875 54.6875 
L 34.71875 54.6875 
L 34.71875 47.703125 
L 19.921875 47.703125 
L 19.921875 0 
L 10.890625 0 
L 10.890625 47.703125 
L 2.296875 47.703125 
L 2.296875 54.6875 
L 10.890625 54.6875 
L 10.890625 58.5 
Q 10.890625 67.625 15.140625 71.796875 
Q 19.390625 75.984375 28.609375 75.984375 
z
" id="DejaVuSans-102"/>
      <path d="M 52 44.1875 
Q 55.375 50.25 60.0625 53.125 
Q 64.75 56 71.09375 56 
Q 79.640625 56 84.28125 50.015625 
Q 88.921875 44.046875 88.921875 33.015625 
L 88.921875 0 
L 79.890625 0 
L 79.890625 32.71875 
Q 79.890625 40.578125 77.09375 44.375 
Q 74.3125 48.1875 68.609375 48.1875 
Q 61.625 48.1875 57.5625 43.546875 
Q 53.515625 38.921875 53.515625 30.90625 
L 53.515625 0 
L 44.484375 0 
L 44.484375 32.71875 
Q 44.484375 40.625 41.703125 44.40625 
Q 38.921875 48.1875 33.109375 48.1875 
Q 26.21875 48.1875 22.15625 43.53125 
Q 18.109375 38.875 18.109375 30.90625 
L 18.109375 0 
L 9.078125 0 
L 9.078125 54.6875 
L 18.109375 54.6875 
L 18.109375 46.1875 
Q 21.1875 51.21875 25.484375 53.609375 
Q 29.78125 56 35.6875 56 
Q 41.65625 56 45.828125 52.96875 
Q 50 49.953125 52 44.1875 
z
" id="DejaVuSans-109"/>
      <path d="M 9.421875 75.984375 
L 18.40625 75.984375 
L 18.40625 0 
L 9.421875 0 
z
" id="DejaVuSans-108"/>
      <path d="M 32.171875 -5.078125 
Q 28.375 -14.84375 24.75 -17.8125 
Q 21.140625 -20.796875 15.09375 -20.796875 
L 7.90625 -20.796875 
L 7.90625 -13.28125 
L 13.1875 -13.28125 
Q 16.890625 -13.28125 18.9375 -11.515625 
Q 21 -9.765625 23.484375 -3.21875 
L 25.09375 0.875 
L 2.984375 54.6875 
L 12.5 54.6875 
L 29.59375 11.921875 
L 46.6875 54.6875 
L 56.203125 54.6875 
z
" id="DejaVuSans-121"/>
     </defs>
     <g transform="translate(14.798438 302.650156)rotate(-90)scale(0.1 -0.1)">
      <use xlink:href="#DejaVuSans-83"/>
      <use x="63.476562" xlink:href="#DejaVuSans-105"/>
      <use x="91.259766" xlink:href="#DejaVuSans-103"/>
      <use x="154.736328" xlink:href="#DejaVuSans-110"/>
      <use x="218.115234" xlink:href="#DejaVuSans-105"/>
      <use x="245.898438" xlink:href="#DejaVuSans-102"/>
      <use x="281.103516" xlink:href="#DejaVuSans-105"/>
      <use x="308.886719" xlink:href="#DejaVuSans-99"/>
      <use x="363.867188" xlink:href="#DejaVuSans-97"/>
      <use x="425.146484" xlink:href="#DejaVuSans-110"/>
      <use x="488.525391" xlink:href="#DejaVuSans-116"/>
      <use x="527.734375" xlink:href="#DejaVuSans-32"/>
      <use x="559.521484" xlink:href="#DejaVuSans-103"/>
      <use x="622.998047" xlink:href="#DejaVuSans-101"/>
      <use x="684.521484" xlink:href="#DejaVuSans-110"/>
      <use x="747.900391" xlink:href="#DejaVuSans-101"/>
      <use x="809.423828" xlink:href="#DejaVuSans-32"/>
      <use x="841.210938" xlink:href="#DejaVuSans-102"/>
      <use x="876.416016" xlink:href="#DejaVuSans-97"/>
      <use x="937.695312" xlink:href="#DejaVuSans-109"/>
      <use x="1035.107422" xlink:href="#DejaVuSans-105"/>
      <use x="1062.890625" xlink:href="#DejaVuSans-108"/>
      <use x="1090.673828" xlink:href="#DejaVuSans-121"/>
      <use x="1149.853516" xlink:href="#DejaVuSans-32"/>
      <use x="1181.640625" xlink:href="#DejaVuSans-101"/>
      <use x="1243.148438" xlink:href="#DejaVuSans-120"/>
      <use x="1302.328125" xlink:href="#DejaVuSans-112"/>
      <use x="1365.804688" xlink:href="#DejaVuSans-97"/>
      <use x="1427.083984" xlink:href="#DejaVuSans-110"/>
      <use x="1490.462891" xlink:href="#DejaVuSans-115"/>
      <use x="1542.5625" xlink:href="#DejaVuSans-105"/>
      <use x="1570.345703" xlink:href="#DejaVuSans-111"/>
      <use x="1631.527344" xlink:href="#DejaVuSans-110"/>
      <use x="1694.90625" xlink:href="#DejaVuSans-115"/>
      <use x="1747.005859" xlink:href="#DejaVuSans-32"/>
      <use x="1778.792969" xlink:href="#DejaVuSans-111"/>
      <use x="1839.974609" xlink:href="#DejaVuSans-114"/>
      <use x="1881.087891" xlink:href="#DejaVuSans-32"/>
      <use x="1912.875" xlink:href="#DejaVuSans-99"/>
      <use x="1967.855469" xlink:href="#DejaVuSans-111"/>
      <use x="2029.037109" xlink:href="#DejaVuSans-110"/>
      <use x="2092.416016" xlink:href="#DejaVuSans-116"/>
      <use x="2131.625" xlink:href="#DejaVuSans-114"/>
      <use x="2172.738281" xlink:href="#DejaVuSans-97"/>
      <use x="2234.017578" xlink:href="#DejaVuSans-99"/>
      <use x="2288.998047" xlink:href="#DejaVuSans-116"/>
      <use x="2328.207031" xlink:href="#DejaVuSans-105"/>
      <use x="2355.990234" xlink:href="#DejaVuSans-111"/>
      <use x="2417.171875" xlink:href="#DejaVuSans-110"/>
      <use x="2480.550781" xlink:href="#DejaVuSans-115"/>
     </g>
    </g>
   </g>
   <g id="line2d_11">
    <path clip-path="url(#pc3b5842091)" d="M 87.933785 243.690239 
L 87.933785 220.018644 
" style="fill:none;stroke:#3e3e3e;stroke-linecap:square;stroke-width:1.5;"/>
   </g>
   <g id="line2d_12">
    <path clip-path="url(#pc3b5842091)" d="M 87.933785 243.571087 
L 87.933785 221.567624 
" style="fill:none;stroke:#3e3e3e;stroke-linecap:square;stroke-width:4.5;"/>
   </g>
   <g id="line2d_13">
    <path clip-path="url(#pc3b5842091)" d="M 125.177754 242.73702 
L 125.177754 120.089561 
" style="fill:none;stroke:#3e3e3e;stroke-linecap:square;stroke-width:1.5;"/>
   </g>
   <g id="line2d_14">
    <path clip-path="url(#pc3b5842091)" d="M 125.177754 240.512844 
L 125.177754 154.405431 
" style="fill:none;stroke:#3e3e3e;stroke-linecap:square;stroke-width:4.5;"/>
   </g>
   <g id="line2d_15">
    <path clip-path="url(#pc3b5842091)" d="M 162.421723 240.830583 
L 162.421723 235.111272 
" style="fill:none;stroke:#3e3e3e;stroke-linecap:square;stroke-width:1.5;"/>
   </g>
   <g id="line2d_16">
    <path clip-path="url(#pc3b5842091)" d="M 162.421723 240.115669 
L 162.421723 219.184578 
" style="fill:none;stroke:#3e3e3e;stroke-linecap:square;stroke-width:4.5;"/>
   </g>
   <g id="line2d_17">
    <path clip-path="url(#pc3b5842091)" d="M 227.598668 283.56655 
L 227.598668 243.690239 
" style="fill:none;stroke:#3e3e3e;stroke-linecap:square;stroke-width:1.5;"/>
   </g>
   <g id="line2d_18">
    <path clip-path="url(#pc3b5842091)" d="M 227.598668 267.798726 
L 227.598668 245.358372 
" style="fill:none;stroke:#3e3e3e;stroke-linecap:square;stroke-width:4.5;"/>
   </g>
   <g id="line2d_19">
    <path clip-path="url(#pc3b5842091)" d="M 264.842637 271.492448 
L 264.842637 245.437806 
" style="fill:none;stroke:#3e3e3e;stroke-linecap:square;stroke-width:1.5;"/>
   </g>
   <g id="line2d_20">
    <path clip-path="url(#pc3b5842091)" d="M 264.842637 268.791662 
L 264.842637 248.615202 
" style="fill:none;stroke:#3e3e3e;stroke-linecap:square;stroke-width:4.5;"/>
   </g>
   <g id="line2d_21">
    <path clip-path="url(#pc3b5842091)" d="M 302.086605 291.192299 
L 302.086605 255.605471 
" style="fill:none;stroke:#3e3e3e;stroke-linecap:square;stroke-width:1.5;"/>
   </g>
   <g id="line2d_22">
    <path clip-path="url(#pc3b5842091)" d="M 302.086605 275.34504 
L 302.086605 257.631061 
" style="fill:none;stroke:#3e3e3e;stroke-linecap:square;stroke-width:4.5;"/>
   </g>
   <g id="patch_6">
    <path d="M 55.345313 329.718125 
L 55.345313 22.318125 
" style="fill:none;stroke:#000000;stroke-linecap:square;stroke-linejoin:miter;stroke-width:0.8;"/>
   </g>
   <g id="patch_7">
    <path d="M 55.345313 329.718125 
L 334.675078 329.718125 
" style="fill:none;stroke:#000000;stroke-linecap:square;stroke-linejoin:miter;stroke-width:0.8;"/>
   </g>
   <g id="PathCollection_1">
    <defs>
     <path d="M 0 1.5 
C 0.397805 1.5 0.77937 1.341951 1.06066 1.06066 
C 1.341951 0.77937 1.5 0.397805 1.5 0 
C 1.5 -0.397805 1.341951 -0.77937 1.06066 -1.06066 
C 0.77937 -1.341951 0.397805 -1.5 0 -1.5 
C -0.397805 -1.5 -0.77937 -1.341951 -1.06066 -1.06066 
C -1.341951 -0.77937 -1.5 -0.397805 -1.5 0 
C -1.5 0.397805 -1.341951 0.77937 -1.06066 1.06066 
C -0.77937 1.341951 -0.397805 1.5 0 1.5 
z
" id="m7125e94130" style="stroke:#3e3e3e;"/>
    </defs>
    <g clip-path="url(#pc3b5842091)">
     <use style="fill:#ffffff;stroke:#3e3e3e;" x="87.933785" xlink:href="#m7125e94130" y="242.498716"/>
    </g>
   </g>
   <g id="PathCollection_2">
    <g clip-path="url(#pc3b5842091)">
     <use style="fill:#ffffff;stroke:#3e3e3e;" x="125.177754" xlink:href="#m7125e94130" y="189.515649"/>
    </g>
   </g>
   <g id="PathCollection_3">
    <g clip-path="url(#pc3b5842091)">
     <use style="fill:#ffffff;stroke:#3e3e3e;" x="162.421723" xlink:href="#m7125e94130" y="237.494318"/>
    </g>
   </g>
   <g id="PathCollection_4">
    <g clip-path="url(#pc3b5842091)">
     <use style="fill:#ffffff;stroke:#3e3e3e;" x="227.598668" xlink:href="#m7125e94130" y="255.208297"/>
    </g>
   </g>
   <g id="PathCollection_5">
    <g clip-path="url(#pc3b5842091)">
     <use style="fill:#ffffff;stroke:#3e3e3e;" x="264.842637" xlink:href="#m7125e94130" y="253.540164"/>
    </g>
   </g>
   <g id="PathCollection_6">
    <g clip-path="url(#pc3b5842091)">
     <use style="fill:#ffffff;stroke:#3e3e3e;" x="302.086605" xlink:href="#m7125e94130" y="264.184439"/>
    </g>
   </g>
   <g id="text_13">
    <!-- Background Genes -->
    <g transform="translate(138.216445 16.318125)scale(0.12 -0.12)">
     <use xlink:href="#DejaVuSans-66"/>
     <use x="68.603516" xlink:href="#DejaVuSans-97"/>
     <use x="129.882812" xlink:href="#DejaVuSans-99"/>
     <use x="184.863281" xlink:href="#DejaVuSans-107"/>
     <use x="242.773438" xlink:href="#DejaVuSans-103"/>
     <use x="306.25" xlink:href="#DejaVuSans-114"/>
     <use x="347.332031" xlink:href="#DejaVuSans-111"/>
     <use x="408.513672" xlink:href="#DejaVuSans-117"/>
     <use x="471.892578" xlink:href="#DejaVuSans-110"/>
     <use x="535.271484" xlink:href="#DejaVuSans-100"/>
     <use x="598.748047" xlink:href="#DejaVuSans-32"/>
     <use x="630.535156" xlink:href="#DejaVuSans-71"/>
     <use x="708.025391" xlink:href="#DejaVuSans-101"/>
     <use x="769.548828" xlink:href="#DejaVuSans-110"/>
     <use x="832.927734" xlink:href="#DejaVuSans-101"/>
     <use x="894.451172" xlink:href="#DejaVuSans-115"/>
    </g>
   </g>
  </g>
  <g id="legend_1">
   <g id="text_14">
    <!-- Sociality -->
    <g transform="translate(366.766172 164.379375)scale(0.1 -0.1)">
     <use xlink:href="#DejaVuSans-83"/>
     <use x="63.476562" xlink:href="#DejaVuSans-111"/>
     <use x="124.658203" xlink:href="#DejaVuSans-99"/>
     <use x="179.638672" xlink:href="#DejaVuSans-105"/>
     <use x="207.421875" xlink:href="#DejaVuSans-97"/>
     <use x="268.701172" xlink:href="#DejaVuSans-108"/>
     <use x="296.484375" xlink:href="#DejaVuSans-105"/>
     <use x="324.267578" xlink:href="#DejaVuSans-116"/>
     <use x="363.476562" xlink:href="#DejaVuSans-121"/>
    </g>
   </g>
   <g id="patch_8">
    <path d="M 340.673203 179.0575 
L 360.673203 179.0575 
L 360.673203 172.0575 
L 340.673203 172.0575 
z
" style="fill:#417192;stroke:#3e3e3e;stroke-linejoin:miter;stroke-width:0.75;"/>
   </g>
   <g id="text_15">
    <!-- Solitary -->
    <g transform="translate(368.673203 179.0575)scale(0.1 -0.1)">
     <use xlink:href="#DejaVuSans-83"/>
     <use x="63.476562" xlink:href="#DejaVuSans-111"/>
     <use x="124.658203" xlink:href="#DejaVuSans-108"/>
     <use x="152.441406" xlink:href="#DejaVuSans-105"/>
     <use x="180.224609" xlink:href="#DejaVuSans-116"/>
     <use x="219.433594" xlink:href="#DejaVuSans-97"/>
     <use x="280.712891" xlink:href="#DejaVuSans-114"/>
     <use x="321.826172" xlink:href="#DejaVuSans-121"/>
    </g>
   </g>
   <g id="patch_9">
    <path d="M 340.673203 193.735625 
L 360.673203 193.735625 
L 360.673203 186.735625 
L 340.673203 186.735625 
z
" style="fill:#468746;stroke:#3e3e3e;stroke-linejoin:miter;stroke-width:0.75;"/>
   </g>
   <g id="text_16">
    <!-- Social -->
    <g transform="translate(368.673203 193.735625)scale(0.1 -0.1)">
     <use xlink:href="#DejaVuSans-83"/>
     <use x="63.476562" xlink:href="#DejaVuSans-111"/>
     <use x="124.658203" xlink:href="#DejaVuSans-99"/>
     <use x="179.638672" xlink:href="#DejaVuSans-105"/>
     <use x="207.421875" xlink:href="#DejaVuSans-97"/>
     <use x="268.701172" xlink:href="#DejaVuSans-108"/>
    </g>
   </g>
   <g id="patch_10">
    <path d="M 340.673203 208.41375 
L 360.673203 208.41375 
L 360.673203 201.41375 
L 340.673203 201.41375 
z
" style="fill:#cc834b;stroke:#3e3e3e;stroke-linejoin:miter;stroke-width:0.75;"/>
   </g>
   <g id="text_17">
    <!-- Adv. eusocial -->
    <defs>
     <path d="M 34.1875 63.1875 
L 20.796875 26.90625 
L 47.609375 26.90625 
z
M 28.609375 72.90625 
L 39.796875 72.90625 
L 67.578125 0 
L 57.328125 0 
L 50.6875 18.703125 
L 17.828125 18.703125 
L 11.1875 0 
L 0.78125 0 
z
" id="DejaVuSans-65"/>
     <path d="M 2.984375 54.6875 
L 12.5 54.6875 
L 29.59375 8.796875 
L 46.6875 54.6875 
L 56.203125 54.6875 
L 35.6875 0 
L 23.484375 0 
z
" id="DejaVuSans-118"/>
     <path d="M 10.6875 12.40625 
L 21 12.40625 
L 21 0 
L 10.6875 0 
z
" id="DejaVuSans-46"/>
    </defs>
    <g transform="translate(368.673203 208.41375)scale(0.1 -0.1)">
     <use xlink:href="#DejaVuSans-65"/>
     <use x="68.392578" xlink:href="#DejaVuSans-100"/>
     <use x="131.869141" xlink:href="#DejaVuSans-118"/>
     <use x="190.939453" xlink:href="#DejaVuSans-46"/>
     <use x="222.726562" xlink:href="#DejaVuSans-32"/>
     <use x="254.513672" xlink:href="#DejaVuSans-101"/>
     <use x="316.037109" xlink:href="#DejaVuSans-117"/>
     <use x="379.416016" xlink:href="#DejaVuSans-115"/>
     <use x="431.515625" xlink:href="#DejaVuSans-111"/>
     <use x="492.697266" xlink:href="#DejaVuSans-99"/>
     <use x="547.677734" xlink:href="#DejaVuSans-105"/>
     <use x="575.460938" xlink:href="#DejaVuSans-97"/>
     <use x="636.740234" xlink:href="#DejaVuSans-108"/>
    </g>
   </g>
  </g>
 </g>
 <defs>
  <clipPath id="pc3b5842091">
   <rect height="307.4" width="279.329766" x="55.345313" y="22.318125"/>
  </clipPath>
 </defs>
</svg>
