<?xml version="1.0" encoding="utf-8" standalone="no"?>
<!DOCTYPE svg PUBLIC "-//W3C//DTD SVG 1.1//EN"
  "http://www.w3.org/Graphics/SVG/1.1/DTD/svg11.dtd">
<!-- Created with matplotlib (https://matplotlib.org/) -->
<svg height="367.274375pt" version="1.1" viewBox="0 0 445.956146 367.274375" width="445.956146pt" xmlns="http://www.w3.org/2000/svg" xmlns:xlink="http://www.w3.org/1999/xlink">
 <defs>
  <style type="text/css">
*{stroke-linecap:butt;stroke-linejoin:round;}
  </style>
 </defs>
 <g id="figure_1">
  <g id="patch_1">
   <path d="M 0 367.274375 
L 445.956146 367.274375 
L 445.956146 0 
L 0 0 
z
" style="fill:#ffffff;"/>
  </g>
  <g id="axes_1">
   <g id="patch_2">
    <path d="M 48.982813 329.718125 
L 336.504896 329.718125 
L 336.504896 22.318125 
L 48.982813 22.318125 
z
" style="fill:#ffffff;"/>
   </g>
   <g id="PolyCollection_1">
    <defs>
     <path d="M 84.305587 -69.025659 
L 80.748524 -69.025659 
L 80.424952 -71.671698 
L 80.059547 -74.317737 
L 79.650439 -76.963776 
L 79.196384 -79.609815 
L 78.6969 -82.255854 
L 78.15239 -84.901893 
L 77.564251 -87.547932 
L 76.934967 -90.193971 
L 76.268164 -92.84001 
L 75.568643 -95.486049 
L 74.842363 -98.132088 
L 74.096394 -100.778127 
L 73.338811 -103.424166 
L 72.578562 -106.070205 
L 71.825279 -108.716244 
L 71.089064 -111.362283 
L 70.38024 -114.008322 
L 69.709085 -116.654361 
L 69.085559 -119.3004 
L 68.519023 -121.946439 
L 68.017983 -124.592478 
L 67.589848 -127.238517 
L 67.240732 -129.884556 
L 66.975291 -132.530595 
L 66.796617 -135.176634 
L 66.706175 -137.822673 
L 66.703809 -140.468712 
L 66.787791 -143.114752 
L 66.95492 -145.760791 
L 67.200668 -148.40683 
L 67.519359 -151.052869 
L 67.904368 -153.698908 
L 68.348346 -156.344947 
L 68.843435 -158.990986 
L 69.381493 -161.637025 
L 69.954292 -164.283064 
L 70.553706 -166.929103 
L 71.171868 -169.575142 
L 71.801297 -172.221181 
L 72.435001 -174.86722 
L 73.066544 -177.513259 
L 73.690086 -180.159298 
L 74.300406 -182.805337 
L 74.892893 -185.451376 
L 75.463532 -188.097415 
L 76.008872 -190.743454 
L 76.525997 -193.389493 
L 77.012482 -196.035532 
L 77.466363 -198.681571 
L 77.886105 -201.32761 
L 78.270572 -203.973649 
L 78.619016 -206.619688 
L 78.931056 -209.265727 
L 79.206675 -211.911766 
L 79.446218 -214.557805 
L 79.650386 -217.203844 
L 79.820243 -219.849883 
L 79.957208 -222.495922 
L 80.063053 -225.141961 
L 80.139892 -227.788001 
L 80.190159 -230.43404 
L 80.216587 -233.080079 
L 80.22217 -235.726118 
L 80.210119 -238.372157 
L 80.183808 -241.018196 
L 80.146716 -243.664235 
L 80.102358 -246.310274 
L 80.054217 -248.956313 
L 80.005667 -251.602352 
L 79.959903 -254.248391 
L 79.919871 -256.89443 
L 79.888203 -259.540469 
L 79.867163 -262.186508 
L 79.858602 -264.832547 
L 79.86392 -267.478586 
L 79.884057 -270.124625 
L 79.919479 -272.770664 
L 79.970191 -275.416703 
L 80.035764 -278.062742 
L 80.115366 -280.708781 
L 80.207815 -283.35482 
L 80.311633 -286.000859 
L 80.425113 -288.646898 
L 80.54638 -291.292937 
L 80.673465 -293.938976 
L 80.804368 -296.585015 
L 80.937123 -299.231054 
L 81.069849 -301.877093 
L 81.200806 -304.523132 
L 81.328424 -307.169171 
L 81.45134 -309.81521 
L 81.568412 -312.46125 
L 81.678733 -315.107289 
L 81.781626 -317.753328 
L 81.876636 -320.399367 
L 81.963523 -323.045406 
L 82.042234 -325.691445 
L 82.112882 -328.337484 
L 82.175723 -330.983523 
L 82.878388 -330.983523 
L 82.878388 -330.983523 
L 82.941229 -328.337484 
L 83.011877 -325.691445 
L 83.090588 -323.045406 
L 83.177475 -320.399367 
L 83.272486 -317.753328 
L 83.375378 -315.107289 
L 83.485699 -312.46125 
L 83.602772 -309.81521 
L 83.725688 -307.169171 
L 83.853306 -304.523132 
L 83.984262 -301.877093 
L 84.116988 -299.231054 
L 84.249743 -296.585015 
L 84.380646 -293.938976 
L 84.507731 -291.292937 
L 84.628998 -288.646898 
L 84.742478 -286.000859 
L 84.846296 -283.35482 
L 84.938745 -280.708781 
L 85.018347 -278.062742 
L 85.08392 -275.416703 
L 85.134632 -272.770664 
L 85.170054 -270.124625 
L 85.190191 -267.478586 
L 85.19551 -264.832547 
L 85.186948 -262.186508 
L 85.165908 -259.540469 
L 85.13424 -256.89443 
L 85.094208 -254.248391 
L 85.048444 -251.602352 
L 84.999894 -248.956313 
L 84.951753 -246.310274 
L 84.907395 -243.664235 
L 84.870303 -241.018196 
L 84.843992 -238.372157 
L 84.831941 -235.726118 
L 84.837524 -233.080079 
L 84.863952 -230.43404 
L 84.91422 -227.788001 
L 84.991058 -225.141961 
L 85.096903 -222.495922 
L 85.233868 -219.849883 
L 85.403725 -217.203844 
L 85.607893 -214.557805 
L 85.847436 -211.911766 
L 86.123055 -209.265727 
L 86.435095 -206.619688 
L 86.783539 -203.973649 
L 87.168007 -201.32761 
L 87.587748 -198.681571 
L 88.041629 -196.035532 
L 88.528114 -193.389493 
L 89.045239 -190.743454 
L 89.590579 -188.097415 
L 90.161218 -185.451376 
L 90.753705 -182.805337 
L 91.364025 -180.159298 
L 91.987567 -177.513259 
L 92.61911 -174.86722 
L 93.252814 -172.221181 
L 93.882243 -169.575142 
L 94.500405 -166.929103 
L 95.099819 -164.283064 
L 95.672618 -161.637025 
L 96.210676 -158.990986 
L 96.705765 -156.344947 
L 97.149743 -153.698908 
L 97.534752 -151.052869 
L 97.853443 -148.40683 
L 98.099191 -145.760791 
L 98.26632 -143.114752 
L 98.350302 -140.468712 
L 98.347936 -137.822673 
L 98.257495 -135.176634 
L 98.07882 -132.530595 
L 97.813379 -129.884556 
L 97.464263 -127.238517 
L 97.036128 -124.592478 
L 96.535088 -121.946439 
L 95.968552 -119.3004 
L 95.345026 -116.654361 
L 94.673872 -114.008322 
L 93.965047 -111.362283 
L 93.228832 -108.716244 
L 92.475549 -106.070205 
L 91.7153 -103.424166 
L 90.957718 -100.778127 
L 90.211748 -98.132088 
L 89.485468 -95.486049 
L 88.785947 -92.84001 
L 88.119144 -90.193971 
L 87.48986 -87.547932 
L 86.901721 -84.901893 
L 86.357211 -82.255854 
L 85.857727 -79.609815 
L 85.403672 -76.963776 
L 84.994564 -74.317737 
L 84.629159 -71.671698 
L 84.305587 -69.025659 
z
" id="m7bdc118800" style="stroke:#3e3e3e;stroke-width:1.5;"/>
    </defs>
    <g clip-path="url(#p6a08a1c3b6)">
     <use style="fill:#417192;stroke:#3e3e3e;stroke-width:1.5;" x="0" xlink:href="#m7bdc118800" y="367.274375"/>
    </g>
   </g>
   <g id="PolyCollection_2">
    <defs>
     <path d="M 121.860099 -67.859132 
L 119.866568 -67.859132 
L 119.695375 -70.402898 
L 119.5028 -72.946665 
L 119.28774 -75.490432 
L 119.04933 -78.034198 
L 118.786995 -80.577965 
L 118.50051 -83.121732 
L 118.190048 -85.665499 
L 117.856227 -88.209265 
L 117.500146 -90.753032 
L 117.123411 -93.296799 
L 116.728154 -95.840565 
L 116.317027 -98.384332 
L 115.893185 -100.928099 
L 115.460257 -103.471866 
L 115.022289 -106.015632 
L 114.583677 -108.559399 
L 114.149084 -111.103166 
L 113.723342 -113.646932 
L 113.311339 -116.190699 
L 112.917905 -118.734466 
L 112.547689 -121.278233 
L 112.205037 -123.821999 
L 111.893875 -126.365766 
L 111.617601 -128.909533 
L 111.378983 -131.453299 
L 111.180087 -133.997066 
L 111.022208 -136.540833 
L 110.905834 -139.0846 
L 110.830625 -141.628366 
L 110.795423 -144.172133 
L 110.798283 -146.7159 
L 110.836516 -149.259666 
L 110.906773 -151.803433 
L 111.005126 -154.3472 
L 111.127175 -156.890967 
L 111.268165 -159.434733 
L 111.423108 -161.9785 
L 111.586914 -164.522267 
L 111.754511 -167.066033 
L 111.920977 -169.6098 
L 112.081655 -172.153567 
L 112.23226 -174.697334 
L 112.368981 -177.2411 
L 112.488559 -179.784867 
L 112.58836 -182.328634 
L 112.666427 -184.8724 
L 112.721513 -187.416167 
L 112.753102 -189.959934 
L 112.761406 -192.503701 
L 112.747354 -195.047467 
L 112.712554 -197.591234 
L 112.65925 -200.135001 
L 112.590254 -202.678767 
L 112.508875 -205.222534 
L 112.418829 -207.766301 
L 112.324148 -210.310068 
L 112.229072 -212.853834 
L 112.137948 -215.397601 
L 112.055117 -217.941368 
L 111.984811 -220.485134 
L 111.931046 -223.028901 
L 111.897527 -225.572668 
L 111.887559 -228.116435 
L 111.90397 -230.660201 
L 111.94905 -233.203968 
L 112.024501 -235.747735 
L 112.131403 -238.291501 
L 112.270201 -240.835268 
L 112.440705 -243.379035 
L 112.642108 -245.922802 
L 112.87302 -248.466568 
L 113.13151 -251.010335 
L 113.415175 -253.554102 
L 113.721199 -256.097868 
L 114.046438 -258.641635 
L 114.387498 -261.185402 
L 114.740822 -263.729169 
L 115.102772 -266.272935 
L 115.469714 -268.816702 
L 115.838095 -271.360469 
L 116.204509 -273.904235 
L 116.565765 -276.448002 
L 116.918937 -278.991769 
L 117.261403 -281.535536 
L 117.590883 -284.079302 
L 117.905452 -286.623069 
L 118.203552 -289.166836 
L 118.483995 -291.710602 
L 118.745948 -294.254369 
L 118.98892 -296.798136 
L 119.212734 -299.341903 
L 119.417501 -301.885669 
L 119.603587 -304.429436 
L 119.771573 -306.973203 
L 119.922225 -309.516969 
L 120.056451 -312.060736 
L 120.175268 -314.604503 
L 120.279771 -317.14827 
L 120.371096 -319.692036 
L 121.355571 -319.692036 
L 121.355571 -319.692036 
L 121.446896 -317.14827 
L 121.551398 -314.604503 
L 121.670216 -312.060736 
L 121.804441 -309.516969 
L 121.955093 -306.973203 
L 122.12308 -304.429436 
L 122.309166 -301.885669 
L 122.513933 -299.341903 
L 122.737747 -296.798136 
L 122.980718 -294.254369 
L 123.242671 -291.710602 
L 123.523114 -289.166836 
L 123.821215 -286.623069 
L 124.135783 -284.079302 
L 124.465263 -281.535536 
L 124.80773 -278.991769 
L 125.160902 -276.448002 
L 125.522158 -273.904235 
L 125.888572 -271.360469 
L 126.256952 -268.816702 
L 126.623895 -266.272935 
L 126.985845 -263.729169 
L 127.339169 -261.185402 
L 127.680229 -258.641635 
L 128.005468 -256.097868 
L 128.311492 -253.554102 
L 128.595156 -251.010335 
L 128.853647 -248.466568 
L 129.084558 -245.922802 
L 129.285962 -243.379035 
L 129.456466 -240.835268 
L 129.595264 -238.291501 
L 129.702166 -235.747735 
L 129.777616 -233.203968 
L 129.822697 -230.660201 
L 129.839108 -228.116435 
L 129.82914 -225.572668 
L 129.79562 -223.028901 
L 129.741855 -220.485134 
L 129.67155 -217.941368 
L 129.588719 -215.397601 
L 129.497595 -212.853834 
L 129.402519 -210.310068 
L 129.307838 -207.766301 
L 129.217792 -205.222534 
L 129.136412 -202.678767 
L 129.067416 -200.135001 
L 129.014112 -197.591234 
L 128.979313 -195.047467 
L 128.965261 -192.503701 
L 128.973565 -189.959934 
L 129.005153 -187.416167 
L 129.06024 -184.8724 
L 129.138307 -182.328634 
L 129.238108 -179.784867 
L 129.357686 -177.2411 
L 129.494407 -174.697334 
L 129.645012 -172.153567 
L 129.80569 -169.6098 
L 129.972156 -167.066033 
L 130.139753 -164.522267 
L 130.303558 -161.9785 
L 130.458502 -159.434733 
L 130.599492 -156.890967 
L 130.721541 -154.3472 
L 130.819893 -151.803433 
L 130.89015 -149.259666 
L 130.928384 -146.7159 
L 130.931243 -144.172133 
L 130.896042 -141.628366 
L 130.820833 -139.0846 
L 130.704458 -136.540833 
L 130.546579 -133.997066 
L 130.347683 -131.453299 
L 130.109066 -128.909533 
L 129.832791 -126.365766 
L 129.52163 -123.821999 
L 129.178978 -121.278233 
L 128.808761 -118.734466 
L 128.415327 -116.190699 
L 128.003324 -113.646932 
L 127.577582 -111.103166 
L 127.14299 -108.559399 
L 126.704378 -106.015632 
L 126.26641 -103.471866 
L 125.833482 -100.928099 
L 125.40964 -98.384332 
L 124.998512 -95.840565 
L 124.603255 -93.296799 
L 124.226521 -90.753032 
L 123.870439 -88.209265 
L 123.536618 -85.665499 
L 123.226157 -83.121732 
L 122.939672 -80.577965 
L 122.677337 -78.034198 
L 122.438926 -75.490432 
L 122.223866 -72.946665 
L 122.031292 -70.402898 
L 121.860099 -67.859132 
z
" id="m0ca2669d44" style="stroke:#3e3e3e;stroke-width:1.5;"/>
    </defs>
    <g clip-path="url(#p6a08a1c3b6)">
     <use style="fill:#468746;stroke:#3e3e3e;stroke-width:1.5;" x="0" xlink:href="#m0ca2669d44" y="367.274375"/>
    </g>
   </g>
   <g id="PolyCollection_3">
    <defs>
     <path d="M 161.262058 -85.845094 
L 157.137164 -85.845094 
L 156.826242 -87.59556 
L 156.480958 -89.346025 
L 156.099702 -91.096491 
L 155.681165 -92.846957 
L 155.224402 -94.597422 
L 154.728901 -96.347888 
L 154.194645 -98.098354 
L 153.62218 -99.848819 
L 153.012666 -101.599285 
L 152.367924 -103.349751 
L 151.690475 -105.100216 
L 150.983559 -106.850682 
L 150.251147 -108.601148 
L 149.497929 -110.351613 
L 148.729289 -112.102079 
L 147.951255 -113.852545 
L 147.170435 -115.60301 
L 146.393935 -117.353476 
L 145.629247 -119.103942 
L 144.884138 -120.854407 
L 144.166508 -122.604873 
L 143.484252 -124.355339 
L 142.845097 -126.105804 
L 142.256452 -127.85627 
L 141.725245 -129.606736 
L 141.257774 -131.357201 
L 140.85956 -133.107667 
L 140.535218 -134.858132 
L 140.288346 -136.608598 
L 140.121428 -138.359064 
L 140.035773 -140.109529 
L 140.031472 -141.859995 
L 140.107384 -143.610461 
L 140.261154 -145.360926 
L 140.489258 -147.111392 
L 140.787078 -148.861858 
L 141.148998 -150.612323 
L 141.568525 -152.362789 
L 142.038436 -154.113255 
L 142.550931 -155.86372 
L 143.097803 -157.614186 
L 143.670612 -159.364652 
L 144.260867 -161.115117 
L 144.860196 -162.865583 
L 145.460517 -164.616049 
L 146.054194 -166.366514 
L 146.634177 -168.11698 
L 147.194126 -169.867446 
L 147.728514 -171.617911 
L 148.232702 -173.368377 
L 148.703003 -175.118843 
L 149.136704 -176.869308 
L 149.532079 -178.619774 
L 149.888367 -180.370239 
L 150.20574 -182.120705 
L 150.485237 -183.871171 
L 150.728695 -185.621636 
L 150.938648 -187.372102 
L 151.118235 -189.122568 
L 151.271076 -190.873033 
L 151.401163 -192.623499 
L 151.512736 -194.373965 
L 151.610163 -196.12443 
L 151.697825 -197.874896 
L 151.780006 -199.625362 
L 151.860793 -201.375827 
L 151.943986 -203.126293 
L 152.033023 -204.876759 
L 152.130911 -206.627224 
L 152.240185 -208.37769 
L 152.36287 -210.128156 
L 152.500463 -211.878621 
L 152.65393 -213.629087 
L 152.823719 -215.379553 
L 153.009779 -217.130018 
L 153.211595 -218.880484 
L 153.428232 -220.63095 
L 153.658388 -222.381415 
L 153.900449 -224.131881 
L 154.152552 -225.882346 
L 154.412646 -227.632812 
L 154.678556 -229.383278 
L 154.948043 -231.133743 
L 155.218862 -232.884209 
L 155.488818 -234.634675 
L 155.755808 -236.38514 
L 156.017866 -238.135606 
L 156.273195 -239.886072 
L 156.520193 -241.636537 
L 156.757474 -243.387003 
L 156.983876 -245.137469 
L 157.198469 -246.887934 
L 157.400552 -248.6384 
L 157.589648 -250.388866 
L 157.765489 -252.139331 
L 157.928004 -253.889797 
L 158.077298 -255.640263 
L 158.213633 -257.390728 
L 158.337405 -259.141194 
L 160.061817 -259.141194 
L 160.061817 -259.141194 
L 160.18559 -257.390728 
L 160.321925 -255.640263 
L 160.471219 -253.889797 
L 160.633733 -252.139331 
L 160.809574 -250.388866 
L 160.99867 -248.6384 
L 161.200753 -246.887934 
L 161.415346 -245.137469 
L 161.641748 -243.387003 
L 161.879029 -241.636537 
L 162.126027 -239.886072 
L 162.381356 -238.135606 
L 162.643414 -236.38514 
L 162.910404 -234.634675 
L 163.18036 -232.884209 
L 163.45118 -231.133743 
L 163.720666 -229.383278 
L 163.986576 -227.632812 
L 164.24667 -225.882346 
L 164.498773 -224.131881 
L 164.740834 -222.381415 
L 164.970991 -220.63095 
L 165.187628 -218.880484 
L 165.389443 -217.130018 
L 165.575503 -215.379553 
L 165.745292 -213.629087 
L 165.89876 -211.878621 
L 166.036352 -210.128156 
L 166.159037 -208.37769 
L 166.268311 -206.627224 
L 166.366199 -204.876759 
L 166.455236 -203.126293 
L 166.538429 -201.375827 
L 166.619217 -199.625362 
L 166.701397 -197.874896 
L 166.789059 -196.12443 
L 166.886486 -194.373965 
L 166.998059 -192.623499 
L 167.128146 -190.873033 
L 167.280988 -189.122568 
L 167.460574 -187.372102 
L 167.670528 -185.621636 
L 167.913985 -183.871171 
L 168.193482 -182.120705 
L 168.510855 -180.370239 
L 168.867144 -178.619774 
L 169.262518 -176.869308 
L 169.696219 -175.118843 
L 170.16652 -173.368377 
L 170.670709 -171.617911 
L 171.205096 -169.867446 
L 171.765045 -168.11698 
L 172.345028 -166.366514 
L 172.938705 -164.616049 
L 173.539026 -162.865583 
L 174.138355 -161.115117 
L 174.72861 -159.364652 
L 175.301419 -157.614186 
L 175.848291 -155.86372 
L 176.360786 -154.113255 
L 176.830697 -152.362789 
L 177.250225 -150.612323 
L 177.612144 -148.861858 
L 177.909964 -147.111392 
L 178.138068 -145.360926 
L 178.291838 -143.610461 
L 178.36775 -141.859995 
L 178.363449 -140.109529 
L 178.277795 -138.359064 
L 178.110877 -136.608598 
L 177.864004 -134.858132 
L 177.539662 -133.107667 
L 177.141448 -131.357201 
L 176.673977 -129.606736 
L 176.14277 -127.85627 
L 175.554125 -126.105804 
L 174.91497 -124.355339 
L 174.232714 -122.604873 
L 173.515085 -120.854407 
L 172.769975 -119.103942 
L 172.005288 -117.353476 
L 171.228787 -115.60301 
L 170.447968 -113.852545 
L 169.669933 -112.102079 
L 168.901293 -110.351613 
L 168.148075 -108.601148 
L 167.415663 -106.850682 
L 166.708748 -105.100216 
L 166.031298 -103.349751 
L 165.386556 -101.599285 
L 164.777042 -99.848819 
L 164.204577 -98.098354 
L 163.670322 -96.347888 
L 163.17482 -94.597422 
L 162.718057 -92.846957 
L 162.29952 -91.096491 
L 161.918265 -89.346025 
L 161.57298 -87.59556 
L 161.262058 -85.845094 
z
" id="m6b49755981" style="stroke:#3e3e3e;stroke-width:1.5;"/>
    </defs>
    <g clip-path="url(#p6a08a1c3b6)">
     <use style="fill:#cc834b;stroke:#3e3e3e;stroke-width:1.5;" x="0" xlink:href="#m6b49755981" y="367.274375"/>
    </g>
   </g>
   <g id="PolyCollection_4">
    <defs>
     <path d="M 226.718389 -75.22824 
L 225.857805 -75.22824 
L 225.779785 -75.987235 
L 225.691348 -76.746231 
L 225.591824 -77.505226 
L 225.480622 -78.264221 
L 225.357246 -79.023216 
L 225.221309 -79.782211 
L 225.072551 -80.541206 
L 224.910845 -81.300201 
L 224.736197 -82.059196 
L 224.548749 -82.818191 
L 224.348769 -83.577186 
L 224.136637 -84.336181 
L 223.912828 -85.095176 
L 223.677889 -85.854171 
L 223.432414 -86.613166 
L 223.17702 -87.372161 
L 222.912321 -88.131156 
L 222.638909 -88.890151 
L 222.357338 -89.649146 
L 222.068117 -90.408142 
L 221.77171 -91.167137 
L 221.46855 -91.926132 
L 221.159056 -92.685127 
L 220.843666 -93.444122 
L 220.522875 -94.203117 
L 220.197277 -94.962112 
L 219.867613 -95.721107 
L 219.534811 -96.480102 
L 219.200028 -97.239097 
L 218.86468 -97.998092 
L 218.530451 -98.757087 
L 218.199296 -99.516082 
L 217.873414 -100.275077 
L 217.55521 -101.034072 
L 217.247226 -101.793067 
L 216.952057 -102.552062 
L 216.672254 -103.311057 
L 216.410208 -104.070052 
L 216.16803 -104.829048 
L 215.947436 -105.588043 
L 215.749636 -106.347038 
L 215.575236 -107.106033 
L 215.42417 -107.865028 
L 215.295653 -108.624023 
L 215.188176 -109.383018 
L 215.09953 -110.142013 
L 215.026875 -110.901008 
L 214.966843 -111.660003 
L 214.915679 -112.418998 
L 214.869403 -113.177993 
L 214.824007 -113.936988 
L 214.775653 -114.695983 
L 214.720875 -115.454978 
L 214.656784 -116.213973 
L 214.581239 -116.972968 
L 214.493003 -117.731963 
L 214.391857 -118.490959 
L 214.278668 -119.249954 
L 214.155411 -120.008949 
L 214.025144 -120.767944 
L 213.891922 -121.526939 
L 213.760676 -122.285934 
L 213.637038 -123.044929 
L 213.52714 -123.803924 
L 213.437379 -124.562919 
L 213.374173 -125.321914 
L 213.343708 -126.080909 
L 213.351697 -126.839904 
L 213.403152 -127.598899 
L 213.502186 -128.357894 
L 213.651853 -129.116889 
L 213.854024 -129.875884 
L 214.109317 -130.634879 
L 214.417072 -131.393874 
L 214.775376 -132.152869 
L 215.181129 -132.911865 
L 215.630159 -133.67086 
L 216.117364 -134.429855 
L 216.636889 -135.18885 
L 217.182315 -135.947845 
L 217.74686 -136.70684 
L 218.323589 -137.465835 
L 218.905604 -138.22483 
L 219.486232 -138.983825 
L 220.059189 -139.74282 
L 220.618717 -140.501815 
L 221.159693 -141.26081 
L 221.677714 -142.019805 
L 222.169146 -142.7788 
L 222.631146 -143.537795 
L 223.061654 -144.29679 
L 223.459368 -145.055785 
L 223.823689 -145.81478 
L 224.154662 -146.573776 
L 224.452894 -147.332771 
L 224.719469 -148.091766 
L 224.955865 -148.850761 
L 225.16386 -149.609756 
L 225.345452 -150.368751 
L 227.230742 -150.368751 
L 227.230742 -150.368751 
L 227.412335 -149.609756 
L 227.62033 -148.850761 
L 227.856725 -148.091766 
L 228.1233 -147.332771 
L 228.421532 -146.573776 
L 228.752505 -145.81478 
L 229.116827 -145.055785 
L 229.51454 -144.29679 
L 229.945048 -143.537795 
L 230.407048 -142.7788 
L 230.898481 -142.019805 
L 231.416502 -141.26081 
L 231.957478 -140.501815 
L 232.517005 -139.74282 
L 233.089962 -138.983825 
L 233.670591 -138.22483 
L 234.252606 -137.465835 
L 234.829334 -136.70684 
L 235.39388 -135.947845 
L 235.939305 -135.18885 
L 236.45883 -134.429855 
L 236.946036 -133.67086 
L 237.395065 -132.911865 
L 237.800818 -132.152869 
L 238.159122 -131.393874 
L 238.466877 -130.634879 
L 238.722171 -129.875884 
L 238.924341 -129.116889 
L 239.074008 -128.357894 
L 239.173043 -127.598899 
L 239.224498 -126.839904 
L 239.232487 -126.080909 
L 239.202022 -125.321914 
L 239.138815 -124.562919 
L 239.049054 -123.803924 
L 238.939156 -123.044929 
L 238.815519 -122.285934 
L 238.684273 -121.526939 
L 238.551051 -120.767944 
L 238.420783 -120.008949 
L 238.297527 -119.249954 
L 238.184337 -118.490959 
L 238.083191 -117.731963 
L 237.994956 -116.972968 
L 237.919411 -116.213973 
L 237.855319 -115.454978 
L 237.800542 -114.695983 
L 237.752187 -113.936988 
L 237.706791 -113.177993 
L 237.660516 -112.418998 
L 237.609351 -111.660003 
L 237.549319 -110.901008 
L 237.476664 -110.142013 
L 237.388018 -109.383018 
L 237.280541 -108.624023 
L 237.152025 -107.865028 
L 237.000958 -107.106033 
L 236.826558 -106.347038 
L 236.628758 -105.588043 
L 236.408165 -104.829048 
L 236.165987 -104.070052 
L 235.90394 -103.311057 
L 235.624137 -102.552062 
L 235.328969 -101.793067 
L 235.020984 -101.034072 
L 234.70278 -100.275077 
L 234.376899 -99.516082 
L 234.045743 -98.757087 
L 233.711514 -97.998092 
L 233.376166 -97.239097 
L 233.041384 -96.480102 
L 232.708582 -95.721107 
L 232.378917 -94.962112 
L 232.053319 -94.203117 
L 231.732528 -93.444122 
L 231.417138 -92.685127 
L 231.107644 -91.926132 
L 230.804484 -91.167137 
L 230.508078 -90.408142 
L 230.218857 -89.649146 
L 229.937286 -88.890151 
L 229.663874 -88.131156 
L 229.399175 -87.372161 
L 229.143781 -86.613166 
L 228.898306 -85.854171 
L 228.663367 -85.095176 
L 228.439558 -84.336181 
L 228.227426 -83.577186 
L 228.027445 -82.818191 
L 227.839998 -82.059196 
L 227.66535 -81.300201 
L 227.503643 -80.541206 
L 227.354886 -79.782211 
L 227.218949 -79.023216 
L 227.095572 -78.264221 
L 226.98437 -77.505226 
L 226.884847 -76.746231 
L 226.79641 -75.987235 
L 226.718389 -75.22824 
z
" id="md64abdc2d8" style="stroke:#3e3e3e;stroke-width:1.5;"/>
    </defs>
    <g clip-path="url(#p6a08a1c3b6)">
     <use style="fill:#417192;stroke:#3e3e3e;stroke-width:1.5;" x="0" xlink:href="#md64abdc2d8" y="367.274375"/>
    </g>
   </g>
   <g id="PolyCollection_5">
    <defs>
     <path d="M 265.065589 -78.059289 
L 264.183161 -78.059289 
L 264.100975 -78.729632 
L 264.007905 -79.399974 
L 263.903429 -80.070317 
L 263.787176 -80.740659 
L 263.658954 -81.411002 
L 263.518779 -82.081344 
L 263.366891 -82.751687 
L 263.203767 -83.422029 
L 263.030124 -84.092372 
L 262.84691 -84.762715 
L 262.655284 -85.433057 
L 262.456585 -86.1034 
L 262.252292 -86.773742 
L 262.043973 -87.444085 
L 261.833222 -88.114427 
L 261.621603 -88.78477 
L 261.410579 -89.455112 
L 261.201453 -90.125455 
L 260.995314 -90.795797 
L 260.792989 -91.46614 
L 260.595014 -92.136482 
L 260.401618 -92.806825 
L 260.212723 -93.477167 
L 260.027966 -94.14751 
L 259.846737 -94.817852 
L 259.668229 -95.488195 
L 259.491505 -96.158537 
L 259.315565 -96.82888 
L 259.139421 -97.499222 
L 258.962161 -98.169565 
L 258.783011 -98.839907 
L 258.601371 -99.51025 
L 258.416842 -100.180592 
L 258.229218 -100.850935 
L 258.038466 -101.521277 
L 257.844668 -102.19162 
L 257.647956 -102.861962 
L 257.448413 -103.532305 
L 257.24598 -104.202647 
L 257.040346 -104.87299 
L 256.830853 -105.543333 
L 256.616406 -106.213675 
L 256.395423 -106.884018 
L 256.165795 -107.55436 
L 255.924907 -108.224703 
L 255.669685 -108.895045 
L 255.396703 -109.565388 
L 255.10232 -110.23573 
L 254.782871 -110.906073 
L 254.434888 -111.576415 
L 254.055338 -112.246758 
L 253.641887 -112.9171 
L 253.19315 -113.587443 
L 252.708933 -114.257785 
L 252.190437 -114.928128 
L 251.640427 -115.59847 
L 251.063327 -116.268813 
L 250.465262 -116.939155 
L 249.854015 -117.609498 
L 249.238908 -118.27984 
L 248.630607 -118.950183 
L 248.04085 -119.620525 
L 247.482116 -120.290868 
L 246.967242 -120.96121 
L 246.509001 -121.631553 
L 246.119671 -122.301895 
L 245.810601 -122.972238 
L 245.591804 -123.64258 
L 245.471585 -124.312923 
L 245.456236 -124.983265 
L 245.549799 -125.653608 
L 245.75391 -126.323951 
L 246.067735 -126.994293 
L 246.488001 -127.664636 
L 247.009106 -128.334978 
L 247.623319 -129.005321 
L 248.321048 -129.675663 
L 249.091168 -130.346006 
L 249.921388 -131.016348 
L 250.798643 -131.686691 
L 251.709497 -132.357033 
L 252.640533 -133.027376 
L 253.57872 -133.697718 
L 254.511741 -134.368061 
L 255.428274 -135.038403 
L 256.318216 -135.708746 
L 257.172849 -136.379088 
L 257.984945 -137.049431 
L 258.748806 -137.719773 
L 259.46026 -138.390116 
L 260.116594 -139.060458 
L 260.716464 -139.730801 
L 261.259754 -140.401143 
L 261.747427 -141.071486 
L 262.181353 -141.741828 
L 262.564138 -142.412171 
L 262.898947 -143.082513 
L 263.189342 -143.752856 
L 263.439131 -144.423198 
L 265.809619 -144.423198 
L 265.809619 -144.423198 
L 266.059408 -143.752856 
L 266.349803 -143.082513 
L 266.684612 -142.412171 
L 267.067397 -141.741828 
L 267.501323 -141.071486 
L 267.988996 -140.401143 
L 268.532286 -139.730801 
L 269.132156 -139.060458 
L 269.78849 -138.390116 
L 270.499944 -137.719773 
L 271.263805 -137.049431 
L 272.075901 -136.379088 
L 272.930534 -135.708746 
L 273.820476 -135.038403 
L 274.737009 -134.368061 
L 275.67003 -133.697718 
L 276.608217 -133.027376 
L 277.539253 -132.357033 
L 278.450107 -131.686691 
L 279.327362 -131.016348 
L 280.157582 -130.346006 
L 280.927702 -129.675663 
L 281.625431 -129.005321 
L 282.239644 -128.334978 
L 282.760749 -127.664636 
L 283.181015 -126.994293 
L 283.49484 -126.323951 
L 283.698951 -125.653608 
L 283.792514 -124.983265 
L 283.777165 -124.312923 
L 283.656946 -123.64258 
L 283.438149 -122.972238 
L 283.129079 -122.301895 
L 282.739749 -121.631553 
L 282.281508 -120.96121 
L 281.766634 -120.290868 
L 281.2079 -119.620525 
L 280.618143 -118.950183 
L 280.009842 -118.27984 
L 279.394735 -117.609498 
L 278.783488 -116.939155 
L 278.185423 -116.268813 
L 277.608323 -115.59847 
L 277.058313 -114.928128 
L 276.539817 -114.257785 
L 276.0556 -113.587443 
L 275.606863 -112.9171 
L 275.193412 -112.246758 
L 274.813862 -111.576415 
L 274.465879 -110.906073 
L 274.14643 -110.23573 
L 273.852047 -109.565388 
L 273.579065 -108.895045 
L 273.323843 -108.224703 
L 273.082955 -107.55436 
L 272.853327 -106.884018 
L 272.632344 -106.213675 
L 272.417897 -105.543333 
L 272.208404 -104.87299 
L 272.00277 -104.202647 
L 271.800337 -103.532305 
L 271.600794 -102.861962 
L 271.404082 -102.19162 
L 271.210284 -101.521277 
L 271.019532 -100.850935 
L 270.831908 -100.180592 
L 270.647379 -99.51025 
L 270.465739 -98.839907 
L 270.286589 -98.169565 
L 270.109329 -97.499222 
L 269.933185 -96.82888 
L 269.757245 -96.158537 
L 269.580521 -95.488195 
L 269.402013 -94.817852 
L 269.220784 -94.14751 
L 269.036027 -93.477167 
L 268.847132 -92.806825 
L 268.653736 -92.136482 
L 268.455761 -91.46614 
L 268.253436 -90.795797 
L 268.047297 -90.125455 
L 267.838171 -89.455112 
L 267.627147 -88.78477 
L 267.415528 -88.114427 
L 267.204777 -87.444085 
L 266.996458 -86.773742 
L 266.792165 -86.1034 
L 266.593466 -85.433057 
L 266.40184 -84.762715 
L 266.218626 -84.092372 
L 266.044983 -83.422029 
L 265.881859 -82.751687 
L 265.729971 -82.081344 
L 265.589796 -81.411002 
L 265.461574 -80.740659 
L 265.345321 -80.070317 
L 265.240845 -79.399974 
L 265.147775 -78.729632 
L 265.065589 -78.059289 
z
" id="m4e074db117" style="stroke:#3e3e3e;stroke-width:1.5;"/>
    </defs>
    <g clip-path="url(#p6a08a1c3b6)">
     <use style="fill:#468746;stroke:#3e3e3e;stroke-width:1.5;" x="0" xlink:href="#m4e074db117" y="367.274375"/>
    </g>
   </g>
   <g id="PolyCollection_6">
    <defs>
     <path d="M 303.514989 -51.528977 
L 302.406317 -51.528977 
L 302.321704 -52.536041 
L 302.227596 -53.543105 
L 302.12351 -54.55017 
L 302.00903 -55.557234 
L 301.883822 -56.564298 
L 301.747647 -57.571362 
L 301.600375 -58.578426 
L 301.441997 -59.58549 
L 301.272633 -60.592554 
L 301.09254 -61.599618 
L 300.902117 -62.606682 
L 300.701904 -63.613746 
L 300.492584 -64.62081 
L 300.27497 -65.627875 
L 300.050001 -66.634939 
L 299.818727 -67.642003 
L 299.58229 -68.649067 
L 299.341907 -69.656131 
L 299.098847 -70.663195 
L 298.854406 -71.670259 
L 298.609882 -72.677323 
L 298.36655 -73.684387 
L 298.125636 -74.691451 
L 297.888292 -75.698515 
L 297.655575 -76.70558 
L 297.428426 -77.712644 
L 297.207654 -78.719708 
L 296.993923 -79.726772 
L 296.787742 -80.733836 
L 296.589462 -81.7409 
L 296.399276 -82.747964 
L 296.217223 -83.755028 
L 296.043196 -84.762092 
L 295.876956 -85.769156 
L 295.718145 -86.77622 
L 295.56631 -87.783285 
L 295.420923 -88.790349 
L 295.281402 -89.797413 
L 295.147141 -90.804477 
L 295.017536 -91.811541 
L 294.892008 -92.818605 
L 294.770033 -93.825669 
L 294.651165 -94.832733 
L 294.535062 -95.839797 
L 294.421507 -96.846861 
L 294.310426 -97.853926 
L 294.201905 -98.86099 
L 294.096204 -99.868054 
L 293.99376 -100.875118 
L 293.895198 -101.882182 
L 293.801324 -102.889246 
L 293.713121 -103.89631 
L 293.631736 -104.903374 
L 293.558465 -105.910438 
L 293.494729 -106.917502 
L 293.442045 -107.924566 
L 293.401999 -108.931631 
L 293.376204 -109.938695 
L 293.366268 -110.945759 
L 293.373746 -111.952823 
L 293.400102 -112.959887 
L 293.446667 -113.966951 
L 293.514595 -114.974015 
L 293.604829 -115.981079 
L 293.718063 -116.988143 
L 293.854719 -117.995207 
L 294.014915 -119.002271 
L 294.198459 -120.009336 
L 294.404831 -121.0164 
L 294.633193 -122.023464 
L 294.882388 -123.030528 
L 295.150961 -124.037592 
L 295.437181 -125.044656 
L 295.739071 -126.05172 
L 296.054446 -127.058784 
L 296.380952 -128.065848 
L 296.716112 -129.072912 
L 297.057374 -130.079976 
L 297.402156 -131.087041 
L 297.747897 -132.094105 
L 298.092099 -133.101169 
L 298.43237 -134.108233 
L 298.766466 -135.115297 
L 299.092317 -136.122361 
L 299.40806 -137.129425 
L 299.712058 -138.136489 
L 300.002916 -139.143553 
L 300.279486 -140.150617 
L 300.540876 -141.157681 
L 300.786439 -142.164746 
L 301.01577 -143.17181 
L 301.22869 -144.178874 
L 301.425231 -145.185938 
L 301.605613 -146.193002 
L 301.770225 -147.200066 
L 301.9196 -148.20713 
L 302.054391 -149.214194 
L 302.175347 -150.221258 
L 302.28329 -151.228322 
L 303.638015 -151.228322 
L 303.638015 -151.228322 
L 303.745958 -150.221258 
L 303.866914 -149.214194 
L 304.001706 -148.20713 
L 304.151081 -147.200066 
L 304.315693 -146.193002 
L 304.496074 -145.185938 
L 304.692615 -144.178874 
L 304.905535 -143.17181 
L 305.134866 -142.164746 
L 305.38043 -141.157681 
L 305.641819 -140.150617 
L 305.91839 -139.143553 
L 306.209247 -138.136489 
L 306.513246 -137.129425 
L 306.828989 -136.122361 
L 307.15484 -135.115297 
L 307.488935 -134.108233 
L 307.829207 -133.101169 
L 308.173409 -132.094105 
L 308.51915 -131.087041 
L 308.863932 -130.079976 
L 309.205194 -129.072912 
L 309.540354 -128.065848 
L 309.866859 -127.058784 
L 310.182234 -126.05172 
L 310.484124 -125.044656 
L 310.770344 -124.037592 
L 311.038917 -123.030528 
L 311.288112 -122.023464 
L 311.516474 -121.0164 
L 311.722847 -120.009336 
L 311.90639 -119.002271 
L 312.066587 -117.995207 
L 312.203242 -116.988143 
L 312.316477 -115.981079 
L 312.406711 -114.974015 
L 312.474639 -113.966951 
L 312.521203 -112.959887 
L 312.547559 -111.952823 
L 312.555037 -110.945759 
L 312.545101 -109.938695 
L 312.519307 -108.931631 
L 312.47926 -107.924566 
L 312.426577 -106.917502 
L 312.36284 -105.910438 
L 312.289569 -104.903374 
L 312.208185 -103.89631 
L 312.119981 -102.889246 
L 312.026107 -101.882182 
L 311.927546 -100.875118 
L 311.825102 -99.868054 
L 311.7194 -98.86099 
L 311.610879 -97.853926 
L 311.499798 -96.846861 
L 311.386243 -95.839797 
L 311.27014 -94.832733 
L 311.151273 -93.825669 
L 311.029297 -92.818605 
L 310.903769 -91.811541 
L 310.774164 -90.804477 
L 310.639904 -89.797413 
L 310.500383 -88.790349 
L 310.354995 -87.783285 
L 310.203161 -86.77622 
L 310.04435 -85.769156 
L 309.878109 -84.762092 
L 309.704082 -83.755028 
L 309.522029 -82.747964 
L 309.331844 -81.7409 
L 309.133564 -80.733836 
L 308.927383 -79.726772 
L 308.713651 -78.719708 
L 308.492879 -77.712644 
L 308.26573 -76.70558 
L 308.033014 -75.698515 
L 307.79567 -74.691451 
L 307.554756 -73.684387 
L 307.311424 -72.677323 
L 307.0669 -71.670259 
L 306.822459 -70.663195 
L 306.579399 -69.656131 
L 306.339016 -68.649067 
L 306.102579 -67.642003 
L 305.871304 -66.634939 
L 305.646336 -65.627875 
L 305.428722 -64.62081 
L 305.219401 -63.613746 
L 305.019189 -62.606682 
L 304.828766 -61.599618 
L 304.648673 -60.592554 
L 304.479308 -59.58549 
L 304.32093 -58.578426 
L 304.173658 -57.571362 
L 304.037484 -56.564298 
L 303.912276 -55.557234 
L 303.797796 -54.55017 
L 303.69371 -53.543105 
L 303.599602 -52.536041 
L 303.514989 -51.528977 
z
" id="md34436bf12" style="stroke:#3e3e3e;stroke-width:1.5;"/>
    </defs>
    <g clip-path="url(#p6a08a1c3b6)">
     <use style="fill:#cc834b;stroke:#3e3e3e;stroke-width:1.5;" x="0" xlink:href="#md34436bf12" y="367.274375"/>
    </g>
   </g>
   <g id="patch_3">
    <path clip-path="url(#p6a08a1c3b6)" d="M 120.863333 235.269775 
L 120.863333 235.269775 
L 120.863333 235.269775 
L 120.863333 235.269775 
z
" style="fill:#417192;stroke:#3e3e3e;stroke-linejoin:miter;stroke-width:0.75;"/>
   </g>
   <g id="patch_4">
    <path clip-path="url(#p6a08a1c3b6)" d="M 120.863333 235.269775 
L 120.863333 235.269775 
L 120.863333 235.269775 
L 120.863333 235.269775 
z
" style="fill:#468746;stroke:#3e3e3e;stroke-linejoin:miter;stroke-width:0.75;"/>
   </g>
   <g id="patch_5">
    <path clip-path="url(#p6a08a1c3b6)" d="M 120.863333 235.269775 
L 120.863333 235.269775 
L 120.863333 235.269775 
L 120.863333 235.269775 
z
" style="fill:#cc834b;stroke:#3e3e3e;stroke-linejoin:miter;stroke-width:0.75;"/>
   </g>
   <g id="matplotlib.axis_1">
    <g id="xtick_1">
     <g id="line2d_1">
      <defs>
       <path d="M 0 0 
L 0 3.5 
" id="mfa29701546" style="stroke:#000000;stroke-width:0.8;"/>
      </defs>
      <g>
       <use style="stroke:#000000;stroke-width:0.8;" x="120.863333" xlink:href="#mfa29701546" y="329.718125"/>
      </g>
     </g>
     <g id="text_1">
      <!-- Non-Canonical+ -->
      <defs>
       <path d="M 9.8125 72.90625 
L 23.09375 72.90625 
L 55.421875 11.921875 
L 55.421875 72.90625 
L 64.984375 72.90625 
L 64.984375 0 
L 51.703125 0 
L 19.390625 60.984375 
L 19.390625 0 
L 9.8125 0 
z
" id="DejaVuSans-78"/>
       <path d="M 30.609375 48.390625 
Q 23.390625 48.390625 19.1875 42.75 
Q 14.984375 37.109375 14.984375 27.296875 
Q 14.984375 17.484375 19.15625 11.84375 
Q 23.34375 6.203125 30.609375 6.203125 
Q 37.796875 6.203125 41.984375 11.859375 
Q 46.1875 17.53125 46.1875 27.296875 
Q 46.1875 37.015625 41.984375 42.703125 
Q 37.796875 48.390625 30.609375 48.390625 
z
M 30.609375 56 
Q 42.328125 56 49.015625 48.375 
Q 55.71875 40.765625 55.71875 27.296875 
Q 55.71875 13.875 49.015625 6.21875 
Q 42.328125 -1.421875 30.609375 -1.421875 
Q 18.84375 -1.421875 12.171875 6.21875 
Q 5.515625 13.875 5.515625 27.296875 
Q 5.515625 40.765625 12.171875 48.375 
Q 18.84375 56 30.609375 56 
z
" id="DejaVuSans-111"/>
       <path d="M 54.890625 33.015625 
L 54.890625 0 
L 45.90625 0 
L 45.90625 32.71875 
Q 45.90625 40.484375 42.875 44.328125 
Q 39.84375 48.1875 33.796875 48.1875 
Q 26.515625 48.1875 22.3125 43.546875 
Q 18.109375 38.921875 18.109375 30.90625 
L 18.109375 0 
L 9.078125 0 
L 9.078125 54.6875 
L 18.109375 54.6875 
L 18.109375 46.1875 
Q 21.34375 51.125 25.703125 53.5625 
Q 30.078125 56 35.796875 56 
Q 45.21875 56 50.046875 50.171875 
Q 54.890625 44.34375 54.890625 33.015625 
z
" id="DejaVuSans-110"/>
       <path d="M 4.890625 31.390625 
L 31.203125 31.390625 
L 31.203125 23.390625 
L 4.890625 23.390625 
z
" id="DejaVuSans-45"/>
       <path d="M 64.40625 67.28125 
L 64.40625 56.890625 
Q 59.421875 61.53125 53.78125 63.8125 
Q 48.140625 66.109375 41.796875 66.109375 
Q 29.296875 66.109375 22.65625 58.46875 
Q 16.015625 50.828125 16.015625 36.375 
Q 16.015625 21.96875 22.65625 14.328125 
Q 29.296875 6.6875 41.796875 6.6875 
Q 48.140625 6.6875 53.78125 8.984375 
Q 59.421875 11.28125 64.40625 15.921875 
L 64.40625 5.609375 
Q 59.234375 2.09375 53.4375 0.328125 
Q 47.65625 -1.421875 41.21875 -1.421875 
Q 24.65625 -1.421875 15.125 8.703125 
Q 5.609375 18.84375 5.609375 36.375 
Q 5.609375 53.953125 15.125 64.078125 
Q 24.65625 74.21875 41.21875 74.21875 
Q 47.75 74.21875 53.53125 72.484375 
Q 59.328125 70.75 64.40625 67.28125 
z
" id="DejaVuSans-67"/>
       <path d="M 34.28125 27.484375 
Q 23.390625 27.484375 19.1875 25 
Q 14.984375 22.515625 14.984375 16.5 
Q 14.984375 11.71875 18.140625 8.90625 
Q 21.296875 6.109375 26.703125 6.109375 
Q 34.1875 6.109375 38.703125 11.40625 
Q 43.21875 16.703125 43.21875 25.484375 
L 43.21875 27.484375 
z
M 52.203125 31.203125 
L 52.203125 0 
L 43.21875 0 
L 43.21875 8.296875 
Q 40.140625 3.328125 35.546875 0.953125 
Q 30.953125 -1.421875 24.3125 -1.421875 
Q 15.921875 -1.421875 10.953125 3.296875 
Q 6 8.015625 6 15.921875 
Q 6 25.140625 12.171875 29.828125 
Q 18.359375 34.515625 30.609375 34.515625 
L 43.21875 34.515625 
L 43.21875 35.40625 
Q 43.21875 41.609375 39.140625 45 
Q 35.0625 48.390625 27.6875 48.390625 
Q 23 48.390625 18.546875 47.265625 
Q 14.109375 46.140625 10.015625 43.890625 
L 10.015625 52.203125 
Q 14.9375 54.109375 19.578125 55.046875 
Q 24.21875 56 28.609375 56 
Q 40.484375 56 46.34375 49.84375 
Q 52.203125 43.703125 52.203125 31.203125 
z
" id="DejaVuSans-97"/>
       <path d="M 9.421875 54.6875 
L 18.40625 54.6875 
L 18.40625 0 
L 9.421875 0 
z
M 9.421875 75.984375 
L 18.40625 75.984375 
L 18.40625 64.59375 
L 9.421875 64.59375 
z
" id="DejaVuSans-105"/>
       <path d="M 48.78125 52.59375 
L 48.78125 44.1875 
Q 44.96875 46.296875 41.140625 47.34375 
Q 37.3125 48.390625 33.40625 48.390625 
Q 24.65625 48.390625 19.8125 42.84375 
Q 14.984375 37.3125 14.984375 27.296875 
Q 14.984375 17.28125 19.8125 11.734375 
Q 24.65625 6.203125 33.40625 6.203125 
Q 37.3125 6.203125 41.140625 7.25 
Q 44.96875 8.296875 48.78125 10.40625 
L 48.78125 2.09375 
Q 45.015625 0.34375 40.984375 -0.53125 
Q 36.96875 -1.421875 32.421875 -1.421875 
Q 20.0625 -1.421875 12.78125 6.34375 
Q 5.515625 14.109375 5.515625 27.296875 
Q 5.515625 40.671875 12.859375 48.328125 
Q 20.21875 56 33.015625 56 
Q 37.15625 56 41.109375 55.140625 
Q 45.0625 54.296875 48.78125 52.59375 
z
" id="DejaVuSans-99"/>
       <path d="M 9.421875 75.984375 
L 18.40625 75.984375 
L 18.40625 0 
L 9.421875 0 
z
" id="DejaVuSans-108"/>
       <path d="M 46 62.703125 
L 46 35.5 
L 73.1875 35.5 
L 73.1875 27.203125 
L 46 27.203125 
L 46 0 
L 37.796875 0 
L 37.796875 27.203125 
L 10.59375 27.203125 
L 10.59375 35.5 
L 37.796875 35.5 
L 37.796875 62.703125 
z
" id="DejaVuSans-43"/>
      </defs>
      <g transform="translate(80.357083 344.316562)scale(0.1 -0.1)">
       <use xlink:href="#DejaVuSans-78"/>
       <use x="74.804688" xlink:href="#DejaVuSans-111"/>
       <use x="135.986328" xlink:href="#DejaVuSans-110"/>
       <use x="199.365234" xlink:href="#DejaVuSans-45"/>
       <use x="235.449219" xlink:href="#DejaVuSans-67"/>
       <use x="305.273438" xlink:href="#DejaVuSans-97"/>
       <use x="366.552734" xlink:href="#DejaVuSans-110"/>
       <use x="429.931641" xlink:href="#DejaVuSans-111"/>
       <use x="491.113281" xlink:href="#DejaVuSans-110"/>
       <use x="554.492188" xlink:href="#DejaVuSans-105"/>
       <use x="582.275391" xlink:href="#DejaVuSans-99"/>
       <use x="637.255859" xlink:href="#DejaVuSans-97"/>
       <use x="698.535156" xlink:href="#DejaVuSans-108"/>
       <use x="726.318359" xlink:href="#DejaVuSans-43"/>
      </g>
     </g>
    </g>
    <g id="xtick_2">
     <g id="line2d_2">
      <g>
       <use style="stroke:#000000;stroke-width:0.8;" x="264.624375" xlink:href="#mfa29701546" y="329.718125"/>
      </g>
     </g>
     <g id="text_2">
      <!-- Non-Canonical- -->
      <g transform="translate(226.504062 344.316562)scale(0.1 -0.1)">
       <use xlink:href="#DejaVuSans-78"/>
       <use x="74.804688" xlink:href="#DejaVuSans-111"/>
       <use x="135.986328" xlink:href="#DejaVuSans-110"/>
       <use x="199.365234" xlink:href="#DejaVuSans-45"/>
       <use x="235.449219" xlink:href="#DejaVuSans-67"/>
       <use x="305.273438" xlink:href="#DejaVuSans-97"/>
       <use x="366.552734" xlink:href="#DejaVuSans-110"/>
       <use x="429.931641" xlink:href="#DejaVuSans-111"/>
       <use x="491.113281" xlink:href="#DejaVuSans-110"/>
       <use x="554.492188" xlink:href="#DejaVuSans-105"/>
       <use x="582.275391" xlink:href="#DejaVuSans-99"/>
       <use x="637.255859" xlink:href="#DejaVuSans-97"/>
       <use x="698.535156" xlink:href="#DejaVuSans-108"/>
       <use x="726.318359" xlink:href="#DejaVuSans-45"/>
      </g>
     </g>
    </g>
    <g id="text_3">
     <!-- Gene set expansions (+) or contractions (-) -->
     <defs>
      <path d="M 59.515625 10.40625 
L 59.515625 29.984375 
L 43.40625 29.984375 
L 43.40625 38.09375 
L 69.28125 38.09375 
L 69.28125 6.78125 
Q 63.578125 2.734375 56.6875 0.65625 
Q 49.8125 -1.421875 42 -1.421875 
Q 24.90625 -1.421875 15.25 8.5625 
Q 5.609375 18.5625 5.609375 36.375 
Q 5.609375 54.25 15.25 64.234375 
Q 24.90625 74.21875 42 74.21875 
Q 49.125 74.21875 55.546875 72.453125 
Q 61.96875 70.703125 67.390625 67.28125 
L 67.390625 56.78125 
Q 61.921875 61.421875 55.765625 63.765625 
Q 49.609375 66.109375 42.828125 66.109375 
Q 29.4375 66.109375 22.71875 58.640625 
Q 16.015625 51.171875 16.015625 36.375 
Q 16.015625 21.625 22.71875 14.15625 
Q 29.4375 6.6875 42.828125 6.6875 
Q 48.046875 6.6875 52.140625 7.59375 
Q 56.25 8.5 59.515625 10.40625 
z
" id="DejaVuSans-71"/>
      <path d="M 56.203125 29.59375 
L 56.203125 25.203125 
L 14.890625 25.203125 
Q 15.484375 15.921875 20.484375 11.0625 
Q 25.484375 6.203125 34.421875 6.203125 
Q 39.59375 6.203125 44.453125 7.46875 
Q 49.3125 8.734375 54.109375 11.28125 
L 54.109375 2.78125 
Q 49.265625 0.734375 44.1875 -0.34375 
Q 39.109375 -1.421875 33.890625 -1.421875 
Q 20.796875 -1.421875 13.15625 6.1875 
Q 5.515625 13.8125 5.515625 26.8125 
Q 5.515625 40.234375 12.765625 48.109375 
Q 20.015625 56 32.328125 56 
Q 43.359375 56 49.78125 48.890625 
Q 56.203125 41.796875 56.203125 29.59375 
z
M 47.21875 32.234375 
Q 47.125 39.59375 43.09375 43.984375 
Q 39.0625 48.390625 32.421875 48.390625 
Q 24.90625 48.390625 20.390625 44.140625 
Q 15.875 39.890625 15.1875 32.171875 
z
" id="DejaVuSans-101"/>
      <path id="DejaVuSans-32"/>
      <path d="M 44.28125 53.078125 
L 44.28125 44.578125 
Q 40.484375 46.53125 36.375 47.5 
Q 32.28125 48.484375 27.875 48.484375 
Q 21.1875 48.484375 17.84375 46.4375 
Q 14.5 44.390625 14.5 40.28125 
Q 14.5 37.15625 16.890625 35.375 
Q 19.28125 33.59375 26.515625 31.984375 
L 29.59375 31.296875 
Q 39.15625 29.25 43.1875 25.515625 
Q 47.21875 21.78125 47.21875 15.09375 
Q 47.21875 7.46875 41.1875 3.015625 
Q 35.15625 -1.421875 24.609375 -1.421875 
Q 20.21875 -1.421875 15.453125 -0.5625 
Q 10.6875 0.296875 5.421875 2 
L 5.421875 11.28125 
Q 10.40625 8.6875 15.234375 7.390625 
Q 20.0625 6.109375 24.8125 6.109375 
Q 31.15625 6.109375 34.5625 8.28125 
Q 37.984375 10.453125 37.984375 14.40625 
Q 37.984375 18.0625 35.515625 20.015625 
Q 33.0625 21.96875 24.703125 23.78125 
L 21.578125 24.515625 
Q 13.234375 26.265625 9.515625 29.90625 
Q 5.8125 33.546875 5.8125 39.890625 
Q 5.8125 47.609375 11.28125 51.796875 
Q 16.75 56 26.8125 56 
Q 31.78125 56 36.171875 55.265625 
Q 40.578125 54.546875 44.28125 53.078125 
z
" id="DejaVuSans-115"/>
      <path d="M 18.3125 70.21875 
L 18.3125 54.6875 
L 36.8125 54.6875 
L 36.8125 47.703125 
L 18.3125 47.703125 
L 18.3125 18.015625 
Q 18.3125 11.328125 20.140625 9.421875 
Q 21.96875 7.515625 27.59375 7.515625 
L 36.8125 7.515625 
L 36.8125 0 
L 27.59375 0 
Q 17.1875 0 13.234375 3.875 
Q 9.28125 7.765625 9.28125 18.015625 
L 9.28125 47.703125 
L 2.6875 47.703125 
L 2.6875 54.6875 
L 9.28125 54.6875 
L 9.28125 70.21875 
z
" id="DejaVuSans-116"/>
      <path d="M 54.890625 54.6875 
L 35.109375 28.078125 
L 55.90625 0 
L 45.3125 0 
L 29.390625 21.484375 
L 13.484375 0 
L 2.875 0 
L 24.125 28.609375 
L 4.6875 54.6875 
L 15.28125 54.6875 
L 29.78125 35.203125 
L 44.28125 54.6875 
z
" id="DejaVuSans-120"/>
      <path d="M 18.109375 8.203125 
L 18.109375 -20.796875 
L 9.078125 -20.796875 
L 9.078125 54.6875 
L 18.109375 54.6875 
L 18.109375 46.390625 
Q 20.953125 51.265625 25.265625 53.625 
Q 29.59375 56 35.59375 56 
Q 45.5625 56 51.78125 48.09375 
Q 58.015625 40.1875 58.015625 27.296875 
Q 58.015625 14.40625 51.78125 6.484375 
Q 45.5625 -1.421875 35.59375 -1.421875 
Q 29.59375 -1.421875 25.265625 0.953125 
Q 20.953125 3.328125 18.109375 8.203125 
z
M 48.6875 27.296875 
Q 48.6875 37.203125 44.609375 42.84375 
Q 40.53125 48.484375 33.40625 48.484375 
Q 26.265625 48.484375 22.1875 42.84375 
Q 18.109375 37.203125 18.109375 27.296875 
Q 18.109375 17.390625 22.1875 11.75 
Q 26.265625 6.109375 33.40625 6.109375 
Q 40.53125 6.109375 44.609375 11.75 
Q 48.6875 17.390625 48.6875 27.296875 
z
" id="DejaVuSans-112"/>
      <path d="M 31 75.875 
Q 24.46875 64.65625 21.28125 53.65625 
Q 18.109375 42.671875 18.109375 31.390625 
Q 18.109375 20.125 21.3125 9.0625 
Q 24.515625 -2 31 -13.1875 
L 23.1875 -13.1875 
Q 15.875 -1.703125 12.234375 9.375 
Q 8.59375 20.453125 8.59375 31.390625 
Q 8.59375 42.28125 12.203125 53.3125 
Q 15.828125 64.359375 23.1875 75.875 
z
" id="DejaVuSans-40"/>
      <path d="M 8.015625 75.875 
L 15.828125 75.875 
Q 23.140625 64.359375 26.78125 53.3125 
Q 30.421875 42.28125 30.421875 31.390625 
Q 30.421875 20.453125 26.78125 9.375 
Q 23.140625 -1.703125 15.828125 -13.1875 
L 8.015625 -13.1875 
Q 14.5 -2 17.703125 9.0625 
Q 20.90625 20.125 20.90625 31.390625 
Q 20.90625 42.671875 17.703125 53.65625 
Q 14.5 64.65625 8.015625 75.875 
z
" id="DejaVuSans-41"/>
      <path d="M 41.109375 46.296875 
Q 39.59375 47.171875 37.8125 47.578125 
Q 36.03125 48 33.890625 48 
Q 26.265625 48 22.1875 43.046875 
Q 18.109375 38.09375 18.109375 28.8125 
L 18.109375 0 
L 9.078125 0 
L 9.078125 54.6875 
L 18.109375 54.6875 
L 18.109375 46.1875 
Q 20.953125 51.171875 25.484375 53.578125 
Q 30.03125 56 36.53125 56 
Q 37.453125 56 38.578125 55.875 
Q 39.703125 55.765625 41.0625 55.515625 
z
" id="DejaVuSans-114"/>
     </defs>
     <g transform="translate(84.203229 357.994687)scale(0.1 -0.1)">
      <use xlink:href="#DejaVuSans-71"/>
      <use x="77.490234" xlink:href="#DejaVuSans-101"/>
      <use x="139.013672" xlink:href="#DejaVuSans-110"/>
      <use x="202.392578" xlink:href="#DejaVuSans-101"/>
      <use x="263.916016" xlink:href="#DejaVuSans-32"/>
      <use x="295.703125" xlink:href="#DejaVuSans-115"/>
      <use x="347.802734" xlink:href="#DejaVuSans-101"/>
      <use x="409.326172" xlink:href="#DejaVuSans-116"/>
      <use x="448.535156" xlink:href="#DejaVuSans-32"/>
      <use x="480.322266" xlink:href="#DejaVuSans-101"/>
      <use x="541.830078" xlink:href="#DejaVuSans-120"/>
      <use x="601.009766" xlink:href="#DejaVuSans-112"/>
      <use x="664.486328" xlink:href="#DejaVuSans-97"/>
      <use x="725.765625" xlink:href="#DejaVuSans-110"/>
      <use x="789.144531" xlink:href="#DejaVuSans-115"/>
      <use x="841.244141" xlink:href="#DejaVuSans-105"/>
      <use x="869.027344" xlink:href="#DejaVuSans-111"/>
      <use x="930.208984" xlink:href="#DejaVuSans-110"/>
      <use x="993.587891" xlink:href="#DejaVuSans-115"/>
      <use x="1045.6875" xlink:href="#DejaVuSans-32"/>
      <use x="1077.474609" xlink:href="#DejaVuSans-40"/>
      <use x="1116.488281" xlink:href="#DejaVuSans-43"/>
      <use x="1200.277344" xlink:href="#DejaVuSans-41"/>
      <use x="1239.291016" xlink:href="#DejaVuSans-32"/>
      <use x="1271.078125" xlink:href="#DejaVuSans-111"/>
      <use x="1332.259766" xlink:href="#DejaVuSans-114"/>
      <use x="1373.373047" xlink:href="#DejaVuSans-32"/>
      <use x="1405.160156" xlink:href="#DejaVuSans-99"/>
      <use x="1460.140625" xlink:href="#DejaVuSans-111"/>
      <use x="1521.322266" xlink:href="#DejaVuSans-110"/>
      <use x="1584.701172" xlink:href="#DejaVuSans-116"/>
      <use x="1623.910156" xlink:href="#DejaVuSans-114"/>
      <use x="1665.023438" xlink:href="#DejaVuSans-97"/>
      <use x="1726.302734" xlink:href="#DejaVuSans-99"/>
      <use x="1781.283203" xlink:href="#DejaVuSans-116"/>
      <use x="1820.492188" xlink:href="#DejaVuSans-105"/>
      <use x="1848.275391" xlink:href="#DejaVuSans-111"/>
      <use x="1909.457031" xlink:href="#DejaVuSans-110"/>
      <use x="1972.835938" xlink:href="#DejaVuSans-115"/>
      <use x="2024.935547" xlink:href="#DejaVuSans-32"/>
      <use x="2056.722656" xlink:href="#DejaVuSans-40"/>
      <use x="2095.736328" xlink:href="#DejaVuSans-45"/>
      <use x="2131.820312" xlink:href="#DejaVuSans-41"/>
     </g>
    </g>
   </g>
   <g id="matplotlib.axis_2">
    <g id="ytick_1">
     <g id="line2d_3">
      <defs>
       <path d="M 0 0 
L -3.5 0 
" id="m4a7cbd2497" style="stroke:#000000;stroke-width:0.8;"/>
      </defs>
      <g>
       <use style="stroke:#000000;stroke-width:0.8;" x="48.982813" xlink:href="#m4a7cbd2497" y="287.178165"/>
      </g>
     </g>
     <g id="text_4">
      <!-- −50 -->
      <defs>
       <path d="M 10.59375 35.5 
L 73.1875 35.5 
L 73.1875 27.203125 
L 10.59375 27.203125 
z
" id="DejaVuSans-8722"/>
       <path d="M 10.796875 72.90625 
L 49.515625 72.90625 
L 49.515625 64.59375 
L 19.828125 64.59375 
L 19.828125 46.734375 
Q 21.96875 47.46875 24.109375 47.828125 
Q 26.265625 48.1875 28.421875 48.1875 
Q 40.625 48.1875 47.75 41.5 
Q 54.890625 34.8125 54.890625 23.390625 
Q 54.890625 11.625 47.5625 5.09375 
Q 40.234375 -1.421875 26.90625 -1.421875 
Q 22.3125 -1.421875 17.546875 -0.640625 
Q 12.796875 0.140625 7.71875 1.703125 
L 7.71875 11.625 
Q 12.109375 9.234375 16.796875 8.0625 
Q 21.484375 6.890625 26.703125 6.890625 
Q 35.15625 6.890625 40.078125 11.328125 
Q 45.015625 15.765625 45.015625 23.390625 
Q 45.015625 31 40.078125 35.4375 
Q 35.15625 39.890625 26.703125 39.890625 
Q 22.75 39.890625 18.8125 39.015625 
Q 14.890625 38.140625 10.796875 36.28125 
z
" id="DejaVuSans-53"/>
       <path d="M 31.78125 66.40625 
Q 24.171875 66.40625 20.328125 58.90625 
Q 16.5 51.421875 16.5 36.375 
Q 16.5 21.390625 20.328125 13.890625 
Q 24.171875 6.390625 31.78125 6.390625 
Q 39.453125 6.390625 43.28125 13.890625 
Q 47.125 21.390625 47.125 36.375 
Q 47.125 51.421875 43.28125 58.90625 
Q 39.453125 66.40625 31.78125 66.40625 
z
M 31.78125 74.21875 
Q 44.046875 74.21875 50.515625 64.515625 
Q 56.984375 54.828125 56.984375 36.375 
Q 56.984375 17.96875 50.515625 8.265625 
Q 44.046875 -1.421875 31.78125 -1.421875 
Q 19.53125 -1.421875 13.0625 8.265625 
Q 6.59375 17.96875 6.59375 36.375 
Q 6.59375 54.828125 13.0625 64.515625 
Q 19.53125 74.21875 31.78125 74.21875 
z
" id="DejaVuSans-48"/>
      </defs>
      <g transform="translate(20.878125 290.977384)scale(0.1 -0.1)">
       <use xlink:href="#DejaVuSans-8722"/>
       <use x="83.789062" xlink:href="#DejaVuSans-53"/>
       <use x="147.412109" xlink:href="#DejaVuSans-48"/>
      </g>
     </g>
    </g>
    <g id="ytick_2">
     <g id="line2d_4">
      <g>
       <use style="stroke:#000000;stroke-width:0.8;" x="48.982813" xlink:href="#m4a7cbd2497" y="235.269775"/>
      </g>
     </g>
     <g id="text_5">
      <!-- 0 -->
      <g transform="translate(35.620313 239.068994)scale(0.1 -0.1)">
       <use xlink:href="#DejaVuSans-48"/>
      </g>
     </g>
    </g>
    <g id="ytick_3">
     <g id="line2d_5">
      <g>
       <use style="stroke:#000000;stroke-width:0.8;" x="48.982813" xlink:href="#m4a7cbd2497" y="183.361385"/>
      </g>
     </g>
     <g id="text_6">
      <!-- 50 -->
      <g transform="translate(29.257813 187.160604)scale(0.1 -0.1)">
       <use xlink:href="#DejaVuSans-53"/>
       <use x="63.623047" xlink:href="#DejaVuSans-48"/>
      </g>
     </g>
    </g>
    <g id="ytick_4">
     <g id="line2d_6">
      <g>
       <use style="stroke:#000000;stroke-width:0.8;" x="48.982813" xlink:href="#m4a7cbd2497" y="131.452995"/>
      </g>
     </g>
     <g id="text_7">
      <!-- 100 -->
      <defs>
       <path d="M 12.40625 8.296875 
L 28.515625 8.296875 
L 28.515625 63.921875 
L 10.984375 60.40625 
L 10.984375 69.390625 
L 28.421875 72.90625 
L 38.28125 72.90625 
L 38.28125 8.296875 
L 54.390625 8.296875 
L 54.390625 0 
L 12.40625 0 
z
" id="DejaVuSans-49"/>
      </defs>
      <g transform="translate(22.895313 135.252214)scale(0.1 -0.1)">
       <use xlink:href="#DejaVuSans-49"/>
       <use x="63.623047" xlink:href="#DejaVuSans-48"/>
       <use x="127.246094" xlink:href="#DejaVuSans-48"/>
      </g>
     </g>
    </g>
    <g id="ytick_5">
     <g id="line2d_7">
      <g>
       <use style="stroke:#000000;stroke-width:0.8;" x="48.982813" xlink:href="#m4a7cbd2497" y="79.544605"/>
      </g>
     </g>
     <g id="text_8">
      <!-- 150 -->
      <g transform="translate(22.895313 83.343824)scale(0.1 -0.1)">
       <use xlink:href="#DejaVuSans-49"/>
       <use x="63.623047" xlink:href="#DejaVuSans-53"/>
       <use x="127.246094" xlink:href="#DejaVuSans-48"/>
      </g>
     </g>
    </g>
    <g id="ytick_6">
     <g id="line2d_8">
      <g>
       <use style="stroke:#000000;stroke-width:0.8;" x="48.982813" xlink:href="#m4a7cbd2497" y="27.636215"/>
      </g>
     </g>
     <g id="text_9">
      <!-- 200 -->
      <defs>
       <path d="M 19.1875 8.296875 
L 53.609375 8.296875 
L 53.609375 0 
L 7.328125 0 
L 7.328125 8.296875 
Q 12.9375 14.109375 22.625 23.890625 
Q 32.328125 33.6875 34.8125 36.53125 
Q 39.546875 41.84375 41.421875 45.53125 
Q 43.3125 49.21875 43.3125 52.78125 
Q 43.3125 58.59375 39.234375 62.25 
Q 35.15625 65.921875 28.609375 65.921875 
Q 23.96875 65.921875 18.8125 64.3125 
Q 13.671875 62.703125 7.8125 59.421875 
L 7.8125 69.390625 
Q 13.765625 71.78125 18.9375 73 
Q 24.125 74.21875 28.421875 74.21875 
Q 39.75 74.21875 46.484375 68.546875 
Q 53.21875 62.890625 53.21875 53.421875 
Q 53.21875 48.921875 51.53125 44.890625 
Q 49.859375 40.875 45.40625 35.40625 
Q 44.1875 33.984375 37.640625 27.21875 
Q 31.109375 20.453125 19.1875 8.296875 
z
" id="DejaVuSans-50"/>
      </defs>
      <g transform="translate(22.895313 31.435434)scale(0.1 -0.1)">
       <use xlink:href="#DejaVuSans-50"/>
       <use x="63.623047" xlink:href="#DejaVuSans-48"/>
       <use x="127.246094" xlink:href="#DejaVuSans-48"/>
      </g>
     </g>
    </g>
    <g id="text_10">
     <!-- Significant gene family expansions or contractions -->
     <defs>
      <path d="M 53.515625 70.515625 
L 53.515625 60.890625 
Q 47.90625 63.578125 42.921875 64.890625 
Q 37.9375 66.21875 33.296875 66.21875 
Q 25.25 66.21875 20.875 63.09375 
Q 16.5 59.96875 16.5 54.203125 
Q 16.5 49.359375 19.40625 46.890625 
Q 22.3125 44.4375 30.421875 42.921875 
L 36.375 41.703125 
Q 47.40625 39.59375 52.65625 34.296875 
Q 57.90625 29 57.90625 20.125 
Q 57.90625 9.515625 50.796875 4.046875 
Q 43.703125 -1.421875 29.984375 -1.421875 
Q 24.8125 -1.421875 18.96875 -0.25 
Q 13.140625 0.921875 6.890625 3.21875 
L 6.890625 13.375 
Q 12.890625 10.015625 18.65625 8.296875 
Q 24.421875 6.59375 29.984375 6.59375 
Q 38.421875 6.59375 43.015625 9.90625 
Q 47.609375 13.234375 47.609375 19.390625 
Q 47.609375 24.75 44.3125 27.78125 
Q 41.015625 30.8125 33.5 32.328125 
L 27.484375 33.5 
Q 16.453125 35.6875 11.515625 40.375 
Q 6.59375 45.0625 6.59375 53.421875 
Q 6.59375 63.09375 13.40625 68.65625 
Q 20.21875 74.21875 32.171875 74.21875 
Q 37.3125 74.21875 42.625 73.28125 
Q 47.953125 72.359375 53.515625 70.515625 
z
" id="DejaVuSans-83"/>
      <path d="M 45.40625 27.984375 
Q 45.40625 37.75 41.375 43.109375 
Q 37.359375 48.484375 30.078125 48.484375 
Q 22.859375 48.484375 18.828125 43.109375 
Q 14.796875 37.75 14.796875 27.984375 
Q 14.796875 18.265625 18.828125 12.890625 
Q 22.859375 7.515625 30.078125 7.515625 
Q 37.359375 7.515625 41.375 12.890625 
Q 45.40625 18.265625 45.40625 27.984375 
z
M 54.390625 6.78125 
Q 54.390625 -7.171875 48.1875 -13.984375 
Q 42 -20.796875 29.203125 -20.796875 
Q 24.46875 -20.796875 20.265625 -20.09375 
Q 16.0625 -19.390625 12.109375 -17.921875 
L 12.109375 -9.1875 
Q 16.0625 -11.328125 19.921875 -12.34375 
Q 23.78125 -13.375 27.78125 -13.375 
Q 36.625 -13.375 41.015625 -8.765625 
Q 45.40625 -4.15625 45.40625 5.171875 
L 45.40625 9.625 
Q 42.625 4.78125 38.28125 2.390625 
Q 33.9375 0 27.875 0 
Q 17.828125 0 11.671875 7.65625 
Q 5.515625 15.328125 5.515625 27.984375 
Q 5.515625 40.671875 11.671875 48.328125 
Q 17.828125 56 27.875 56 
Q 33.9375 56 38.28125 53.609375 
Q 42.625 51.21875 45.40625 46.390625 
L 45.40625 54.6875 
L 54.390625 54.6875 
z
" id="DejaVuSans-103"/>
      <path d="M 37.109375 75.984375 
L 37.109375 68.5 
L 28.515625 68.5 
Q 23.6875 68.5 21.796875 66.546875 
Q 19.921875 64.59375 19.921875 59.515625 
L 19.921875 54.6875 
L 34.71875 54.6875 
L 34.71875 47.703125 
L 19.921875 47.703125 
L 19.921875 0 
L 10.890625 0 
L 10.890625 47.703125 
L 2.296875 47.703125 
L 2.296875 54.6875 
L 10.890625 54.6875 
L 10.890625 58.5 
Q 10.890625 67.625 15.140625 71.796875 
Q 19.390625 75.984375 28.609375 75.984375 
z
" id="DejaVuSans-102"/>
      <path d="M 52 44.1875 
Q 55.375 50.25 60.0625 53.125 
Q 64.75 56 71.09375 56 
Q 79.640625 56 84.28125 50.015625 
Q 88.921875 44.046875 88.921875 33.015625 
L 88.921875 0 
L 79.890625 0 
L 79.890625 32.71875 
Q 79.890625 40.578125 77.09375 44.375 
Q 74.3125 48.1875 68.609375 48.1875 
Q 61.625 48.1875 57.5625 43.546875 
Q 53.515625 38.921875 53.515625 30.90625 
L 53.515625 0 
L 44.484375 0 
L 44.484375 32.71875 
Q 44.484375 40.625 41.703125 44.40625 
Q 38.921875 48.1875 33.109375 48.1875 
Q 26.21875 48.1875 22.15625 43.53125 
Q 18.109375 38.875 18.109375 30.90625 
L 18.109375 0 
L 9.078125 0 
L 9.078125 54.6875 
L 18.109375 54.6875 
L 18.109375 46.1875 
Q 21.1875 51.21875 25.484375 53.609375 
Q 29.78125 56 35.6875 56 
Q 41.65625 56 45.828125 52.96875 
Q 50 49.953125 52 44.1875 
z
" id="DejaVuSans-109"/>
      <path d="M 32.171875 -5.078125 
Q 28.375 -14.84375 24.75 -17.8125 
Q 21.140625 -20.796875 15.09375 -20.796875 
L 7.90625 -20.796875 
L 7.90625 -13.28125 
L 13.1875 -13.28125 
Q 16.890625 -13.28125 18.9375 -11.515625 
Q 21 -9.765625 23.484375 -3.21875 
L 25.09375 0.875 
L 2.984375 54.6875 
L 12.5 54.6875 
L 29.59375 11.921875 
L 46.6875 54.6875 
L 56.203125 54.6875 
z
" id="DejaVuSans-121"/>
     </defs>
     <g transform="translate(14.798438 302.650156)rotate(-90)scale(0.1 -0.1)">
      <use xlink:href="#DejaVuSans-83"/>
      <use x="63.476562" xlink:href="#DejaVuSans-105"/>
      <use x="91.259766" xlink:href="#DejaVuSans-103"/>
      <use x="154.736328" xlink:href="#DejaVuSans-110"/>
      <use x="218.115234" xlink:href="#DejaVuSans-105"/>
      <use x="245.898438" xlink:href="#DejaVuSans-102"/>
      <use x="281.103516" xlink:href="#DejaVuSans-105"/>
      <use x="308.886719" xlink:href="#DejaVuSans-99"/>
      <use x="363.867188" xlink:href="#DejaVuSans-97"/>
      <use x="425.146484" xlink:href="#DejaVuSans-110"/>
      <use x="488.525391" xlink:href="#DejaVuSans-116"/>
      <use x="527.734375" xlink:href="#DejaVuSans-32"/>
      <use x="559.521484" xlink:href="#DejaVuSans-103"/>
      <use x="622.998047" xlink:href="#DejaVuSans-101"/>
      <use x="684.521484" xlink:href="#DejaVuSans-110"/>
      <use x="747.900391" xlink:href="#DejaVuSans-101"/>
      <use x="809.423828" xlink:href="#DejaVuSans-32"/>
      <use x="841.210938" xlink:href="#DejaVuSans-102"/>
      <use x="876.416016" xlink:href="#DejaVuSans-97"/>
      <use x="937.695312" xlink:href="#DejaVuSans-109"/>
      <use x="1035.107422" xlink:href="#DejaVuSans-105"/>
      <use x="1062.890625" xlink:href="#DejaVuSans-108"/>
      <use x="1090.673828" xlink:href="#DejaVuSans-121"/>
      <use x="1149.853516" xlink:href="#DejaVuSans-32"/>
      <use x="1181.640625" xlink:href="#DejaVuSans-101"/>
      <use x="1243.148438" xlink:href="#DejaVuSans-120"/>
      <use x="1302.328125" xlink:href="#DejaVuSans-112"/>
      <use x="1365.804688" xlink:href="#DejaVuSans-97"/>
      <use x="1427.083984" xlink:href="#DejaVuSans-110"/>
      <use x="1490.462891" xlink:href="#DejaVuSans-115"/>
      <use x="1542.5625" xlink:href="#DejaVuSans-105"/>
      <use x="1570.345703" xlink:href="#DejaVuSans-111"/>
      <use x="1631.527344" xlink:href="#DejaVuSans-110"/>
      <use x="1694.90625" xlink:href="#DejaVuSans-115"/>
      <use x="1747.005859" xlink:href="#DejaVuSans-32"/>
      <use x="1778.792969" xlink:href="#DejaVuSans-111"/>
      <use x="1839.974609" xlink:href="#DejaVuSans-114"/>
      <use x="1881.087891" xlink:href="#DejaVuSans-32"/>
      <use x="1912.875" xlink:href="#DejaVuSans-99"/>
      <use x="1967.855469" xlink:href="#DejaVuSans-111"/>
      <use x="2029.037109" xlink:href="#DejaVuSans-110"/>
      <use x="2092.416016" xlink:href="#DejaVuSans-116"/>
      <use x="2131.625" xlink:href="#DejaVuSans-114"/>
      <use x="2172.738281" xlink:href="#DejaVuSans-97"/>
      <use x="2234.017578" xlink:href="#DejaVuSans-99"/>
      <use x="2288.998047" xlink:href="#DejaVuSans-116"/>
      <use x="2328.207031" xlink:href="#DejaVuSans-105"/>
      <use x="2355.990234" xlink:href="#DejaVuSans-111"/>
      <use x="2417.171875" xlink:href="#DejaVuSans-110"/>
      <use x="2480.550781" xlink:href="#DejaVuSans-115"/>
     </g>
    </g>
   </g>
   <g id="line2d_9">
    <path clip-path="url(#p6a08a1c3b6)" d="M 82.527056 235.269775 
L 82.527056 186.475889 
" style="fill:none;stroke:#3e3e3e;stroke-linecap:square;stroke-width:1.5;"/>
   </g>
   <g id="line2d_10">
    <path clip-path="url(#p6a08a1c3b6)" d="M 82.527056 235.269775 
L 82.527056 202.048406 
" style="fill:none;stroke:#3e3e3e;stroke-linecap:square;stroke-width:4.5;"/>
   </g>
   <g id="line2d_11">
    <path clip-path="url(#p6a08a1c3b6)" d="M 120.863333 234.231607 
L 120.863333 112.765975 
" style="fill:none;stroke:#3e3e3e;stroke-linecap:square;stroke-width:1.5;"/>
   </g>
   <g id="line2d_12">
    <path clip-path="url(#p6a08a1c3b6)" d="M 120.863333 233.19344 
L 120.863333 141.834673 
" style="fill:none;stroke:#3e3e3e;stroke-linecap:square;stroke-width:4.5;"/>
   </g>
   <g id="line2d_13">
    <path clip-path="url(#p6a08a1c3b6)" d="M 159.199611 230.078936 
L 159.199611 222.811762 
" style="fill:none;stroke:#3e3e3e;stroke-linecap:square;stroke-width:1.5;"/>
   </g>
   <g id="line2d_14">
    <path clip-path="url(#p6a08a1c3b6)" d="M 159.199611 228.521684 
L 159.199611 206.979703 
" style="fill:none;stroke:#3e3e3e;stroke-linecap:square;stroke-width:4.5;"/>
   </g>
   <g id="line2d_15">
    <path clip-path="url(#p6a08a1c3b6)" d="M 226.288097 273.681984 
L 226.288097 235.269775 
" style="fill:none;stroke:#3e3e3e;stroke-linecap:square;stroke-width:1.5;"/>
   </g>
   <g id="line2d_16">
    <path clip-path="url(#p6a08a1c3b6)" d="M 226.288097 258.888093 
L 226.288097 239.422446 
" style="fill:none;stroke:#3e3e3e;stroke-linecap:square;stroke-width:4.5;"/>
   </g>
   <g id="line2d_17">
    <path clip-path="url(#p6a08a1c3b6)" d="M 264.624375 273.681984 
L 264.624375 238.384279 
" style="fill:none;stroke:#3e3e3e;stroke-linecap:square;stroke-width:1.5;"/>
   </g>
   <g id="line2d_18">
    <path clip-path="url(#p6a08a1c3b6)" d="M 264.624375 257.071299 
L 264.624375 240.460614 
" style="fill:none;stroke:#3e3e3e;stroke-linecap:square;stroke-width:4.5;"/>
   </g>
   <g id="line2d_19">
    <path clip-path="url(#p6a08a1c3b6)" d="M 302.960653 287.178165 
L 302.960653 244.613285 
" style="fill:none;stroke:#3e3e3e;stroke-linecap:square;stroke-width:1.5;"/>
   </g>
   <g id="line2d_20">
    <path clip-path="url(#p6a08a1c3b6)" d="M 302.960653 273.941526 
L 302.960653 250.842292 
" style="fill:none;stroke:#3e3e3e;stroke-linecap:square;stroke-width:4.5;"/>
   </g>
   <g id="patch_6">
    <path d="M 48.982813 329.718125 
L 48.982813 22.318125 
" style="fill:none;stroke:#000000;stroke-linecap:square;stroke-linejoin:miter;stroke-width:0.8;"/>
   </g>
   <g id="patch_7">
    <path d="M 48.982813 329.718125 
L 336.504896 329.718125 
" style="fill:none;stroke:#000000;stroke-linecap:square;stroke-linejoin:miter;stroke-width:0.8;"/>
   </g>
   <g id="PathCollection_1">
    <defs>
     <path d="M 0 1.5 
C 0.397805 1.5 0.77937 1.341951 1.06066 1.06066 
C 1.341951 0.77937 1.5 0.397805 1.5 0 
C 1.5 -0.397805 1.341951 -0.77937 1.06066 -1.06066 
C 0.77937 -1.341951 0.397805 -1.5 0 -1.5 
C -0.397805 -1.5 -0.77937 -1.341951 -1.06066 -1.06066 
C -1.341951 -0.77937 -1.5 -0.397805 -1.5 0 
C -1.5 0.397805 -1.341951 0.77937 -1.06066 1.06066 
C -0.77937 1.341951 -0.397805 1.5 0 1.5 
z
" id="m112c4e65ad" style="stroke:#3e3e3e;"/>
    </defs>
    <g clip-path="url(#p6a08a1c3b6)">
     <use style="fill:#ffffff;stroke:#3e3e3e;" x="82.527056" xlink:href="#m112c4e65ad" y="234.750691"/>
    </g>
   </g>
   <g id="PathCollection_2">
    <g clip-path="url(#p6a08a1c3b6)">
     <use style="fill:#ffffff;stroke:#3e3e3e;" x="120.863333" xlink:href="#m112c4e65ad" y="188.552224"/>
    </g>
   </g>
   <g id="PathCollection_3">
    <g clip-path="url(#p6a08a1c3b6)">
     <use style="fill:#ffffff;stroke:#3e3e3e;" x="159.199611" xlink:href="#m112c4e65ad" y="225.407181"/>
    </g>
   </g>
   <g id="PathCollection_4">
    <g clip-path="url(#p6a08a1c3b6)">
     <use style="fill:#ffffff;stroke:#3e3e3e;" x="226.288097" xlink:href="#m112c4e65ad" y="248.765956"/>
    </g>
   </g>
   <g id="PathCollection_5">
    <g clip-path="url(#p6a08a1c3b6)">
     <use style="fill:#ffffff;stroke:#3e3e3e;" x="264.624375" xlink:href="#m112c4e65ad" y="244.613285"/>
    </g>
   </g>
   <g id="PathCollection_6">
    <g clip-path="url(#p6a08a1c3b6)">
     <use style="fill:#ffffff;stroke:#3e3e3e;" x="302.960653" xlink:href="#m112c4e65ad" y="261.22397"/>
    </g>
   </g>
   <g id="text_11">
    <!-- Non-Canonical Immune Genes -->
    <defs>
     <path d="M 9.8125 72.90625 
L 19.671875 72.90625 
L 19.671875 0 
L 9.8125 0 
z
" id="DejaVuSans-73"/>
     <path d="M 8.5 21.578125 
L 8.5 54.6875 
L 17.484375 54.6875 
L 17.484375 21.921875 
Q 17.484375 14.15625 20.5 10.265625 
Q 23.53125 6.390625 29.59375 6.390625 
Q 36.859375 6.390625 41.078125 11.03125 
Q 45.3125 15.671875 45.3125 23.6875 
L 45.3125 54.6875 
L 54.296875 54.6875 
L 54.296875 0 
L 45.3125 0 
L 45.3125 8.40625 
Q 42.046875 3.421875 37.71875 1 
Q 33.40625 -1.421875 27.6875 -1.421875 
Q 18.265625 -1.421875 13.375 4.4375 
Q 8.5 10.296875 8.5 21.578125 
z
M 31.109375 56 
z
" id="DejaVuSans-117"/>
    </defs>
    <g transform="translate(101.633854 16.318125)scale(0.12 -0.12)">
     <use xlink:href="#DejaVuSans-78"/>
     <use x="74.804688" xlink:href="#DejaVuSans-111"/>
     <use x="135.986328" xlink:href="#DejaVuSans-110"/>
     <use x="199.365234" xlink:href="#DejaVuSans-45"/>
     <use x="235.449219" xlink:href="#DejaVuSans-67"/>
     <use x="305.273438" xlink:href="#DejaVuSans-97"/>
     <use x="366.552734" xlink:href="#DejaVuSans-110"/>
     <use x="429.931641" xlink:href="#DejaVuSans-111"/>
     <use x="491.113281" xlink:href="#DejaVuSans-110"/>
     <use x="554.492188" xlink:href="#DejaVuSans-105"/>
     <use x="582.275391" xlink:href="#DejaVuSans-99"/>
     <use x="637.255859" xlink:href="#DejaVuSans-97"/>
     <use x="698.535156" xlink:href="#DejaVuSans-108"/>
     <use x="726.318359" xlink:href="#DejaVuSans-32"/>
     <use x="758.105469" xlink:href="#DejaVuSans-73"/>
     <use x="787.597656" xlink:href="#DejaVuSans-109"/>
     <use x="885.009766" xlink:href="#DejaVuSans-109"/>
     <use x="982.421875" xlink:href="#DejaVuSans-117"/>
     <use x="1045.800781" xlink:href="#DejaVuSans-110"/>
     <use x="1109.179688" xlink:href="#DejaVuSans-101"/>
     <use x="1170.703125" xlink:href="#DejaVuSans-32"/>
     <use x="1202.490234" xlink:href="#DejaVuSans-71"/>
     <use x="1279.980469" xlink:href="#DejaVuSans-101"/>
     <use x="1341.503906" xlink:href="#DejaVuSans-110"/>
     <use x="1404.882812" xlink:href="#DejaVuSans-101"/>
     <use x="1466.40625" xlink:href="#DejaVuSans-115"/>
    </g>
   </g>
  </g>
  <g id="legend_1">
   <g id="text_12">
    <!-- Sociality -->
    <g transform="translate(368.59599 164.379375)scale(0.1 -0.1)">
     <use xlink:href="#DejaVuSans-83"/>
     <use x="63.476562" xlink:href="#DejaVuSans-111"/>
     <use x="124.658203" xlink:href="#DejaVuSans-99"/>
     <use x="179.638672" xlink:href="#DejaVuSans-105"/>
     <use x="207.421875" xlink:href="#DejaVuSans-97"/>
     <use x="268.701172" xlink:href="#DejaVuSans-108"/>
     <use x="296.484375" xlink:href="#DejaVuSans-105"/>
     <use x="324.267578" xlink:href="#DejaVuSans-116"/>
     <use x="363.476562" xlink:href="#DejaVuSans-121"/>
    </g>
   </g>
   <g id="patch_8">
    <path d="M 342.503021 179.0575 
L 362.503021 179.0575 
L 362.503021 172.0575 
L 342.503021 172.0575 
z
" style="fill:#417192;stroke:#3e3e3e;stroke-linejoin:miter;stroke-width:0.75;"/>
   </g>
   <g id="text_13">
    <!-- Solitary -->
    <g transform="translate(370.503021 179.0575)scale(0.1 -0.1)">
     <use xlink:href="#DejaVuSans-83"/>
     <use x="63.476562" xlink:href="#DejaVuSans-111"/>
     <use x="124.658203" xlink:href="#DejaVuSans-108"/>
     <use x="152.441406" xlink:href="#DejaVuSans-105"/>
     <use x="180.224609" xlink:href="#DejaVuSans-116"/>
     <use x="219.433594" xlink:href="#DejaVuSans-97"/>
     <use x="280.712891" xlink:href="#DejaVuSans-114"/>
     <use x="321.826172" xlink:href="#DejaVuSans-121"/>
    </g>
   </g>
   <g id="patch_9">
    <path d="M 342.503021 193.735625 
L 362.503021 193.735625 
L 362.503021 186.735625 
L 342.503021 186.735625 
z
" style="fill:#468746;stroke:#3e3e3e;stroke-linejoin:miter;stroke-width:0.75;"/>
   </g>
   <g id="text_14">
    <!-- Social -->
    <g transform="translate(370.503021 193.735625)scale(0.1 -0.1)">
     <use xlink:href="#DejaVuSans-83"/>
     <use x="63.476562" xlink:href="#DejaVuSans-111"/>
     <use x="124.658203" xlink:href="#DejaVuSans-99"/>
     <use x="179.638672" xlink:href="#DejaVuSans-105"/>
     <use x="207.421875" xlink:href="#DejaVuSans-97"/>
     <use x="268.701172" xlink:href="#DejaVuSans-108"/>
    </g>
   </g>
   <g id="patch_10">
    <path d="M 342.503021 208.41375 
L 362.503021 208.41375 
L 362.503021 201.41375 
L 342.503021 201.41375 
z
" style="fill:#cc834b;stroke:#3e3e3e;stroke-linejoin:miter;stroke-width:0.75;"/>
   </g>
   <g id="text_15">
    <!-- Adv. eusocial -->
    <defs>
     <path d="M 34.1875 63.1875 
L 20.796875 26.90625 
L 47.609375 26.90625 
z
M 28.609375 72.90625 
L 39.796875 72.90625 
L 67.578125 0 
L 57.328125 0 
L 50.6875 18.703125 
L 17.828125 18.703125 
L 11.1875 0 
L 0.78125 0 
z
" id="DejaVuSans-65"/>
     <path d="M 45.40625 46.390625 
L 45.40625 75.984375 
L 54.390625 75.984375 
L 54.390625 0 
L 45.40625 0 
L 45.40625 8.203125 
Q 42.578125 3.328125 38.25 0.953125 
Q 33.9375 -1.421875 27.875 -1.421875 
Q 17.96875 -1.421875 11.734375 6.484375 
Q 5.515625 14.40625 5.515625 27.296875 
Q 5.515625 40.1875 11.734375 48.09375 
Q 17.96875 56 27.875 56 
Q 33.9375 56 38.25 53.625 
Q 42.578125 51.265625 45.40625 46.390625 
z
M 14.796875 27.296875 
Q 14.796875 17.390625 18.875 11.75 
Q 22.953125 6.109375 30.078125 6.109375 
Q 37.203125 6.109375 41.296875 11.75 
Q 45.40625 17.390625 45.40625 27.296875 
Q 45.40625 37.203125 41.296875 42.84375 
Q 37.203125 48.484375 30.078125 48.484375 
Q 22.953125 48.484375 18.875 42.84375 
Q 14.796875 37.203125 14.796875 27.296875 
z
" id="DejaVuSans-100"/>
     <path d="M 2.984375 54.6875 
L 12.5 54.6875 
L 29.59375 8.796875 
L 46.6875 54.6875 
L 56.203125 54.6875 
L 35.6875 0 
L 23.484375 0 
z
" id="DejaVuSans-118"/>
     <path d="M 10.6875 12.40625 
L 21 12.40625 
L 21 0 
L 10.6875 0 
z
" id="DejaVuSans-46"/>
    </defs>
    <g transform="translate(370.503021 208.41375)scale(0.1 -0.1)">
     <use xlink:href="#DejaVuSans-65"/>
     <use x="68.392578" xlink:href="#DejaVuSans-100"/>
     <use x="131.869141" xlink:href="#DejaVuSans-118"/>
     <use x="190.939453" xlink:href="#DejaVuSans-46"/>
     <use x="222.726562" xlink:href="#DejaVuSans-32"/>
     <use x="254.513672" xlink:href="#DejaVuSans-101"/>
     <use x="316.037109" xlink:href="#DejaVuSans-117"/>
     <use x="379.416016" xlink:href="#DejaVuSans-115"/>
     <use x="431.515625" xlink:href="#DejaVuSans-111"/>
     <use x="492.697266" xlink:href="#DejaVuSans-99"/>
     <use x="547.677734" xlink:href="#DejaVuSans-105"/>
     <use x="575.460938" xlink:href="#DejaVuSans-97"/>
     <use x="636.740234" xlink:href="#DejaVuSans-108"/>
    </g>
   </g>
  </g>
 </g>
 <defs>
  <clipPath id="p6a08a1c3b6">
   <rect height="307.4" width="287.522083" x="48.982813" y="22.318125"/>
  </clipPath>
 </defs>
</svg>
