<?xml version="1.0" encoding="utf-8" standalone="no"?>
<!DOCTYPE svg PUBLIC "-//W3C//DTD SVG 1.1//EN"
  "http://www.w3.org/Graphics/SVG/1.1/DTD/svg11.dtd">
<!-- Created with matplotlib (https://matplotlib.org/) -->
<svg height="367.274375pt" version="1.1" viewBox="0 0 445.956146 367.274375" width="445.956146pt" xmlns="http://www.w3.org/2000/svg" xmlns:xlink="http://www.w3.org/1999/xlink">
 <defs>
  <style type="text/css">
*{stroke-linecap:butt;stroke-linejoin:round;}
  </style>
 </defs>
 <g id="figure_1">
  <g id="patch_1">
   <path d="M 0 367.274375 
L 445.956146 367.274375 
L 445.956146 0 
L 0 0 
z
" style="fill:#ffffff;"/>
  </g>
  <g id="axes_1">
   <g id="patch_2">
    <path d="M 48.982813 329.718125 
L 336.504896 329.718125 
L 336.504896 22.318125 
L 48.982813 22.318125 
z
" style="fill:#ffffff;"/>
   </g>
   <g id="PolyCollection_1">
    <defs>
     <path d="M 84.014666 -81.043607 
L 81.039445 -81.043607 
L 80.756416 -83.568253 
L 80.434332 -86.092898 
L 80.070998 -88.617544 
L 79.664759 -91.14219 
L 79.21464 -93.666835 
L 78.720481 -96.191481 
L 78.183067 -98.716126 
L 77.60424 -101.240772 
L 76.986985 -103.765418 
L 76.335486 -106.290063 
L 75.655153 -108.814709 
L 74.952594 -111.339355 
L 74.235551 -113.864 
L 73.512787 -116.388646 
L 72.793923 -118.913291 
L 72.089237 -121.437937 
L 71.409417 -123.962583 
L 70.765294 -126.487228 
L 70.167545 -129.011874 
L 69.626392 -131.536519 
L 69.151302 -134.061165 
L 68.750704 -136.585811 
L 68.431729 -139.110456 
L 68.200001 -141.635102 
L 68.059457 -144.159747 
L 68.012246 -146.684393 
L 68.058665 -149.209039 
L 68.197178 -151.733684 
L 68.424475 -154.25833 
L 68.735609 -156.782976 
L 69.124159 -159.307621 
L 69.582456 -161.832267 
L 70.101823 -164.356912 
L 70.672841 -166.881558 
L 71.285622 -169.406204 
L 71.930079 -171.930849 
L 72.596182 -174.455495 
L 73.274188 -176.98014 
L 73.954848 -179.504786 
L 74.629577 -182.029432 
L 75.290585 -184.554077 
L 75.930975 -187.078723 
L 76.544798 -189.603368 
L 77.127076 -192.128014 
L 77.6738 -194.65266 
L 78.181891 -197.177305 
L 78.64915 -199.701951 
L 79.074184 -202.226597 
L 79.456335 -204.751242 
L 79.795586 -207.275888 
L 80.092485 -209.800533 
L 80.348056 -212.325179 
L 80.563729 -214.849825 
L 80.74127 -217.37447 
L 80.882721 -219.899116 
L 80.990352 -222.423761 
L 81.066621 -224.948407 
L 81.114139 -227.473053 
L 81.135645 -229.997698 
L 81.133983 -232.522344 
L 81.112083 -235.046989 
L 81.072943 -237.571635 
L 81.019607 -240.096281 
L 80.955144 -242.620926 
L 80.882622 -245.145572 
L 80.805075 -247.670218 
L 80.725471 -250.194863 
L 80.646668 -252.719509 
L 80.571378 -255.244154 
L 80.502117 -257.7688 
L 80.441165 -260.293446 
L 80.390521 -262.818091 
L 80.35187 -265.342737 
L 80.326545 -267.867382 
L 80.31551 -270.392028 
L 80.319343 -272.916674 
L 80.338234 -275.441319 
L 80.371992 -277.965965 
L 80.420065 -280.49061 
L 80.481574 -283.015256 
L 80.555346 -285.539902 
L 80.639964 -288.064547 
L 80.733826 -290.589193 
L 80.835191 -293.113839 
L 80.942247 -295.638484 
L 81.053164 -298.16313 
L 81.166146 -300.687775 
L 81.279483 -303.212421 
L 81.391591 -305.737067 
L 81.501045 -308.261712 
L 81.606608 -310.786358 
L 81.707243 -313.311003 
L 81.802122 -315.835649 
L 81.890627 -318.360295 
L 81.972343 -320.88494 
L 82.047041 -323.409586 
L 82.114667 -325.934232 
L 82.175311 -328.458877 
L 82.229195 -330.983523 
L 82.824916 -330.983523 
L 82.824916 -330.983523 
L 82.8788 -328.458877 
L 82.939445 -325.934232 
L 83.00707 -323.409586 
L 83.081768 -320.88494 
L 83.163484 -318.360295 
L 83.251989 -315.835649 
L 83.346868 -313.311003 
L 83.447503 -310.786358 
L 83.553066 -308.261712 
L 83.662521 -305.737067 
L 83.774628 -303.212421 
L 83.887965 -300.687775 
L 84.000947 -298.16313 
L 84.111864 -295.638484 
L 84.21892 -293.113839 
L 84.320285 -290.589193 
L 84.414147 -288.064547 
L 84.498766 -285.539902 
L 84.572537 -283.015256 
L 84.634046 -280.49061 
L 84.682119 -277.965965 
L 84.715877 -275.441319 
L 84.734768 -272.916674 
L 84.738601 -270.392028 
L 84.727566 -267.867382 
L 84.702241 -265.342737 
L 84.66359 -262.818091 
L 84.612946 -260.293446 
L 84.551994 -257.7688 
L 84.482733 -255.244154 
L 84.407443 -252.719509 
L 84.328641 -250.194863 
L 84.249036 -247.670218 
L 84.171489 -245.145572 
L 84.098967 -242.620926 
L 84.034504 -240.096281 
L 83.981168 -237.571635 
L 83.942028 -235.046989 
L 83.920128 -232.522344 
L 83.918466 -229.997698 
L 83.939972 -227.473053 
L 83.98749 -224.948407 
L 84.063759 -222.423761 
L 84.17139 -219.899116 
L 84.312841 -217.37447 
L 84.490382 -214.849825 
L 84.706055 -212.325179 
L 84.961626 -209.800533 
L 85.258525 -207.275888 
L 85.597776 -204.751242 
L 85.979927 -202.226597 
L 86.404962 -199.701951 
L 86.87222 -197.177305 
L 87.380311 -194.65266 
L 87.927035 -192.128014 
L 88.509313 -189.603368 
L 89.123136 -187.078723 
L 89.763526 -184.554077 
L 90.424534 -182.029432 
L 91.099263 -179.504786 
L 91.779923 -176.98014 
L 92.457929 -174.455495 
L 93.124032 -171.930849 
L 93.768489 -169.406204 
L 94.38127 -166.881558 
L 94.952288 -164.356912 
L 95.471655 -161.832267 
L 95.929952 -159.307621 
L 96.318502 -156.782976 
L 96.629636 -154.25833 
L 96.856934 -151.733684 
L 96.995446 -149.209039 
L 97.041865 -146.684393 
L 96.994654 -144.159747 
L 96.854111 -141.635102 
L 96.622382 -139.110456 
L 96.303408 -136.585811 
L 95.902809 -134.061165 
L 95.427719 -131.536519 
L 94.886566 -129.011874 
L 94.288817 -126.487228 
L 93.644694 -123.962583 
L 92.964874 -121.437937 
L 92.260188 -118.913291 
L 91.541324 -116.388646 
L 90.81856 -113.864 
L 90.101517 -111.339355 
L 89.398958 -108.814709 
L 88.718625 -106.290063 
L 88.067126 -103.765418 
L 87.449871 -101.240772 
L 86.871044 -98.716126 
L 86.33363 -96.191481 
L 85.839471 -93.666835 
L 85.389352 -91.14219 
L 84.983113 -88.617544 
L 84.619779 -86.092898 
L 84.297695 -83.568253 
L 84.014666 -81.043607 
z
" id="mf969b8ef60" style="stroke:#3e3e3e;stroke-width:1.5;"/>
    </defs>
    <g clip-path="url(#p7708ee7472)">
     <use style="fill:#417192;stroke:#3e3e3e;stroke-width:1.5;" x="0" xlink:href="#mf969b8ef60" y="367.274375"/>
    </g>
   </g>
   <g id="PolyCollection_2">
    <defs>
     <path d="M 122.287536 -101.764507 
L 119.43913 -101.764507 
L 119.187571 -103.318986 
L 118.904051 -104.873464 
L 118.587031 -106.427943 
L 118.235386 -107.982422 
L 117.848501 -109.536901 
L 117.426356 -111.09138 
L 116.969608 -112.645859 
L 116.479659 -114.200338 
L 115.9587 -115.754817 
L 115.409741 -117.309295 
L 114.836614 -118.863774 
L 114.243941 -120.418253 
L 113.637076 -121.972732 
L 113.02202 -123.527211 
L 112.405291 -125.08169 
L 111.793784 -126.636169 
L 111.194591 -128.190648 
L 110.614812 -129.745126 
L 110.061354 -131.299605 
L 109.540721 -132.854084 
L 109.058812 -134.408563 
L 108.620741 -135.963042 
L 108.230664 -137.517521 
L 107.891653 -139.072 
L 107.605603 -140.626479 
L 107.373176 -142.180957 
L 107.1938 -143.735436 
L 107.065713 -145.289915 
L 106.98605 -146.844394 
L 106.950979 -148.398873 
L 106.955865 -149.953352 
L 106.995465 -151.507831 
L 107.06415 -153.06231 
L 107.156121 -154.616788 
L 107.265635 -156.171267 
L 107.387215 -157.725746 
L 107.515835 -159.280225 
L 107.647077 -160.834704 
L 107.777254 -162.389183 
L 107.903486 -163.943662 
L 108.023741 -165.498141 
L 108.136828 -167.052619 
L 108.242352 -168.607098 
L 108.340636 -170.161577 
L 108.432614 -171.716056 
L 108.519709 -173.270535 
L 108.603685 -174.825014 
L 108.686519 -176.379493 
L 108.770255 -177.933972 
L 108.856889 -179.48845 
L 108.948263 -181.042929 
L 109.045984 -182.597408 
L 109.151375 -184.151887 
L 109.265443 -185.706366 
L 109.388882 -187.260845 
L 109.522093 -188.815324 
L 109.665227 -190.369803 
L 109.818242 -191.924281 
L 109.98096 -193.47876 
L 110.153141 -195.033239 
L 110.334539 -196.587718 
L 110.524959 -198.142197 
L 110.724299 -199.696676 
L 110.932572 -201.251155 
L 111.149919 -202.805634 
L 111.376597 -204.360112 
L 111.61296 -205.914591 
L 111.859412 -207.46907 
L 112.116364 -209.023549 
L 112.384176 -210.578028 
L 112.663099 -212.132507 
L 112.953218 -213.686986 
L 113.254398 -215.241465 
L 113.56625 -216.795943 
L 113.888094 -218.350422 
L 114.21895 -219.904901 
L 114.557536 -221.45938 
L 114.902284 -223.013859 
L 115.251374 -224.568338 
L 115.60277 -226.122817 
L 115.954279 -227.677296 
L 116.303609 -229.231774 
L 116.648433 -230.786253 
L 116.986456 -232.340732 
L 117.315474 -233.895211 
L 117.633437 -235.44969 
L 117.938496 -237.004169 
L 118.229044 -238.558648 
L 118.503749 -240.113127 
L 118.761573 -241.667605 
L 119.00178 -243.222084 
L 119.223935 -244.776563 
L 119.427893 -246.331042 
L 119.613779 -247.885521 
L 119.781963 -249.44 
L 119.93303 -250.994479 
L 120.067742 -252.548958 
L 120.187007 -254.103436 
L 120.291842 -255.657915 
L 121.434825 -255.657915 
L 121.434825 -255.657915 
L 121.539659 -254.103436 
L 121.658925 -252.548958 
L 121.793637 -250.994479 
L 121.944703 -249.44 
L 122.112888 -247.885521 
L 122.298774 -246.331042 
L 122.502731 -244.776563 
L 122.724886 -243.222084 
L 122.965093 -241.667605 
L 123.222918 -240.113127 
L 123.497623 -238.558648 
L 123.788171 -237.004169 
L 124.09323 -235.44969 
L 124.411193 -233.895211 
L 124.740211 -232.340732 
L 125.078233 -230.786253 
L 125.423057 -229.231774 
L 125.772387 -227.677296 
L 126.123897 -226.122817 
L 126.475293 -224.568338 
L 126.824382 -223.013859 
L 127.169131 -221.45938 
L 127.507717 -219.904901 
L 127.838573 -218.350422 
L 128.160417 -216.795943 
L 128.472268 -215.241465 
L 128.773449 -213.686986 
L 129.063567 -212.132507 
L 129.34249 -210.578028 
L 129.610303 -209.023549 
L 129.867255 -207.46907 
L 130.113707 -205.914591 
L 130.350069 -204.360112 
L 130.576748 -202.805634 
L 130.794095 -201.251155 
L 131.002368 -199.696676 
L 131.201707 -198.142197 
L 131.392128 -196.587718 
L 131.573526 -195.033239 
L 131.745707 -193.47876 
L 131.908425 -191.924281 
L 132.061439 -190.369803 
L 132.204574 -188.815324 
L 132.337785 -187.260845 
L 132.461224 -185.706366 
L 132.575291 -184.151887 
L 132.680682 -182.597408 
L 132.778404 -181.042929 
L 132.869778 -179.48845 
L 132.956412 -177.933972 
L 133.040148 -176.379493 
L 133.122981 -174.825014 
L 133.206958 -173.270535 
L 133.294052 -171.716056 
L 133.386031 -170.161577 
L 133.484315 -168.607098 
L 133.589839 -167.052619 
L 133.702926 -165.498141 
L 133.823181 -163.943662 
L 133.949413 -162.389183 
L 134.07959 -160.834704 
L 134.210832 -159.280225 
L 134.339451 -157.725746 
L 134.461032 -156.171267 
L 134.570546 -154.616788 
L 134.662517 -153.06231 
L 134.731202 -151.507831 
L 134.770802 -149.953352 
L 134.775687 -148.398873 
L 134.740616 -146.844394 
L 134.660954 -145.289915 
L 134.532867 -143.735436 
L 134.353491 -142.180957 
L 134.121063 -140.626479 
L 133.835013 -139.072 
L 133.496003 -137.517521 
L 133.105926 -135.963042 
L 132.667854 -134.408563 
L 132.185946 -132.854084 
L 131.665312 -131.299605 
L 131.111854 -129.745126 
L 130.532076 -128.190648 
L 129.932882 -126.636169 
L 129.321375 -125.08169 
L 128.704647 -123.527211 
L 128.08959 -121.972732 
L 127.482726 -120.418253 
L 126.890053 -118.863774 
L 126.316926 -117.309295 
L 125.767967 -115.754817 
L 125.247008 -114.200338 
L 124.757058 -112.645859 
L 124.300311 -111.09138 
L 123.878166 -109.536901 
L 123.49128 -107.982422 
L 123.139635 -106.427943 
L 122.822615 -104.873464 
L 122.539096 -103.318986 
L 122.287536 -101.764507 
z
" id="med75de4e38" style="stroke:#3e3e3e;stroke-width:1.5;"/>
    </defs>
    <g clip-path="url(#p7708ee7472)">
     <use style="fill:#468746;stroke:#3e3e3e;stroke-width:1.5;" x="0" xlink:href="#med75de4e38" y="367.274375"/>
    </g>
   </g>
   <g id="PolyCollection_3">
    <defs>
     <path d="M 161.766914 -99.105285 
L 156.632308 -99.105285 
L 156.270383 -100.492861 
L 155.872425 -101.880436 
L 155.437351 -103.268012 
L 154.964462 -104.655587 
L 154.45351 -106.043162 
L 153.904758 -107.430738 
L 153.319036 -108.818313 
L 152.697789 -110.205889 
L 152.043119 -111.593464 
L 151.357811 -112.98104 
L 150.645352 -114.368615 
L 149.909928 -115.75619 
L 149.156406 -117.143766 
L 148.390306 -118.531341 
L 147.617744 -119.918917 
L 146.845359 -121.306492 
L 146.080231 -122.694068 
L 145.329769 -124.081643 
L 144.601596 -125.469219 
L 143.903411 -126.856794 
L 143.242853 -128.244369 
L 142.627345 -129.631945 
L 142.063951 -131.01952 
L 141.55922 -132.407096 
L 141.119046 -133.794671 
L 140.748536 -135.182247 
L 140.451886 -136.569822 
L 140.232285 -137.957397 
L 140.091831 -139.344973 
L 140.031472 -140.732548 
L 140.050981 -142.120124 
L 140.148944 -143.507699 
L 140.32279 -144.895275 
L 140.568835 -146.28285 
L 140.882359 -147.670426 
L 141.257707 -149.058001 
L 141.688407 -150.445576 
L 142.16731 -151.833152 
L 142.686739 -153.220727 
L 143.238654 -154.608303 
L 143.814816 -155.995878 
L 144.406959 -157.383454 
L 145.006954 -158.771029 
L 145.606962 -160.158604 
L 146.199591 -161.54618 
L 146.778016 -162.933755 
L 147.336105 -164.321331 
L 147.868503 -165.708906 
L 148.370717 -167.096482 
L 148.839158 -168.484057 
L 149.271174 -169.871633 
L 149.665056 -171.259208 
L 150.020019 -172.646783 
L 150.336172 -174.034359 
L 150.614457 -175.421934 
L 150.856584 -176.80951 
L 151.06494 -178.197085 
L 151.242499 -179.584661 
L 151.392713 -180.972236 
L 151.519406 -182.359811 
L 151.626657 -183.747387 
L 151.718694 -185.134962 
L 151.799781 -186.522538 
L 151.874114 -187.910113 
L 151.945729 -189.297689 
L 152.018413 -190.685264 
L 152.095629 -192.07284 
L 152.180455 -193.460415 
L 152.275532 -194.84799 
L 152.383031 -196.235566 
L 152.504628 -197.623141 
L 152.641499 -199.010717 
L 152.794319 -200.398292 
L 152.963286 -201.785868 
L 153.148138 -203.173443 
L 153.348198 -204.561019 
L 153.562415 -205.948594 
L 153.789411 -207.336169 
L 154.027543 -208.723745 
L 154.274954 -210.11132 
L 154.529631 -211.498896 
L 154.789469 -212.886471 
L 155.052319 -214.274047 
L 155.316045 -215.661622 
L 155.578567 -217.049197 
L 155.837908 -218.436773 
L 156.092224 -219.824348 
L 156.339839 -221.211924 
L 156.579263 -222.599499 
L 156.809209 -223.987075 
L 157.028603 -225.37465 
L 157.23659 -226.762226 
L 157.432526 -228.149801 
L 157.615974 -229.537376 
L 157.786696 -230.924952 
L 157.944632 -232.312527 
L 158.089888 -233.700103 
L 158.222714 -235.087678 
L 158.343486 -236.475254 
L 160.055737 -236.475254 
L 160.055737 -236.475254 
L 160.176508 -235.087678 
L 160.309334 -233.700103 
L 160.45459 -232.312527 
L 160.612526 -230.924952 
L 160.783248 -229.537376 
L 160.966697 -228.149801 
L 161.162632 -226.762226 
L 161.370619 -225.37465 
L 161.590014 -223.987075 
L 161.819959 -222.599499 
L 162.059383 -221.211924 
L 162.306998 -219.824348 
L 162.561314 -218.436773 
L 162.820655 -217.049197 
L 163.083178 -215.661622 
L 163.346903 -214.274047 
L 163.609753 -212.886471 
L 163.869591 -211.498896 
L 164.124269 -210.11132 
L 164.371679 -208.723745 
L 164.609811 -207.336169 
L 164.836808 -205.948594 
L 165.051024 -204.561019 
L 165.251084 -203.173443 
L 165.435937 -201.785868 
L 165.604903 -200.398292 
L 165.757723 -199.010717 
L 165.894594 -197.623141 
L 166.016191 -196.235566 
L 166.12369 -194.84799 
L 166.218767 -193.460415 
L 166.303593 -192.07284 
L 166.380809 -190.685264 
L 166.453493 -189.297689 
L 166.525108 -187.910113 
L 166.599441 -186.522538 
L 166.680528 -185.134962 
L 166.772565 -183.747387 
L 166.879816 -182.359811 
L 167.006509 -180.972236 
L 167.156723 -179.584661 
L 167.334282 -178.197085 
L 167.542639 -176.80951 
L 167.784765 -175.421934 
L 168.063051 -174.034359 
L 168.379203 -172.646783 
L 168.734167 -171.259208 
L 169.128048 -169.871633 
L 169.560064 -168.484057 
L 170.028505 -167.096482 
L 170.530719 -165.708906 
L 171.063118 -164.321331 
L 171.621206 -162.933755 
L 172.199631 -161.54618 
L 172.79226 -160.158604 
L 173.392269 -158.771029 
L 173.992263 -157.383454 
L 174.584406 -155.995878 
L 175.160569 -154.608303 
L 175.712483 -153.220727 
L 176.231913 -151.833152 
L 176.710815 -150.445576 
L 177.141516 -149.058001 
L 177.516864 -147.670426 
L 177.830388 -146.28285 
L 178.076432 -144.895275 
L 178.250278 -143.507699 
L 178.348241 -142.120124 
L 178.36775 -140.732548 
L 178.307391 -139.344973 
L 178.166937 -137.957397 
L 177.947336 -136.569822 
L 177.650687 -135.182247 
L 177.280176 -133.794671 
L 176.840003 -132.407096 
L 176.335271 -131.01952 
L 175.771877 -129.631945 
L 175.156369 -128.244369 
L 174.495811 -126.856794 
L 173.797626 -125.469219 
L 173.069453 -124.081643 
L 172.318991 -122.694068 
L 171.553863 -121.306492 
L 170.781479 -119.918917 
L 170.008916 -118.531341 
L 169.242816 -117.143766 
L 168.489295 -115.75619 
L 167.75387 -114.368615 
L 167.041411 -112.98104 
L 166.356104 -111.593464 
L 165.701433 -110.205889 
L 165.080187 -108.818313 
L 164.494464 -107.430738 
L 163.945713 -106.043162 
L 163.434761 -104.655587 
L 162.961871 -103.268012 
L 162.526797 -101.880436 
L 162.128839 -100.492861 
L 161.766914 -99.105285 
z
" id="m0f205211b4" style="stroke:#3e3e3e;stroke-width:1.5;"/>
    </defs>
    <g clip-path="url(#p7708ee7472)">
     <use style="fill:#cc834b;stroke:#3e3e3e;stroke-width:1.5;" x="0" xlink:href="#m0f205211b4" y="367.274375"/>
    </g>
   </g>
   <g id="PolyCollection_4">
    <defs>
     <path d="M 226.844461 -111.557325 
L 225.731734 -111.557325 
L 225.62871 -111.948734 
L 225.51107 -112.340143 
L 225.377643 -112.731553 
L 225.227331 -113.122962 
L 225.059148 -113.514372 
L 224.872252 -113.905781 
L 224.665987 -114.297191 
L 224.439922 -114.6886 
L 224.193883 -115.080009 
L 223.927991 -115.471419 
L 223.642684 -115.862828 
L 223.338747 -116.254238 
L 223.017319 -116.645647 
L 222.679903 -117.037057 
L 222.328356 -117.428466 
L 221.96488 -117.819876 
L 221.591988 -118.211285 
L 221.212469 -118.602694 
L 220.82934 -118.994104 
L 220.445783 -119.385513 
L 220.065081 -119.776923 
L 219.690538 -120.168332 
L 219.325407 -120.559742 
L 218.972803 -120.951151 
L 218.635622 -121.34256 
L 218.316463 -121.73397 
L 218.01756 -122.125379 
L 217.740709 -122.516789 
L 217.487225 -122.908198 
L 217.257894 -123.299608 
L 217.052955 -123.691017 
L 216.872086 -124.082426 
L 216.714412 -124.473836 
L 216.578533 -124.865245 
L 216.462561 -125.256655 
L 216.364179 -125.648064 
L 216.280706 -126.039474 
L 216.209182 -126.430883 
L 216.146452 -126.822292 
L 216.089267 -127.213702 
L 216.034374 -127.605111 
L 215.978623 -127.996521 
L 215.919053 -128.38793 
L 215.852985 -128.77934 
L 215.778102 -129.170749 
L 215.692518 -129.562159 
L 215.594835 -129.953568 
L 215.484188 -130.344977 
L 215.360274 -130.736387 
L 215.223368 -131.127796 
L 215.074324 -131.519206 
L 214.914564 -131.910615 
L 214.746048 -132.302025 
L 214.571239 -132.693434 
L 214.393056 -133.084843 
L 214.214809 -133.476253 
L 214.040138 -133.867662 
L 213.872936 -134.259072 
L 213.717269 -134.650481 
L 213.577293 -135.041891 
L 213.457163 -135.4333 
L 213.360947 -135.824709 
L 213.292535 -136.216119 
L 213.25555 -136.607528 
L 213.253266 -136.998938 
L 213.288522 -137.390347 
L 213.363657 -137.781757 
L 213.480437 -138.173166 
L 213.640008 -138.564576 
L 213.842853 -138.955985 
L 214.088766 -139.347394 
L 214.376843 -139.738804 
L 214.705487 -140.130213 
L 215.072432 -140.521623 
L 215.474784 -140.913032 
L 215.90908 -141.304442 
L 216.371359 -141.695851 
L 216.857246 -142.08726 
L 217.36205 -142.47867 
L 217.880868 -142.870079 
L 218.408688 -143.261489 
L 218.940503 -143.652898 
L 219.471411 -144.044308 
L 219.996718 -144.435717 
L 220.512026 -144.827126 
L 221.013312 -145.218536 
L 221.496991 -145.609945 
L 221.959966 -146.001355 
L 222.399663 -146.392764 
L 222.814041 -146.784174 
L 223.201603 -147.175583 
L 223.561372 -147.566992 
L 223.892875 -147.958402 
L 224.196097 -148.349811 
L 224.47144 -148.741221 
L 224.719671 -149.13263 
L 224.94186 -149.52404 
L 225.139332 -149.915449 
L 225.313599 -150.306859 
L 227.262596 -150.306859 
L 227.262596 -150.306859 
L 227.436862 -149.915449 
L 227.634334 -149.52404 
L 227.856524 -149.13263 
L 228.104754 -148.741221 
L 228.380097 -148.349811 
L 228.683319 -147.958402 
L 229.014822 -147.566992 
L 229.374592 -147.175583 
L 229.762153 -146.784174 
L 230.176532 -146.392764 
L 230.616228 -146.001355 
L 231.079204 -145.609945 
L 231.562882 -145.218536 
L 232.064168 -144.827126 
L 232.579476 -144.435717 
L 233.104783 -144.044308 
L 233.635691 -143.652898 
L 234.167506 -143.261489 
L 234.695326 -142.870079 
L 235.214144 -142.47867 
L 235.718949 -142.08726 
L 236.204836 -141.695851 
L 236.667114 -141.304442 
L 237.101411 -140.913032 
L 237.503763 -140.521623 
L 237.870707 -140.130213 
L 238.199351 -139.738804 
L 238.487428 -139.347394 
L 238.733342 -138.955985 
L 238.936187 -138.564576 
L 239.095758 -138.173166 
L 239.212538 -137.781757 
L 239.287672 -137.390347 
L 239.322929 -136.998938 
L 239.320644 -136.607528 
L 239.28366 -136.216119 
L 239.215248 -135.824709 
L 239.119032 -135.4333 
L 238.998902 -135.041891 
L 238.858925 -134.650481 
L 238.703258 -134.259072 
L 238.536057 -133.867662 
L 238.361386 -133.476253 
L 238.183139 -133.084843 
L 238.004955 -132.693434 
L 237.830147 -132.302025 
L 237.661631 -131.910615 
L 237.50187 -131.519206 
L 237.352827 -131.127796 
L 237.215921 -130.736387 
L 237.092006 -130.344977 
L 236.981359 -129.953568 
L 236.883676 -129.562159 
L 236.798092 -129.170749 
L 236.72321 -128.77934 
L 236.657142 -128.38793 
L 236.597572 -127.996521 
L 236.54182 -127.605111 
L 236.486928 -127.213702 
L 236.429742 -126.822292 
L 236.367012 -126.430883 
L 236.295488 -126.039474 
L 236.212015 -125.648064 
L 236.113633 -125.256655 
L 235.997662 -124.865245 
L 235.861783 -124.473836 
L 235.704109 -124.082426 
L 235.523239 -123.691017 
L 235.3183 -123.299608 
L 235.08897 -122.908198 
L 234.835485 -122.516789 
L 234.558635 -122.125379 
L 234.259731 -121.73397 
L 233.940573 -121.34256 
L 233.603391 -120.951151 
L 233.250787 -120.559742 
L 232.885656 -120.168332 
L 232.511114 -119.776923 
L 232.130411 -119.385513 
L 231.746854 -118.994104 
L 231.363725 -118.602694 
L 230.984207 -118.211285 
L 230.611314 -117.819876 
L 230.247838 -117.428466 
L 229.896292 -117.037057 
L 229.558875 -116.645647 
L 229.237447 -116.254238 
L 228.93351 -115.862828 
L 228.648204 -115.471419 
L 228.382311 -115.080009 
L 228.136272 -114.6886 
L 227.910207 -114.297191 
L 227.703943 -113.905781 
L 227.517047 -113.514372 
L 227.348863 -113.122962 
L 227.198552 -112.731553 
L 227.065124 -112.340143 
L 226.947484 -111.948734 
L 226.844461 -111.557325 
z
" id="m8c6bb363b9" style="stroke:#3e3e3e;stroke-width:1.5;"/>
    </defs>
    <g clip-path="url(#p7708ee7472)">
     <use style="fill:#417192;stroke:#3e3e3e;stroke-width:1.5;" x="0" xlink:href="#m8c6bb363b9" y="367.274375"/>
    </g>
   </g>
   <g id="PolyCollection_5">
    <defs>
     <path d="M 265.017455 -109.429261 
L 264.231295 -109.429261 
L 264.157156 -109.836083 
L 264.073329 -110.242906 
L 263.979485 -110.649728 
L 263.875484 -111.056551 
L 263.761416 -111.463373 
L 263.637628 -111.870196 
L 263.50475 -112.277018 
L 263.363711 -112.683841 
L 263.21575 -113.090663 
L 263.0624 -113.497486 
L 262.905474 -113.904308 
L 262.747027 -114.311131 
L 262.589302 -114.717953 
L 262.43467 -115.124776 
L 262.285551 -115.531598 
L 262.144326 -115.938421 
L 262.013248 -116.345243 
L 261.894344 -116.752066 
L 261.789323 -117.158888 
L 261.699498 -117.565711 
L 261.625702 -117.972533 
L 261.568241 -118.379356 
L 261.526848 -118.786178 
L 261.500674 -119.193001 
L 261.488291 -119.599823 
L 261.487722 -120.006645 
L 261.496495 -120.413468 
L 261.511715 -120.82029 
L 261.530148 -121.227113 
L 261.548326 -121.633935 
L 261.562642 -122.040758 
L 261.569462 -122.44758 
L 261.565222 -122.854403 
L 261.54651 -123.261225 
L 261.510148 -123.668048 
L 261.453238 -124.07487 
L 261.373198 -124.481693 
L 261.267778 -124.888515 
L 261.135043 -125.295338 
L 260.973355 -125.70216 
L 260.781331 -126.108983 
L 260.557791 -126.515805 
L 260.301714 -126.922628 
L 260.012186 -127.32945 
L 259.688366 -127.736273 
L 259.329469 -128.143095 
L 258.934765 -128.549918 
L 258.503607 -128.95674 
L 258.03549 -129.363563 
L 257.530129 -129.770385 
L 256.98757 -130.177208 
L 256.408315 -130.58403 
L 255.793464 -130.990853 
L 255.144863 -131.397675 
L 254.465245 -131.804498 
L 253.758357 -132.21132 
L 253.029058 -132.618142 
L 252.283391 -133.024965 
L 251.528594 -133.431787 
L 250.773073 -133.83861 
L 250.026312 -134.245432 
L 249.298723 -134.652255 
L 248.601444 -135.059077 
L 247.946083 -135.4659 
L 247.344413 -135.872722 
L 246.808047 -136.279545 
L 246.348074 -136.686367 
L 245.974713 -137.09319 
L 245.696955 -137.500012 
L 245.522252 -137.906835 
L 245.456236 -138.313657 
L 245.502497 -138.72048 
L 245.662427 -139.127302 
L 245.935142 -139.534125 
L 246.317479 -139.940947 
L 246.804071 -140.34777 
L 247.387499 -140.754592 
L 248.05852 -141.161415 
L 248.806343 -141.568237 
L 249.618955 -141.97506 
L 250.483487 -142.381882 
L 251.386582 -142.788705 
L 252.314775 -143.195527 
L 253.254857 -143.60235 
L 254.194201 -144.009172 
L 255.121063 -144.415994 
L 256.024822 -144.822817 
L 256.896174 -145.229639 
L 257.727256 -145.636462 
L 258.511728 -146.043284 
L 259.244782 -146.450107 
L 259.923108 -146.856929 
L 260.54482 -147.263752 
L 261.109329 -147.670574 
L 261.617209 -148.077397 
L 262.070023 -148.484219 
L 262.470157 -148.891042 
L 262.820637 -149.297864 
L 263.12496 -149.704687 
L 266.12379 -149.704687 
L 266.12379 -149.704687 
L 266.428113 -149.297864 
L 266.778593 -148.891042 
L 267.178727 -148.484219 
L 267.631541 -148.077397 
L 268.139421 -147.670574 
L 268.70393 -147.263752 
L 269.325642 -146.856929 
L 270.003968 -146.450107 
L 270.737022 -146.043284 
L 271.521494 -145.636462 
L 272.352576 -145.229639 
L 273.223928 -144.822817 
L 274.127687 -144.415994 
L 275.054549 -144.009172 
L 275.993893 -143.60235 
L 276.933975 -143.195527 
L 277.862168 -142.788705 
L 278.765263 -142.381882 
L 279.629795 -141.97506 
L 280.442407 -141.568237 
L 281.19023 -141.161415 
L 281.861251 -140.754592 
L 282.444679 -140.34777 
L 282.931271 -139.940947 
L 283.313608 -139.534125 
L 283.586323 -139.127302 
L 283.746253 -138.72048 
L 283.792514 -138.313657 
L 283.726498 -137.906835 
L 283.551795 -137.500012 
L 283.274037 -137.09319 
L 282.900676 -136.686367 
L 282.440703 -136.279545 
L 281.904337 -135.872722 
L 281.302667 -135.4659 
L 280.647306 -135.059077 
L 279.950027 -134.652255 
L 279.222438 -134.245432 
L 278.475677 -133.83861 
L 277.720156 -133.431787 
L 276.965359 -133.024965 
L 276.219692 -132.618142 
L 275.490393 -132.21132 
L 274.783505 -131.804498 
L 274.103887 -131.397675 
L 273.455286 -130.990853 
L 272.840435 -130.58403 
L 272.26118 -130.177208 
L 271.718621 -129.770385 
L 271.21326 -129.363563 
L 270.745143 -128.95674 
L 270.313985 -128.549918 
L 269.919281 -128.143095 
L 269.560384 -127.736273 
L 269.236564 -127.32945 
L 268.947036 -126.922628 
L 268.690959 -126.515805 
L 268.467419 -126.108983 
L 268.275395 -125.70216 
L 268.113707 -125.295338 
L 267.980972 -124.888515 
L 267.875552 -124.481693 
L 267.795512 -124.07487 
L 267.738602 -123.668048 
L 267.70224 -123.261225 
L 267.683528 -122.854403 
L 267.679288 -122.44758 
L 267.686108 -122.040758 
L 267.700424 -121.633935 
L 267.718602 -121.227113 
L 267.737035 -120.82029 
L 267.752255 -120.413468 
L 267.761028 -120.006645 
L 267.760459 -119.599823 
L 267.748076 -119.193001 
L 267.721902 -118.786178 
L 267.680509 -118.379356 
L 267.623048 -117.972533 
L 267.549252 -117.565711 
L 267.459427 -117.158888 
L 267.354406 -116.752066 
L 267.235502 -116.345243 
L 267.104424 -115.938421 
L 266.963199 -115.531598 
L 266.81408 -115.124776 
L 266.659448 -114.717953 
L 266.501723 -114.311131 
L 266.343276 -113.904308 
L 266.18635 -113.497486 
L 266.033 -113.090663 
L 265.885039 -112.683841 
L 265.744 -112.277018 
L 265.611122 -111.870196 
L 265.487334 -111.463373 
L 265.373266 -111.056551 
L 265.269265 -110.649728 
L 265.175421 -110.242906 
L 265.091594 -109.836083 
L 265.017455 -109.429261 
z
" id="mbd240a7b6d" style="stroke:#3e3e3e;stroke-width:1.5;"/>
    </defs>
    <g clip-path="url(#p7708ee7472)">
     <use style="fill:#468746;stroke:#3e3e3e;stroke-width:1.5;" x="0" xlink:href="#mbd240a7b6d" y="367.274375"/>
    </g>
   </g>
   <g id="PolyCollection_6">
    <defs>
     <path d="M 303.199109 -51.528977 
L 302.722197 -51.528977 
L 302.685475 -52.774565 
L 302.644722 -54.020152 
L 302.599784 -55.26574 
L 302.550546 -56.511328 
L 302.496945 -57.756915 
L 302.43897 -59.002503 
L 302.376675 -60.24809 
L 302.310177 -61.493678 
L 302.239661 -62.739265 
L 302.165381 -63.984853 
L 302.087656 -65.23044 
L 302.00687 -66.476028 
L 301.923461 -67.721616 
L 301.837914 -68.967203 
L 301.750749 -70.212791 
L 301.662509 -71.458378 
L 301.573742 -72.703966 
L 301.484986 -73.949553 
L 301.396749 -75.195141 
L 301.309495 -76.440728 
L 301.223622 -77.686316 
L 301.13945 -78.931904 
L 301.057204 -80.177491 
L 300.977005 -81.423079 
L 300.898863 -82.668666 
L 300.822673 -83.914254 
L 300.748212 -85.159841 
L 300.675154 -86.405429 
L 300.60307 -87.651017 
L 300.531454 -88.896604 
L 300.459733 -90.142192 
L 300.387297 -91.387779 
L 300.313522 -92.633367 
L 300.237803 -93.878954 
L 300.159575 -95.124542 
L 300.078352 -96.370129 
L 299.993747 -97.615717 
L 299.905502 -98.861305 
L 299.813508 -100.106892 
L 299.717822 -101.35248 
L 299.618679 -102.598067 
L 299.516497 -103.843655 
L 299.411878 -105.089242 
L 299.305598 -106.33483 
L 299.198596 -107.580417 
L 299.091956 -108.826005 
L 298.986879 -110.071593 
L 298.884657 -111.31718 
L 298.786644 -112.562768 
L 298.694216 -113.808355 
L 298.608743 -115.053943 
L 298.531553 -116.29953 
L 298.4639 -117.545118 
L 298.406933 -118.790705 
L 298.361673 -120.036293 
L 298.32899 -121.281881 
L 298.309585 -122.527468 
L 298.303982 -123.773056 
L 298.312516 -125.018643 
L 298.335336 -126.264231 
L 298.372406 -127.509818 
L 298.423514 -128.755406 
L 298.48828 -130.000994 
L 298.566171 -131.246581 
L 298.656519 -132.492169 
L 298.758533 -133.737756 
L 298.871326 -134.983344 
L 298.993923 -136.228931 
L 299.125288 -137.474519 
L 299.264336 -138.720106 
L 299.409954 -139.965694 
L 299.561013 -141.211282 
L 299.71638 -142.456869 
L 299.874938 -143.702457 
L 300.03559 -144.948044 
L 300.197274 -146.193632 
L 300.358969 -147.439219 
L 300.519703 -148.684807 
L 300.678561 -149.930394 
L 300.834694 -151.175982 
L 300.987317 -152.42157 
L 301.135721 -153.667157 
L 301.279269 -154.912745 
L 301.417408 -156.158332 
L 301.549663 -157.40392 
L 301.675642 -158.649507 
L 301.795034 -159.895095 
L 301.90761 -161.140683 
L 302.013221 -162.38627 
L 302.111794 -163.631858 
L 302.203327 -164.877445 
L 302.287885 -166.123033 
L 302.365598 -167.36862 
L 302.436649 -168.614208 
L 302.50127 -169.859795 
L 302.559734 -171.105383 
L 302.612349 -172.350971 
L 302.65945 -173.596558 
L 302.70139 -174.842146 
L 303.219916 -174.842146 
L 303.219916 -174.842146 
L 303.261855 -173.596558 
L 303.308956 -172.350971 
L 303.361572 -171.105383 
L 303.420036 -169.859795 
L 303.484657 -168.614208 
L 303.555707 -167.36862 
L 303.63342 -166.123033 
L 303.717979 -164.877445 
L 303.809512 -163.631858 
L 303.908084 -162.38627 
L 304.013695 -161.140683 
L 304.126272 -159.895095 
L 304.245664 -158.649507 
L 304.371643 -157.40392 
L 304.503897 -156.158332 
L 304.642036 -154.912745 
L 304.785585 -153.667157 
L 304.933988 -152.42157 
L 305.086611 -151.175982 
L 305.242744 -149.930394 
L 305.401603 -148.684807 
L 305.562337 -147.439219 
L 305.724031 -146.193632 
L 305.885715 -144.948044 
L 306.046368 -143.702457 
L 306.204926 -142.456869 
L 306.360293 -141.211282 
L 306.511351 -139.965694 
L 306.656969 -138.720106 
L 306.796018 -137.474519 
L 306.927383 -136.228931 
L 307.04998 -134.983344 
L 307.162772 -133.737756 
L 307.264787 -132.492169 
L 307.355134 -131.246581 
L 307.433025 -130.000994 
L 307.497791 -128.755406 
L 307.548899 -127.509818 
L 307.58597 -126.264231 
L 307.60879 -125.018643 
L 307.617324 -123.773056 
L 307.61172 -122.527468 
L 307.592316 -121.281881 
L 307.559633 -120.036293 
L 307.514373 -118.790705 
L 307.457406 -117.545118 
L 307.389752 -116.29953 
L 307.312563 -115.053943 
L 307.22709 -113.808355 
L 307.134662 -112.562768 
L 307.036648 -111.31718 
L 306.934427 -110.071593 
L 306.82935 -108.826005 
L 306.722709 -107.580417 
L 306.615708 -106.33483 
L 306.509428 -105.089242 
L 306.404808 -103.843655 
L 306.302627 -102.598067 
L 306.203484 -101.35248 
L 306.107798 -100.106892 
L 306.015804 -98.861305 
L 305.927559 -97.615717 
L 305.842954 -96.370129 
L 305.76173 -95.124542 
L 305.683503 -93.878954 
L 305.607783 -92.633367 
L 305.534009 -91.387779 
L 305.461573 -90.142192 
L 305.389852 -88.896604 
L 305.318235 -87.651017 
L 305.246152 -86.405429 
L 305.173093 -85.159841 
L 305.098633 -83.914254 
L 305.022442 -82.668666 
L 304.944301 -81.423079 
L 304.864102 -80.177491 
L 304.781856 -78.931904 
L 304.697683 -77.686316 
L 304.61181 -76.440728 
L 304.524556 -75.195141 
L 304.43632 -73.949553 
L 304.347563 -72.703966 
L 304.258797 -71.458378 
L 304.170557 -70.212791 
L 304.083392 -68.967203 
L 303.997845 -67.721616 
L 303.914435 -66.476028 
L 303.833649 -65.23044 
L 303.755925 -63.984853 
L 303.681644 -62.739265 
L 303.611129 -61.493678 
L 303.54463 -60.24809 
L 303.482335 -59.002503 
L 303.424361 -57.756915 
L 303.370759 -56.511328 
L 303.321521 -55.26574 
L 303.276583 -54.020152 
L 303.235831 -52.774565 
L 303.199109 -51.528977 
z
" id="m5870a7e2b7" style="stroke:#3e3e3e;stroke-width:1.5;"/>
    </defs>
    <g clip-path="url(#p7708ee7472)">
     <use style="fill:#cc834b;stroke:#3e3e3e;stroke-width:1.5;" x="0" xlink:href="#m5870a7e2b7" y="367.274375"/>
    </g>
   </g>
   <g id="patch_3">
    <path clip-path="url(#p7708ee7472)" d="M 120.863333 226.78646 
L 120.863333 226.78646 
L 120.863333 226.78646 
L 120.863333 226.78646 
z
" style="fill:#417192;stroke:#3e3e3e;stroke-linejoin:miter;stroke-width:0.75;"/>
   </g>
   <g id="patch_4">
    <path clip-path="url(#p7708ee7472)" d="M 120.863333 226.78646 
L 120.863333 226.78646 
L 120.863333 226.78646 
L 120.863333 226.78646 
z
" style="fill:#468746;stroke:#3e3e3e;stroke-linejoin:miter;stroke-width:0.75;"/>
   </g>
   <g id="patch_5">
    <path clip-path="url(#p7708ee7472)" d="M 120.863333 226.78646 
L 120.863333 226.78646 
L 120.863333 226.78646 
L 120.863333 226.78646 
z
" style="fill:#cc834b;stroke:#3e3e3e;stroke-linejoin:miter;stroke-width:0.75;"/>
   </g>
   <g id="matplotlib.axis_1">
    <g id="xtick_1">
     <g id="line2d_1">
      <defs>
       <path d="M 0 0 
L 0 3.5 
" id="mdeff1a4c73" style="stroke:#000000;stroke-width:0.8;"/>
      </defs>
      <g>
       <use style="stroke:#000000;stroke-width:0.8;" x="120.863333" xlink:href="#mdeff1a4c73" y="329.718125"/>
      </g>
     </g>
     <g id="text_1">
      <!-- Canonical+ -->
      <defs>
       <path d="M 64.40625 67.28125 
L 64.40625 56.890625 
Q 59.421875 61.53125 53.78125 63.8125 
Q 48.140625 66.109375 41.796875 66.109375 
Q 29.296875 66.109375 22.65625 58.46875 
Q 16.015625 50.828125 16.015625 36.375 
Q 16.015625 21.96875 22.65625 14.328125 
Q 29.296875 6.6875 41.796875 6.6875 
Q 48.140625 6.6875 53.78125 8.984375 
Q 59.421875 11.28125 64.40625 15.921875 
L 64.40625 5.609375 
Q 59.234375 2.09375 53.4375 0.328125 
Q 47.65625 -1.421875 41.21875 -1.421875 
Q 24.65625 -1.421875 15.125 8.703125 
Q 5.609375 18.84375 5.609375 36.375 
Q 5.609375 53.953125 15.125 64.078125 
Q 24.65625 74.21875 41.21875 74.21875 
Q 47.75 74.21875 53.53125 72.484375 
Q 59.328125 70.75 64.40625 67.28125 
z
" id="DejaVuSans-67"/>
       <path d="M 34.28125 27.484375 
Q 23.390625 27.484375 19.1875 25 
Q 14.984375 22.515625 14.984375 16.5 
Q 14.984375 11.71875 18.140625 8.90625 
Q 21.296875 6.109375 26.703125 6.109375 
Q 34.1875 6.109375 38.703125 11.40625 
Q 43.21875 16.703125 43.21875 25.484375 
L 43.21875 27.484375 
z
M 52.203125 31.203125 
L 52.203125 0 
L 43.21875 0 
L 43.21875 8.296875 
Q 40.140625 3.328125 35.546875 0.953125 
Q 30.953125 -1.421875 24.3125 -1.421875 
Q 15.921875 -1.421875 10.953125 3.296875 
Q 6 8.015625 6 15.921875 
Q 6 25.140625 12.171875 29.828125 
Q 18.359375 34.515625 30.609375 34.515625 
L 43.21875 34.515625 
L 43.21875 35.40625 
Q 43.21875 41.609375 39.140625 45 
Q 35.0625 48.390625 27.6875 48.390625 
Q 23 48.390625 18.546875 47.265625 
Q 14.109375 46.140625 10.015625 43.890625 
L 10.015625 52.203125 
Q 14.9375 54.109375 19.578125 55.046875 
Q 24.21875 56 28.609375 56 
Q 40.484375 56 46.34375 49.84375 
Q 52.203125 43.703125 52.203125 31.203125 
z
" id="DejaVuSans-97"/>
       <path d="M 54.890625 33.015625 
L 54.890625 0 
L 45.90625 0 
L 45.90625 32.71875 
Q 45.90625 40.484375 42.875 44.328125 
Q 39.84375 48.1875 33.796875 48.1875 
Q 26.515625 48.1875 22.3125 43.546875 
Q 18.109375 38.921875 18.109375 30.90625 
L 18.109375 0 
L 9.078125 0 
L 9.078125 54.6875 
L 18.109375 54.6875 
L 18.109375 46.1875 
Q 21.34375 51.125 25.703125 53.5625 
Q 30.078125 56 35.796875 56 
Q 45.21875 56 50.046875 50.171875 
Q 54.890625 44.34375 54.890625 33.015625 
z
" id="DejaVuSans-110"/>
       <path d="M 30.609375 48.390625 
Q 23.390625 48.390625 19.1875 42.75 
Q 14.984375 37.109375 14.984375 27.296875 
Q 14.984375 17.484375 19.15625 11.84375 
Q 23.34375 6.203125 30.609375 6.203125 
Q 37.796875 6.203125 41.984375 11.859375 
Q 46.1875 17.53125 46.1875 27.296875 
Q 46.1875 37.015625 41.984375 42.703125 
Q 37.796875 48.390625 30.609375 48.390625 
z
M 30.609375 56 
Q 42.328125 56 49.015625 48.375 
Q 55.71875 40.765625 55.71875 27.296875 
Q 55.71875 13.875 49.015625 6.21875 
Q 42.328125 -1.421875 30.609375 -1.421875 
Q 18.84375 -1.421875 12.171875 6.21875 
Q 5.515625 13.875 5.515625 27.296875 
Q 5.515625 40.765625 12.171875 48.375 
Q 18.84375 56 30.609375 56 
z
" id="DejaVuSans-111"/>
       <path d="M 9.421875 54.6875 
L 18.40625 54.6875 
L 18.40625 0 
L 9.421875 0 
z
M 9.421875 75.984375 
L 18.40625 75.984375 
L 18.40625 64.59375 
L 9.421875 64.59375 
z
" id="DejaVuSans-105"/>
       <path d="M 48.78125 52.59375 
L 48.78125 44.1875 
Q 44.96875 46.296875 41.140625 47.34375 
Q 37.3125 48.390625 33.40625 48.390625 
Q 24.65625 48.390625 19.8125 42.84375 
Q 14.984375 37.3125 14.984375 27.296875 
Q 14.984375 17.28125 19.8125 11.734375 
Q 24.65625 6.203125 33.40625 6.203125 
Q 37.3125 6.203125 41.140625 7.25 
Q 44.96875 8.296875 48.78125 10.40625 
L 48.78125 2.09375 
Q 45.015625 0.34375 40.984375 -0.53125 
Q 36.96875 -1.421875 32.421875 -1.421875 
Q 20.0625 -1.421875 12.78125 6.34375 
Q 5.515625 14.109375 5.515625 27.296875 
Q 5.515625 40.671875 12.859375 48.328125 
Q 20.21875 56 33.015625 56 
Q 37.15625 56 41.109375 55.140625 
Q 45.0625 54.296875 48.78125 52.59375 
z
" id="DejaVuSans-99"/>
       <path d="M 9.421875 75.984375 
L 18.40625 75.984375 
L 18.40625 0 
L 9.421875 0 
z
" id="DejaVuSans-108"/>
       <path d="M 46 62.703125 
L 46 35.5 
L 73.1875 35.5 
L 73.1875 27.203125 
L 46 27.203125 
L 46 0 
L 37.796875 0 
L 37.796875 27.203125 
L 10.59375 27.203125 
L 10.59375 35.5 
L 37.796875 35.5 
L 37.796875 62.703125 
z
" id="DejaVuSans-43"/>
      </defs>
      <g transform="translate(92.12974 344.316562)scale(0.1 -0.1)">
       <use xlink:href="#DejaVuSans-67"/>
       <use x="69.824219" xlink:href="#DejaVuSans-97"/>
       <use x="131.103516" xlink:href="#DejaVuSans-110"/>
       <use x="194.482422" xlink:href="#DejaVuSans-111"/>
       <use x="255.664062" xlink:href="#DejaVuSans-110"/>
       <use x="319.042969" xlink:href="#DejaVuSans-105"/>
       <use x="346.826172" xlink:href="#DejaVuSans-99"/>
       <use x="401.806641" xlink:href="#DejaVuSans-97"/>
       <use x="463.085938" xlink:href="#DejaVuSans-108"/>
       <use x="490.869141" xlink:href="#DejaVuSans-43"/>
      </g>
     </g>
    </g>
    <g id="xtick_2">
     <g id="line2d_2">
      <g>
       <use style="stroke:#000000;stroke-width:0.8;" x="264.624375" xlink:href="#mdeff1a4c73" y="329.718125"/>
      </g>
     </g>
     <g id="text_2">
      <!-- Canonical- -->
      <defs>
       <path d="M 4.890625 31.390625 
L 31.203125 31.390625 
L 31.203125 23.390625 
L 4.890625 23.390625 
z
" id="DejaVuSans-45"/>
      </defs>
      <g transform="translate(238.276719 344.316562)scale(0.1 -0.1)">
       <use xlink:href="#DejaVuSans-67"/>
       <use x="69.824219" xlink:href="#DejaVuSans-97"/>
       <use x="131.103516" xlink:href="#DejaVuSans-110"/>
       <use x="194.482422" xlink:href="#DejaVuSans-111"/>
       <use x="255.664062" xlink:href="#DejaVuSans-110"/>
       <use x="319.042969" xlink:href="#DejaVuSans-105"/>
       <use x="346.826172" xlink:href="#DejaVuSans-99"/>
       <use x="401.806641" xlink:href="#DejaVuSans-97"/>
       <use x="463.085938" xlink:href="#DejaVuSans-108"/>
       <use x="490.869141" xlink:href="#DejaVuSans-45"/>
      </g>
     </g>
    </g>
    <g id="text_3">
     <!-- Gene set expansions (+) or contractions (-) -->
     <defs>
      <path d="M 59.515625 10.40625 
L 59.515625 29.984375 
L 43.40625 29.984375 
L 43.40625 38.09375 
L 69.28125 38.09375 
L 69.28125 6.78125 
Q 63.578125 2.734375 56.6875 0.65625 
Q 49.8125 -1.421875 42 -1.421875 
Q 24.90625 -1.421875 15.25 8.5625 
Q 5.609375 18.5625 5.609375 36.375 
Q 5.609375 54.25 15.25 64.234375 
Q 24.90625 74.21875 42 74.21875 
Q 49.125 74.21875 55.546875 72.453125 
Q 61.96875 70.703125 67.390625 67.28125 
L 67.390625 56.78125 
Q 61.921875 61.421875 55.765625 63.765625 
Q 49.609375 66.109375 42.828125 66.109375 
Q 29.4375 66.109375 22.71875 58.640625 
Q 16.015625 51.171875 16.015625 36.375 
Q 16.015625 21.625 22.71875 14.15625 
Q 29.4375 6.6875 42.828125 6.6875 
Q 48.046875 6.6875 52.140625 7.59375 
Q 56.25 8.5 59.515625 10.40625 
z
" id="DejaVuSans-71"/>
      <path d="M 56.203125 29.59375 
L 56.203125 25.203125 
L 14.890625 25.203125 
Q 15.484375 15.921875 20.484375 11.0625 
Q 25.484375 6.203125 34.421875 6.203125 
Q 39.59375 6.203125 44.453125 7.46875 
Q 49.3125 8.734375 54.109375 11.28125 
L 54.109375 2.78125 
Q 49.265625 0.734375 44.1875 -0.34375 
Q 39.109375 -1.421875 33.890625 -1.421875 
Q 20.796875 -1.421875 13.15625 6.1875 
Q 5.515625 13.8125 5.515625 26.8125 
Q 5.515625 40.234375 12.765625 48.109375 
Q 20.015625 56 32.328125 56 
Q 43.359375 56 49.78125 48.890625 
Q 56.203125 41.796875 56.203125 29.59375 
z
M 47.21875 32.234375 
Q 47.125 39.59375 43.09375 43.984375 
Q 39.0625 48.390625 32.421875 48.390625 
Q 24.90625 48.390625 20.390625 44.140625 
Q 15.875 39.890625 15.1875 32.171875 
z
" id="DejaVuSans-101"/>
      <path id="DejaVuSans-32"/>
      <path d="M 44.28125 53.078125 
L 44.28125 44.578125 
Q 40.484375 46.53125 36.375 47.5 
Q 32.28125 48.484375 27.875 48.484375 
Q 21.1875 48.484375 17.84375 46.4375 
Q 14.5 44.390625 14.5 40.28125 
Q 14.5 37.15625 16.890625 35.375 
Q 19.28125 33.59375 26.515625 31.984375 
L 29.59375 31.296875 
Q 39.15625 29.25 43.1875 25.515625 
Q 47.21875 21.78125 47.21875 15.09375 
Q 47.21875 7.46875 41.1875 3.015625 
Q 35.15625 -1.421875 24.609375 -1.421875 
Q 20.21875 -1.421875 15.453125 -0.5625 
Q 10.6875 0.296875 5.421875 2 
L 5.421875 11.28125 
Q 10.40625 8.6875 15.234375 7.390625 
Q 20.0625 6.109375 24.8125 6.109375 
Q 31.15625 6.109375 34.5625 8.28125 
Q 37.984375 10.453125 37.984375 14.40625 
Q 37.984375 18.0625 35.515625 20.015625 
Q 33.0625 21.96875 24.703125 23.78125 
L 21.578125 24.515625 
Q 13.234375 26.265625 9.515625 29.90625 
Q 5.8125 33.546875 5.8125 39.890625 
Q 5.8125 47.609375 11.28125 51.796875 
Q 16.75 56 26.8125 56 
Q 31.78125 56 36.171875 55.265625 
Q 40.578125 54.546875 44.28125 53.078125 
z
" id="DejaVuSans-115"/>
      <path d="M 18.3125 70.21875 
L 18.3125 54.6875 
L 36.8125 54.6875 
L 36.8125 47.703125 
L 18.3125 47.703125 
L 18.3125 18.015625 
Q 18.3125 11.328125 20.140625 9.421875 
Q 21.96875 7.515625 27.59375 7.515625 
L 36.8125 7.515625 
L 36.8125 0 
L 27.59375 0 
Q 17.1875 0 13.234375 3.875 
Q 9.28125 7.765625 9.28125 18.015625 
L 9.28125 47.703125 
L 2.6875 47.703125 
L 2.6875 54.6875 
L 9.28125 54.6875 
L 9.28125 70.21875 
z
" id="DejaVuSans-116"/>
      <path d="M 54.890625 54.6875 
L 35.109375 28.078125 
L 55.90625 0 
L 45.3125 0 
L 29.390625 21.484375 
L 13.484375 0 
L 2.875 0 
L 24.125 28.609375 
L 4.6875 54.6875 
L 15.28125 54.6875 
L 29.78125 35.203125 
L 44.28125 54.6875 
z
" id="DejaVuSans-120"/>
      <path d="M 18.109375 8.203125 
L 18.109375 -20.796875 
L 9.078125 -20.796875 
L 9.078125 54.6875 
L 18.109375 54.6875 
L 18.109375 46.390625 
Q 20.953125 51.265625 25.265625 53.625 
Q 29.59375 56 35.59375 56 
Q 45.5625 56 51.78125 48.09375 
Q 58.015625 40.1875 58.015625 27.296875 
Q 58.015625 14.40625 51.78125 6.484375 
Q 45.5625 -1.421875 35.59375 -1.421875 
Q 29.59375 -1.421875 25.265625 0.953125 
Q 20.953125 3.328125 18.109375 8.203125 
z
M 48.6875 27.296875 
Q 48.6875 37.203125 44.609375 42.84375 
Q 40.53125 48.484375 33.40625 48.484375 
Q 26.265625 48.484375 22.1875 42.84375 
Q 18.109375 37.203125 18.109375 27.296875 
Q 18.109375 17.390625 22.1875 11.75 
Q 26.265625 6.109375 33.40625 6.109375 
Q 40.53125 6.109375 44.609375 11.75 
Q 48.6875 17.390625 48.6875 27.296875 
z
" id="DejaVuSans-112"/>
      <path d="M 31 75.875 
Q 24.46875 64.65625 21.28125 53.65625 
Q 18.109375 42.671875 18.109375 31.390625 
Q 18.109375 20.125 21.3125 9.0625 
Q 24.515625 -2 31 -13.1875 
L 23.1875 -13.1875 
Q 15.875 -1.703125 12.234375 9.375 
Q 8.59375 20.453125 8.59375 31.390625 
Q 8.59375 42.28125 12.203125 53.3125 
Q 15.828125 64.359375 23.1875 75.875 
z
" id="DejaVuSans-40"/>
      <path d="M 8.015625 75.875 
L 15.828125 75.875 
Q 23.140625 64.359375 26.78125 53.3125 
Q 30.421875 42.28125 30.421875 31.390625 
Q 30.421875 20.453125 26.78125 9.375 
Q 23.140625 -1.703125 15.828125 -13.1875 
L 8.015625 -13.1875 
Q 14.5 -2 17.703125 9.0625 
Q 20.90625 20.125 20.90625 31.390625 
Q 20.90625 42.671875 17.703125 53.65625 
Q 14.5 64.65625 8.015625 75.875 
z
" id="DejaVuSans-41"/>
      <path d="M 41.109375 46.296875 
Q 39.59375 47.171875 37.8125 47.578125 
Q 36.03125 48 33.890625 48 
Q 26.265625 48 22.1875 43.046875 
Q 18.109375 38.09375 18.109375 28.8125 
L 18.109375 0 
L 9.078125 0 
L 9.078125 54.6875 
L 18.109375 54.6875 
L 18.109375 46.1875 
Q 20.953125 51.171875 25.484375 53.578125 
Q 30.03125 56 36.53125 56 
Q 37.453125 56 38.578125 55.875 
Q 39.703125 55.765625 41.0625 55.515625 
z
" id="DejaVuSans-114"/>
     </defs>
     <g transform="translate(84.203229 357.994687)scale(0.1 -0.1)">
      <use xlink:href="#DejaVuSans-71"/>
      <use x="77.490234" xlink:href="#DejaVuSans-101"/>
      <use x="139.013672" xlink:href="#DejaVuSans-110"/>
      <use x="202.392578" xlink:href="#DejaVuSans-101"/>
      <use x="263.916016" xlink:href="#DejaVuSans-32"/>
      <use x="295.703125" xlink:href="#DejaVuSans-115"/>
      <use x="347.802734" xlink:href="#DejaVuSans-101"/>
      <use x="409.326172" xlink:href="#DejaVuSans-116"/>
      <use x="448.535156" xlink:href="#DejaVuSans-32"/>
      <use x="480.322266" xlink:href="#DejaVuSans-101"/>
      <use x="541.830078" xlink:href="#DejaVuSans-120"/>
      <use x="601.009766" xlink:href="#DejaVuSans-112"/>
      <use x="664.486328" xlink:href="#DejaVuSans-97"/>
      <use x="725.765625" xlink:href="#DejaVuSans-110"/>
      <use x="789.144531" xlink:href="#DejaVuSans-115"/>
      <use x="841.244141" xlink:href="#DejaVuSans-105"/>
      <use x="869.027344" xlink:href="#DejaVuSans-111"/>
      <use x="930.208984" xlink:href="#DejaVuSans-110"/>
      <use x="993.587891" xlink:href="#DejaVuSans-115"/>
      <use x="1045.6875" xlink:href="#DejaVuSans-32"/>
      <use x="1077.474609" xlink:href="#DejaVuSans-40"/>
      <use x="1116.488281" xlink:href="#DejaVuSans-43"/>
      <use x="1200.277344" xlink:href="#DejaVuSans-41"/>
      <use x="1239.291016" xlink:href="#DejaVuSans-32"/>
      <use x="1271.078125" xlink:href="#DejaVuSans-111"/>
      <use x="1332.259766" xlink:href="#DejaVuSans-114"/>
      <use x="1373.373047" xlink:href="#DejaVuSans-32"/>
      <use x="1405.160156" xlink:href="#DejaVuSans-99"/>
      <use x="1460.140625" xlink:href="#DejaVuSans-111"/>
      <use x="1521.322266" xlink:href="#DejaVuSans-110"/>
      <use x="1584.701172" xlink:href="#DejaVuSans-116"/>
      <use x="1623.910156" xlink:href="#DejaVuSans-114"/>
      <use x="1665.023438" xlink:href="#DejaVuSans-97"/>
      <use x="1726.302734" xlink:href="#DejaVuSans-99"/>
      <use x="1781.283203" xlink:href="#DejaVuSans-116"/>
      <use x="1820.492188" xlink:href="#DejaVuSans-105"/>
      <use x="1848.275391" xlink:href="#DejaVuSans-111"/>
      <use x="1909.457031" xlink:href="#DejaVuSans-110"/>
      <use x="1972.835938" xlink:href="#DejaVuSans-115"/>
      <use x="2024.935547" xlink:href="#DejaVuSans-32"/>
      <use x="2056.722656" xlink:href="#DejaVuSans-40"/>
      <use x="2095.736328" xlink:href="#DejaVuSans-45"/>
      <use x="2131.820312" xlink:href="#DejaVuSans-41"/>
     </g>
    </g>
   </g>
   <g id="matplotlib.axis_2">
    <g id="ytick_1">
     <g id="line2d_3">
      <defs>
       <path d="M 0 0 
L -3.5 0 
" id="m148a22cf0d" style="stroke:#000000;stroke-width:0.8;"/>
      </defs>
      <g>
       <use style="stroke:#000000;stroke-width:0.8;" x="48.982813" xlink:href="#m148a22cf0d" y="281.391167"/>
      </g>
     </g>
     <g id="text_4">
      <!-- −20 -->
      <defs>
       <path d="M 10.59375 35.5 
L 73.1875 35.5 
L 73.1875 27.203125 
L 10.59375 27.203125 
z
" id="DejaVuSans-8722"/>
       <path d="M 19.1875 8.296875 
L 53.609375 8.296875 
L 53.609375 0 
L 7.328125 0 
L 7.328125 8.296875 
Q 12.9375 14.109375 22.625 23.890625 
Q 32.328125 33.6875 34.8125 36.53125 
Q 39.546875 41.84375 41.421875 45.53125 
Q 43.3125 49.21875 43.3125 52.78125 
Q 43.3125 58.59375 39.234375 62.25 
Q 35.15625 65.921875 28.609375 65.921875 
Q 23.96875 65.921875 18.8125 64.3125 
Q 13.671875 62.703125 7.8125 59.421875 
L 7.8125 69.390625 
Q 13.765625 71.78125 18.9375 73 
Q 24.125 74.21875 28.421875 74.21875 
Q 39.75 74.21875 46.484375 68.546875 
Q 53.21875 62.890625 53.21875 53.421875 
Q 53.21875 48.921875 51.53125 44.890625 
Q 49.859375 40.875 45.40625 35.40625 
Q 44.1875 33.984375 37.640625 27.21875 
Q 31.109375 20.453125 19.1875 8.296875 
z
" id="DejaVuSans-50"/>
       <path d="M 31.78125 66.40625 
Q 24.171875 66.40625 20.328125 58.90625 
Q 16.5 51.421875 16.5 36.375 
Q 16.5 21.390625 20.328125 13.890625 
Q 24.171875 6.390625 31.78125 6.390625 
Q 39.453125 6.390625 43.28125 13.890625 
Q 47.125 21.390625 47.125 36.375 
Q 47.125 51.421875 43.28125 58.90625 
Q 39.453125 66.40625 31.78125 66.40625 
z
M 31.78125 74.21875 
Q 44.046875 74.21875 50.515625 64.515625 
Q 56.984375 54.828125 56.984375 36.375 
Q 56.984375 17.96875 50.515625 8.265625 
Q 44.046875 -1.421875 31.78125 -1.421875 
Q 19.53125 -1.421875 13.0625 8.265625 
Q 6.59375 17.96875 6.59375 36.375 
Q 6.59375 54.828125 13.0625 64.515625 
Q 19.53125 74.21875 31.78125 74.21875 
z
" id="DejaVuSans-48"/>
      </defs>
      <g transform="translate(20.878125 285.190386)scale(0.1 -0.1)">
       <use xlink:href="#DejaVuSans-8722"/>
       <use x="83.789062" xlink:href="#DejaVuSans-50"/>
       <use x="147.412109" xlink:href="#DejaVuSans-48"/>
      </g>
     </g>
    </g>
    <g id="ytick_2">
     <g id="line2d_4">
      <g>
       <use style="stroke:#000000;stroke-width:0.8;" x="48.982813" xlink:href="#m148a22cf0d" y="226.78646"/>
      </g>
     </g>
     <g id="text_5">
      <!-- 0 -->
      <g transform="translate(35.620313 230.585678)scale(0.1 -0.1)">
       <use xlink:href="#DejaVuSans-48"/>
      </g>
     </g>
    </g>
    <g id="ytick_3">
     <g id="line2d_5">
      <g>
       <use style="stroke:#000000;stroke-width:0.8;" x="48.982813" xlink:href="#m148a22cf0d" y="172.181752"/>
      </g>
     </g>
     <g id="text_6">
      <!-- 20 -->
      <g transform="translate(29.257813 175.98097)scale(0.1 -0.1)">
       <use xlink:href="#DejaVuSans-50"/>
       <use x="63.623047" xlink:href="#DejaVuSans-48"/>
      </g>
     </g>
    </g>
    <g id="ytick_4">
     <g id="line2d_6">
      <g>
       <use style="stroke:#000000;stroke-width:0.8;" x="48.982813" xlink:href="#m148a22cf0d" y="117.577044"/>
      </g>
     </g>
     <g id="text_7">
      <!-- 40 -->
      <defs>
       <path d="M 37.796875 64.3125 
L 12.890625 25.390625 
L 37.796875 25.390625 
z
M 35.203125 72.90625 
L 47.609375 72.90625 
L 47.609375 25.390625 
L 58.015625 25.390625 
L 58.015625 17.1875 
L 47.609375 17.1875 
L 47.609375 0 
L 37.796875 0 
L 37.796875 17.1875 
L 4.890625 17.1875 
L 4.890625 26.703125 
z
" id="DejaVuSans-52"/>
      </defs>
      <g transform="translate(29.257813 121.376262)scale(0.1 -0.1)">
       <use xlink:href="#DejaVuSans-52"/>
       <use x="63.623047" xlink:href="#DejaVuSans-48"/>
      </g>
     </g>
    </g>
    <g id="ytick_5">
     <g id="line2d_7">
      <g>
       <use style="stroke:#000000;stroke-width:0.8;" x="48.982813" xlink:href="#m148a22cf0d" y="62.972336"/>
      </g>
     </g>
     <g id="text_8">
      <!-- 60 -->
      <defs>
       <path d="M 33.015625 40.375 
Q 26.375 40.375 22.484375 35.828125 
Q 18.609375 31.296875 18.609375 23.390625 
Q 18.609375 15.53125 22.484375 10.953125 
Q 26.375 6.390625 33.015625 6.390625 
Q 39.65625 6.390625 43.53125 10.953125 
Q 47.40625 15.53125 47.40625 23.390625 
Q 47.40625 31.296875 43.53125 35.828125 
Q 39.65625 40.375 33.015625 40.375 
z
M 52.59375 71.296875 
L 52.59375 62.3125 
Q 48.875 64.0625 45.09375 64.984375 
Q 41.3125 65.921875 37.59375 65.921875 
Q 27.828125 65.921875 22.671875 59.328125 
Q 17.53125 52.734375 16.796875 39.40625 
Q 19.671875 43.65625 24.015625 45.921875 
Q 28.375 48.1875 33.59375 48.1875 
Q 44.578125 48.1875 50.953125 41.515625 
Q 57.328125 34.859375 57.328125 23.390625 
Q 57.328125 12.15625 50.6875 5.359375 
Q 44.046875 -1.421875 33.015625 -1.421875 
Q 20.359375 -1.421875 13.671875 8.265625 
Q 6.984375 17.96875 6.984375 36.375 
Q 6.984375 53.65625 15.1875 63.9375 
Q 23.390625 74.21875 37.203125 74.21875 
Q 40.921875 74.21875 44.703125 73.484375 
Q 48.484375 72.75 52.59375 71.296875 
z
" id="DejaVuSans-54"/>
      </defs>
      <g transform="translate(29.257813 66.771555)scale(0.1 -0.1)">
       <use xlink:href="#DejaVuSans-54"/>
       <use x="63.623047" xlink:href="#DejaVuSans-48"/>
      </g>
     </g>
    </g>
    <g id="text_9">
     <!-- Significant gene family expansions or contractions -->
     <defs>
      <path d="M 53.515625 70.515625 
L 53.515625 60.890625 
Q 47.90625 63.578125 42.921875 64.890625 
Q 37.9375 66.21875 33.296875 66.21875 
Q 25.25 66.21875 20.875 63.09375 
Q 16.5 59.96875 16.5 54.203125 
Q 16.5 49.359375 19.40625 46.890625 
Q 22.3125 44.4375 30.421875 42.921875 
L 36.375 41.703125 
Q 47.40625 39.59375 52.65625 34.296875 
Q 57.90625 29 57.90625 20.125 
Q 57.90625 9.515625 50.796875 4.046875 
Q 43.703125 -1.421875 29.984375 -1.421875 
Q 24.8125 -1.421875 18.96875 -0.25 
Q 13.140625 0.921875 6.890625 3.21875 
L 6.890625 13.375 
Q 12.890625 10.015625 18.65625 8.296875 
Q 24.421875 6.59375 29.984375 6.59375 
Q 38.421875 6.59375 43.015625 9.90625 
Q 47.609375 13.234375 47.609375 19.390625 
Q 47.609375 24.75 44.3125 27.78125 
Q 41.015625 30.8125 33.5 32.328125 
L 27.484375 33.5 
Q 16.453125 35.6875 11.515625 40.375 
Q 6.59375 45.0625 6.59375 53.421875 
Q 6.59375 63.09375 13.40625 68.65625 
Q 20.21875 74.21875 32.171875 74.21875 
Q 37.3125 74.21875 42.625 73.28125 
Q 47.953125 72.359375 53.515625 70.515625 
z
" id="DejaVuSans-83"/>
      <path d="M 45.40625 27.984375 
Q 45.40625 37.75 41.375 43.109375 
Q 37.359375 48.484375 30.078125 48.484375 
Q 22.859375 48.484375 18.828125 43.109375 
Q 14.796875 37.75 14.796875 27.984375 
Q 14.796875 18.265625 18.828125 12.890625 
Q 22.859375 7.515625 30.078125 7.515625 
Q 37.359375 7.515625 41.375 12.890625 
Q 45.40625 18.265625 45.40625 27.984375 
z
M 54.390625 6.78125 
Q 54.390625 -7.171875 48.1875 -13.984375 
Q 42 -20.796875 29.203125 -20.796875 
Q 24.46875 -20.796875 20.265625 -20.09375 
Q 16.0625 -19.390625 12.109375 -17.921875 
L 12.109375 -9.1875 
Q 16.0625 -11.328125 19.921875 -12.34375 
Q 23.78125 -13.375 27.78125 -13.375 
Q 36.625 -13.375 41.015625 -8.765625 
Q 45.40625 -4.15625 45.40625 5.171875 
L 45.40625 9.625 
Q 42.625 4.78125 38.28125 2.390625 
Q 33.9375 0 27.875 0 
Q 17.828125 0 11.671875 7.65625 
Q 5.515625 15.328125 5.515625 27.984375 
Q 5.515625 40.671875 11.671875 48.328125 
Q 17.828125 56 27.875 56 
Q 33.9375 56 38.28125 53.609375 
Q 42.625 51.21875 45.40625 46.390625 
L 45.40625 54.6875 
L 54.390625 54.6875 
z
" id="DejaVuSans-103"/>
      <path d="M 37.109375 75.984375 
L 37.109375 68.5 
L 28.515625 68.5 
Q 23.6875 68.5 21.796875 66.546875 
Q 19.921875 64.59375 19.921875 59.515625 
L 19.921875 54.6875 
L 34.71875 54.6875 
L 34.71875 47.703125 
L 19.921875 47.703125 
L 19.921875 0 
L 10.890625 0 
L 10.890625 47.703125 
L 2.296875 47.703125 
L 2.296875 54.6875 
L 10.890625 54.6875 
L 10.890625 58.5 
Q 10.890625 67.625 15.140625 71.796875 
Q 19.390625 75.984375 28.609375 75.984375 
z
" id="DejaVuSans-102"/>
      <path d="M 52 44.1875 
Q 55.375 50.25 60.0625 53.125 
Q 64.75 56 71.09375 56 
Q 79.640625 56 84.28125 50.015625 
Q 88.921875 44.046875 88.921875 33.015625 
L 88.921875 0 
L 79.890625 0 
L 79.890625 32.71875 
Q 79.890625 40.578125 77.09375 44.375 
Q 74.3125 48.1875 68.609375 48.1875 
Q 61.625 48.1875 57.5625 43.546875 
Q 53.515625 38.921875 53.515625 30.90625 
L 53.515625 0 
L 44.484375 0 
L 44.484375 32.71875 
Q 44.484375 40.625 41.703125 44.40625 
Q 38.921875 48.1875 33.109375 48.1875 
Q 26.21875 48.1875 22.15625 43.53125 
Q 18.109375 38.875 18.109375 30.90625 
L 18.109375 0 
L 9.078125 0 
L 9.078125 54.6875 
L 18.109375 54.6875 
L 18.109375 46.1875 
Q 21.1875 51.21875 25.484375 53.609375 
Q 29.78125 56 35.6875 56 
Q 41.65625 56 45.828125 52.96875 
Q 50 49.953125 52 44.1875 
z
" id="DejaVuSans-109"/>
      <path d="M 32.171875 -5.078125 
Q 28.375 -14.84375 24.75 -17.8125 
Q 21.140625 -20.796875 15.09375 -20.796875 
L 7.90625 -20.796875 
L 7.90625 -13.28125 
L 13.1875 -13.28125 
Q 16.890625 -13.28125 18.9375 -11.515625 
Q 21 -9.765625 23.484375 -3.21875 
L 25.09375 0.875 
L 2.984375 54.6875 
L 12.5 54.6875 
L 29.59375 11.921875 
L 46.6875 54.6875 
L 56.203125 54.6875 
z
" id="DejaVuSans-121"/>
     </defs>
     <g transform="translate(14.798438 302.650156)rotate(-90)scale(0.1 -0.1)">
      <use xlink:href="#DejaVuSans-83"/>
      <use x="63.476562" xlink:href="#DejaVuSans-105"/>
      <use x="91.259766" xlink:href="#DejaVuSans-103"/>
      <use x="154.736328" xlink:href="#DejaVuSans-110"/>
      <use x="218.115234" xlink:href="#DejaVuSans-105"/>
      <use x="245.898438" xlink:href="#DejaVuSans-102"/>
      <use x="281.103516" xlink:href="#DejaVuSans-105"/>
      <use x="308.886719" xlink:href="#DejaVuSans-99"/>
      <use x="363.867188" xlink:href="#DejaVuSans-97"/>
      <use x="425.146484" xlink:href="#DejaVuSans-110"/>
      <use x="488.525391" xlink:href="#DejaVuSans-116"/>
      <use x="527.734375" xlink:href="#DejaVuSans-32"/>
      <use x="559.521484" xlink:href="#DejaVuSans-103"/>
      <use x="622.998047" xlink:href="#DejaVuSans-101"/>
      <use x="684.521484" xlink:href="#DejaVuSans-110"/>
      <use x="747.900391" xlink:href="#DejaVuSans-101"/>
      <use x="809.423828" xlink:href="#DejaVuSans-32"/>
      <use x="841.210938" xlink:href="#DejaVuSans-102"/>
      <use x="876.416016" xlink:href="#DejaVuSans-97"/>
      <use x="937.695312" xlink:href="#DejaVuSans-109"/>
      <use x="1035.107422" xlink:href="#DejaVuSans-105"/>
      <use x="1062.890625" xlink:href="#DejaVuSans-108"/>
      <use x="1090.673828" xlink:href="#DejaVuSans-121"/>
      <use x="1149.853516" xlink:href="#DejaVuSans-32"/>
      <use x="1181.640625" xlink:href="#DejaVuSans-101"/>
      <use x="1243.148438" xlink:href="#DejaVuSans-120"/>
      <use x="1302.328125" xlink:href="#DejaVuSans-112"/>
      <use x="1365.804688" xlink:href="#DejaVuSans-97"/>
      <use x="1427.083984" xlink:href="#DejaVuSans-110"/>
      <use x="1490.462891" xlink:href="#DejaVuSans-115"/>
      <use x="1542.5625" xlink:href="#DejaVuSans-105"/>
      <use x="1570.345703" xlink:href="#DejaVuSans-111"/>
      <use x="1631.527344" xlink:href="#DejaVuSans-110"/>
      <use x="1694.90625" xlink:href="#DejaVuSans-115"/>
      <use x="1747.005859" xlink:href="#DejaVuSans-32"/>
      <use x="1778.792969" xlink:href="#DejaVuSans-111"/>
      <use x="1839.974609" xlink:href="#DejaVuSans-114"/>
      <use x="1881.087891" xlink:href="#DejaVuSans-32"/>
      <use x="1912.875" xlink:href="#DejaVuSans-99"/>
      <use x="1967.855469" xlink:href="#DejaVuSans-111"/>
      <use x="2029.037109" xlink:href="#DejaVuSans-110"/>
      <use x="2092.416016" xlink:href="#DejaVuSans-116"/>
      <use x="2131.625" xlink:href="#DejaVuSans-114"/>
      <use x="2172.738281" xlink:href="#DejaVuSans-97"/>
      <use x="2234.017578" xlink:href="#DejaVuSans-99"/>
      <use x="2288.998047" xlink:href="#DejaVuSans-116"/>
      <use x="2328.207031" xlink:href="#DejaVuSans-105"/>
      <use x="2355.990234" xlink:href="#DejaVuSans-111"/>
      <use x="2417.171875" xlink:href="#DejaVuSans-110"/>
      <use x="2480.550781" xlink:href="#DejaVuSans-115"/>
     </g>
    </g>
   </g>
   <g id="line2d_8">
    <path clip-path="url(#p7708ee7472)" d="M 82.527056 226.78646 
L 82.527056 194.023635 
" style="fill:none;stroke:#3e3e3e;stroke-linecap:square;stroke-width:1.5;"/>
   </g>
   <g id="line2d_9">
    <path clip-path="url(#p7708ee7472)" d="M 82.527056 224.738783 
L 82.527056 210.405047 
" style="fill:none;stroke:#3e3e3e;stroke-linecap:square;stroke-width:4.5;"/>
   </g>
   <g id="line2d_10">
    <path clip-path="url(#p7708ee7472)" d="M 120.863333 226.78646 
L 120.863333 150.339868 
" style="fill:none;stroke:#3e3e3e;stroke-linecap:square;stroke-width:1.5;"/>
   </g>
   <g id="line2d_11">
    <path clip-path="url(#p7708ee7472)" d="M 120.863333 224.056224 
L 120.863333 183.102693 
" style="fill:none;stroke:#3e3e3e;stroke-linecap:square;stroke-width:4.5;"/>
   </g>
   <g id="line2d_12">
    <path clip-path="url(#p7708ee7472)" d="M 159.199611 226.78646 
L 159.199611 226.78646 
" style="fill:none;stroke:#3e3e3e;stroke-linecap:square;stroke-width:1.5;"/>
   </g>
   <g id="line2d_13">
    <path clip-path="url(#p7708ee7472)" d="M 159.199611 226.78646 
L 159.199611 213.135283 
" style="fill:none;stroke:#3e3e3e;stroke-linecap:square;stroke-width:4.5;"/>
   </g>
   <g id="line2d_14">
    <path clip-path="url(#p7708ee7472)" d="M 226.288097 245.898107 
L 226.288097 226.78646 
" style="fill:none;stroke:#3e3e3e;stroke-linecap:square;stroke-width:1.5;"/>
   </g>
   <g id="line2d_15">
    <path clip-path="url(#p7708ee7472)" d="M 226.288097 241.120195 
L 226.288097 228.834136 
" style="fill:none;stroke:#3e3e3e;stroke-linecap:square;stroke-width:4.5;"/>
   </g>
   <g id="line2d_16">
    <path clip-path="url(#p7708ee7472)" d="M 264.624375 237.707401 
L 264.624375 226.78646 
" style="fill:none;stroke:#3e3e3e;stroke-linecap:square;stroke-width:1.5;"/>
   </g>
   <g id="line2d_17">
    <path clip-path="url(#p7708ee7472)" d="M 264.624375 232.24693 
L 264.624375 226.78646 
" style="fill:none;stroke:#3e3e3e;stroke-linecap:square;stroke-width:4.5;"/>
   </g>
   <g id="line2d_18">
    <path clip-path="url(#p7708ee7472)" d="M 302.960653 248.628343 
L 302.960653 226.78646 
" style="fill:none;stroke:#3e3e3e;stroke-linecap:square;stroke-width:1.5;"/>
   </g>
   <g id="line2d_19">
    <path clip-path="url(#p7708ee7472)" d="M 302.960653 256.819049 
L 302.960653 241.120195 
" style="fill:none;stroke:#3e3e3e;stroke-linecap:square;stroke-width:4.5;"/>
   </g>
   <g id="patch_6">
    <path d="M 48.982813 329.718125 
L 48.982813 22.318125 
" style="fill:none;stroke:#000000;stroke-linecap:square;stroke-linejoin:miter;stroke-width:0.8;"/>
   </g>
   <g id="patch_7">
    <path d="M 48.982813 329.718125 
L 336.504896 329.718125 
" style="fill:none;stroke:#000000;stroke-linecap:square;stroke-linejoin:miter;stroke-width:0.8;"/>
   </g>
   <g id="PathCollection_1">
    <defs>
     <path d="M 0 1.5 
C 0.397805 1.5 0.77937 1.341951 1.06066 1.06066 
C 1.341951 0.77937 1.5 0.397805 1.5 0 
C 1.5 -0.397805 1.341951 -0.77937 1.06066 -1.06066 
C 0.77937 -1.341951 0.397805 -1.5 0 -1.5 
C -0.397805 -1.5 -0.77937 -1.341951 -1.06066 -1.06066 
C -1.341951 -0.77937 -1.5 -0.397805 -1.5 0 
C -1.5 0.397805 -1.341951 0.77937 -1.06066 1.06066 
C -0.77937 1.341951 -0.397805 1.5 0 1.5 
z
" id="m5b1c85ff3a" style="stroke:#3e3e3e;"/>
    </defs>
    <g clip-path="url(#p7708ee7472)">
     <use style="fill:#ffffff;stroke:#3e3e3e;" x="82.527056" xlink:href="#m5b1c85ff3a" y="224.056224"/>
    </g>
   </g>
   <g id="PathCollection_2">
    <g clip-path="url(#p7708ee7472)">
     <use style="fill:#ffffff;stroke:#3e3e3e;" x="120.863333" xlink:href="#m5b1c85ff3a" y="194.023635"/>
    </g>
   </g>
   <g id="PathCollection_3">
    <g clip-path="url(#p7708ee7472)">
     <use style="fill:#ffffff;stroke:#3e3e3e;" x="159.199611" xlink:href="#m5b1c85ff3a" y="226.78646"/>
    </g>
   </g>
   <g id="PathCollection_4">
    <g clip-path="url(#p7708ee7472)">
     <use style="fill:#ffffff;stroke:#3e3e3e;" x="226.288097" xlink:href="#m5b1c85ff3a" y="233.612048"/>
    </g>
   </g>
   <g id="PathCollection_5">
    <g clip-path="url(#p7708ee7472)">
     <use style="fill:#ffffff;stroke:#3e3e3e;" x="264.624375" xlink:href="#m5b1c85ff3a" y="229.516695"/>
    </g>
   </g>
   <g id="PathCollection_6">
    <g clip-path="url(#p7708ee7472)">
     <use style="fill:#ffffff;stroke:#3e3e3e;" x="302.960653" xlink:href="#m5b1c85ff3a" y="247.263225"/>
    </g>
   </g>
   <g id="text_10">
    <!-- Canonical Immune Genes -->
    <defs>
     <path d="M 9.8125 72.90625 
L 19.671875 72.90625 
L 19.671875 0 
L 9.8125 0 
z
" id="DejaVuSans-73"/>
     <path d="M 8.5 21.578125 
L 8.5 54.6875 
L 17.484375 54.6875 
L 17.484375 21.921875 
Q 17.484375 14.15625 20.5 10.265625 
Q 23.53125 6.390625 29.59375 6.390625 
Q 36.859375 6.390625 41.078125 11.03125 
Q 45.3125 15.671875 45.3125 23.6875 
L 45.3125 54.6875 
L 54.296875 54.6875 
L 54.296875 0 
L 45.3125 0 
L 45.3125 8.40625 
Q 42.046875 3.421875 37.71875 1 
Q 33.40625 -1.421875 27.6875 -1.421875 
Q 18.265625 -1.421875 13.375 4.4375 
Q 8.5 10.296875 8.5 21.578125 
z
M 31.109375 56 
z
" id="DejaVuSans-117"/>
    </defs>
    <g transform="translate(115.761042 16.318125)scale(0.12 -0.12)">
     <use xlink:href="#DejaVuSans-67"/>
     <use x="69.824219" xlink:href="#DejaVuSans-97"/>
     <use x="131.103516" xlink:href="#DejaVuSans-110"/>
     <use x="194.482422" xlink:href="#DejaVuSans-111"/>
     <use x="255.664062" xlink:href="#DejaVuSans-110"/>
     <use x="319.042969" xlink:href="#DejaVuSans-105"/>
     <use x="346.826172" xlink:href="#DejaVuSans-99"/>
     <use x="401.806641" xlink:href="#DejaVuSans-97"/>
     <use x="463.085938" xlink:href="#DejaVuSans-108"/>
     <use x="490.869141" xlink:href="#DejaVuSans-32"/>
     <use x="522.65625" xlink:href="#DejaVuSans-73"/>
     <use x="552.148438" xlink:href="#DejaVuSans-109"/>
     <use x="649.560547" xlink:href="#DejaVuSans-109"/>
     <use x="746.972656" xlink:href="#DejaVuSans-117"/>
     <use x="810.351562" xlink:href="#DejaVuSans-110"/>
     <use x="873.730469" xlink:href="#DejaVuSans-101"/>
     <use x="935.253906" xlink:href="#DejaVuSans-32"/>
     <use x="967.041016" xlink:href="#DejaVuSans-71"/>
     <use x="1044.53125" xlink:href="#DejaVuSans-101"/>
     <use x="1106.054688" xlink:href="#DejaVuSans-110"/>
     <use x="1169.433594" xlink:href="#DejaVuSans-101"/>
     <use x="1230.957031" xlink:href="#DejaVuSans-115"/>
    </g>
   </g>
  </g>
  <g id="legend_1">
   <g id="text_11">
    <!-- Sociality -->
    <g transform="translate(368.59599 164.379375)scale(0.1 -0.1)">
     <use xlink:href="#DejaVuSans-83"/>
     <use x="63.476562" xlink:href="#DejaVuSans-111"/>
     <use x="124.658203" xlink:href="#DejaVuSans-99"/>
     <use x="179.638672" xlink:href="#DejaVuSans-105"/>
     <use x="207.421875" xlink:href="#DejaVuSans-97"/>
     <use x="268.701172" xlink:href="#DejaVuSans-108"/>
     <use x="296.484375" xlink:href="#DejaVuSans-105"/>
     <use x="324.267578" xlink:href="#DejaVuSans-116"/>
     <use x="363.476562" xlink:href="#DejaVuSans-121"/>
    </g>
   </g>
   <g id="patch_8">
    <path d="M 342.503021 179.0575 
L 362.503021 179.0575 
L 362.503021 172.0575 
L 342.503021 172.0575 
z
" style="fill:#417192;stroke:#3e3e3e;stroke-linejoin:miter;stroke-width:0.75;"/>
   </g>
   <g id="text_12">
    <!-- Solitary -->
    <g transform="translate(370.503021 179.0575)scale(0.1 -0.1)">
     <use xlink:href="#DejaVuSans-83"/>
     <use x="63.476562" xlink:href="#DejaVuSans-111"/>
     <use x="124.658203" xlink:href="#DejaVuSans-108"/>
     <use x="152.441406" xlink:href="#DejaVuSans-105"/>
     <use x="180.224609" xlink:href="#DejaVuSans-116"/>
     <use x="219.433594" xlink:href="#DejaVuSans-97"/>
     <use x="280.712891" xlink:href="#DejaVuSans-114"/>
     <use x="321.826172" xlink:href="#DejaVuSans-121"/>
    </g>
   </g>
   <g id="patch_9">
    <path d="M 342.503021 193.735625 
L 362.503021 193.735625 
L 362.503021 186.735625 
L 342.503021 186.735625 
z
" style="fill:#468746;stroke:#3e3e3e;stroke-linejoin:miter;stroke-width:0.75;"/>
   </g>
   <g id="text_13">
    <!-- Social -->
    <g transform="translate(370.503021 193.735625)scale(0.1 -0.1)">
     <use xlink:href="#DejaVuSans-83"/>
     <use x="63.476562" xlink:href="#DejaVuSans-111"/>
     <use x="124.658203" xlink:href="#DejaVuSans-99"/>
     <use x="179.638672" xlink:href="#DejaVuSans-105"/>
     <use x="207.421875" xlink:href="#DejaVuSans-97"/>
     <use x="268.701172" xlink:href="#DejaVuSans-108"/>
    </g>
   </g>
   <g id="patch_10">
    <path d="M 342.503021 208.41375 
L 362.503021 208.41375 
L 362.503021 201.41375 
L 342.503021 201.41375 
z
" style="fill:#cc834b;stroke:#3e3e3e;stroke-linejoin:miter;stroke-width:0.75;"/>
   </g>
   <g id="text_14">
    <!-- Adv. eusocial -->
    <defs>
     <path d="M 34.1875 63.1875 
L 20.796875 26.90625 
L 47.609375 26.90625 
z
M 28.609375 72.90625 
L 39.796875 72.90625 
L 67.578125 0 
L 57.328125 0 
L 50.6875 18.703125 
L 17.828125 18.703125 
L 11.1875 0 
L 0.78125 0 
z
" id="DejaVuSans-65"/>
     <path d="M 45.40625 46.390625 
L 45.40625 75.984375 
L 54.390625 75.984375 
L 54.390625 0 
L 45.40625 0 
L 45.40625 8.203125 
Q 42.578125 3.328125 38.25 0.953125 
Q 33.9375 -1.421875 27.875 -1.421875 
Q 17.96875 -1.421875 11.734375 6.484375 
Q 5.515625 14.40625 5.515625 27.296875 
Q 5.515625 40.1875 11.734375 48.09375 
Q 17.96875 56 27.875 56 
Q 33.9375 56 38.25 53.625 
Q 42.578125 51.265625 45.40625 46.390625 
z
M 14.796875 27.296875 
Q 14.796875 17.390625 18.875 11.75 
Q 22.953125 6.109375 30.078125 6.109375 
Q 37.203125 6.109375 41.296875 11.75 
Q 45.40625 17.390625 45.40625 27.296875 
Q 45.40625 37.203125 41.296875 42.84375 
Q 37.203125 48.484375 30.078125 48.484375 
Q 22.953125 48.484375 18.875 42.84375 
Q 14.796875 37.203125 14.796875 27.296875 
z
" id="DejaVuSans-100"/>
     <path d="M 2.984375 54.6875 
L 12.5 54.6875 
L 29.59375 8.796875 
L 46.6875 54.6875 
L 56.203125 54.6875 
L 35.6875 0 
L 23.484375 0 
z
" id="DejaVuSans-118"/>
     <path d="M 10.6875 12.40625 
L 21 12.40625 
L 21 0 
L 10.6875 0 
z
" id="DejaVuSans-46"/>
    </defs>
    <g transform="translate(370.503021 208.41375)scale(0.1 -0.1)">
     <use xlink:href="#DejaVuSans-65"/>
     <use x="68.392578" xlink:href="#DejaVuSans-100"/>
     <use x="131.869141" xlink:href="#DejaVuSans-118"/>
     <use x="190.939453" xlink:href="#DejaVuSans-46"/>
     <use x="222.726562" xlink:href="#DejaVuSans-32"/>
     <use x="254.513672" xlink:href="#DejaVuSans-101"/>
     <use x="316.037109" xlink:href="#DejaVuSans-117"/>
     <use x="379.416016" xlink:href="#DejaVuSans-115"/>
     <use x="431.515625" xlink:href="#DejaVuSans-111"/>
     <use x="492.697266" xlink:href="#DejaVuSans-99"/>
     <use x="547.677734" xlink:href="#DejaVuSans-105"/>
     <use x="575.460938" xlink:href="#DejaVuSans-97"/>
     <use x="636.740234" xlink:href="#DejaVuSans-108"/>
    </g>
   </g>
  </g>
 </g>
 <defs>
  <clipPath id="p7708ee7472">
   <rect height="307.4" width="287.522083" x="48.982813" y="22.318125"/>
  </clipPath>
 </defs>
</svg>
